G04 #@! TF.GenerationSoftware,KiCad,Pcbnew,6.0.4-6f826c9f35~116~ubuntu18.04.1*
G04 #@! TF.CreationDate,2022-03-27T23:11:54+02:00*
G04 #@! TF.ProjectId,ultimateFC,756c7469-6d61-4746-9546-432e6b696361,rev?*
G04 #@! TF.SameCoordinates,Original*
G04 #@! TF.FileFunction,AssemblyDrawing,Bot*
%FSLAX46Y46*%
G04 Gerber Fmt 4.6, Leading zero omitted, Abs format (unit mm)*
G04 Created by KiCad (PCBNEW 6.0.4-6f826c9f35~116~ubuntu18.04.1) date 2022-03-27 23:11:54*
%MOMM*%
%LPD*%
G01*
G04 APERTURE LIST*
G04 #@! TA.AperFunction,Profile*
%ADD10C,0.200000*%
G04 #@! TD*
%ADD11C,0.100000*%
%ADD12C,0.040000*%
%ADD13C,0.120000*%
%ADD14C,0.080000*%
G04 APERTURE END LIST*
D10*
X198000000Y-73000000D02*
X196820000Y-73000000D01*
X196820000Y-74600000D02*
X197020000Y-74600000D01*
X197020000Y-74600000D02*
X197600000Y-74600000D01*
X196020000Y-73800000D02*
G75*
G03*
X196820000Y-74600000I800000J0D01*
G01*
X196820000Y-73000000D02*
G75*
G03*
X196020000Y-73800000I0J-800000D01*
G01*
X180080000Y-59950000D02*
X180570000Y-59949602D01*
X180570000Y-59949600D02*
G75*
G03*
X180820000Y-59699602I0J250000D01*
G01*
X180820000Y-59400000D02*
X181340000Y-59400000D01*
X180820000Y-59400000D02*
X180820000Y-59699602D01*
X179819800Y-59700000D02*
G75*
G03*
X180080000Y-59950000I250200J0D01*
G01*
X196820000Y-69400000D02*
G75*
G03*
X196020000Y-70200000I0J-800000D01*
G01*
X197020000Y-69400000D02*
X197600000Y-69400000D01*
X196820000Y-69400000D02*
X197020000Y-69400000D01*
X182700000Y-60100000D02*
X182300000Y-60100000D01*
X181367432Y-59460994D02*
X181340000Y-59400000D01*
X181367432Y-59460994D02*
G75*
G03*
X182300000Y-60100000I932568J360994D01*
G01*
X179820000Y-59400000D02*
X179470000Y-59400000D01*
X179820000Y-59400000D02*
X179820000Y-59699602D01*
X179170000Y-59560555D02*
G75*
G03*
X179470000Y-59400000I0J360555D01*
G01*
X178260000Y-59949999D02*
G75*
G03*
X178520199Y-59700000I10000J249999D01*
G01*
X178260000Y-59950000D02*
X177780000Y-59950000D01*
X178520001Y-59400000D02*
X178520000Y-59699602D01*
X175960000Y-59949999D02*
G75*
G03*
X176220199Y-59700000I10000J249999D01*
G01*
X176220001Y-59400000D02*
X176220000Y-59699601D01*
X177519800Y-59700000D02*
G75*
G03*
X177780000Y-59950000I250200J0D01*
G01*
X177520000Y-59400000D02*
X177520000Y-59699602D01*
X175220000Y-59400000D02*
X175220000Y-59699602D01*
X175960000Y-59950000D02*
X175480000Y-59950000D01*
X175219800Y-59700000D02*
G75*
G03*
X175480000Y-59950000I250200J0D01*
G01*
X174698768Y-59536778D02*
X174675268Y-59549435D01*
X178520001Y-59400000D02*
X178870000Y-59400000D01*
X178869999Y-59400000D02*
G75*
G03*
X179169999Y-59560556I300001J200000D01*
G01*
X177520000Y-59400000D02*
X177170000Y-59400000D01*
X176870000Y-59560555D02*
G75*
G03*
X177170000Y-59400000I0J360555D01*
G01*
X176220001Y-59400000D02*
X176570000Y-59400000D01*
X176569999Y-59400000D02*
G75*
G03*
X176869999Y-59560556I300001J200000D01*
G01*
X174698768Y-59536778D02*
G75*
G03*
X174870001Y-59400000I-128768J336778D01*
G01*
X175220000Y-59400000D02*
X174870001Y-59400000D01*
X184180000Y-59400000D02*
X183660000Y-59400000D01*
X184920000Y-59949999D02*
G75*
G03*
X185180199Y-59700000I10000J249999D01*
G01*
X184180000Y-59400000D02*
X184180000Y-59699602D01*
X184179999Y-59699602D02*
G75*
G03*
X184430001Y-59949601I250001J2D01*
G01*
X184920000Y-59950000D02*
X184430000Y-59949602D01*
X185180000Y-59400000D02*
X185530000Y-59400000D01*
X185530000Y-59400000D02*
G75*
G03*
X185830000Y-59560555I300000J200000D01*
G01*
X185180000Y-59400000D02*
X185180000Y-59699601D01*
X188779999Y-59400000D02*
X188780000Y-59699601D01*
X186479800Y-59700000D02*
G75*
G03*
X186740000Y-59950000I250200J0D01*
G01*
X187480000Y-59400000D02*
X187480000Y-59699602D01*
X186740000Y-59950000D02*
X187219999Y-59950000D01*
X187219999Y-59949998D02*
G75*
G03*
X187480198Y-59700000I10001J249998D01*
G01*
X186479999Y-59400000D02*
X186480000Y-59699601D01*
X188779800Y-59700000D02*
G75*
G03*
X189040000Y-59950000I250200J0D01*
G01*
X189780000Y-59400000D02*
X189780000Y-59699602D01*
X189040000Y-59950000D02*
X189520000Y-59950000D01*
X186479999Y-59400000D02*
X186130000Y-59400000D01*
X189780000Y-59400000D02*
X190129999Y-59400000D01*
X188130001Y-59560555D02*
G75*
G03*
X188430000Y-59400000I-1J360555D01*
G01*
X189520000Y-59949999D02*
G75*
G03*
X189780199Y-59700000I10000J249999D01*
G01*
X187830000Y-59400000D02*
G75*
G03*
X188130001Y-59560555I300000J200000D01*
G01*
X187480000Y-59400000D02*
X187830000Y-59400000D01*
X190301232Y-59536777D02*
X190324732Y-59549435D01*
X185830002Y-59560555D02*
G75*
G03*
X186130000Y-59400000I-2J360555D01*
G01*
X190129999Y-59400000D02*
G75*
G03*
X190301232Y-59536778I300001J200000D01*
G01*
X188779999Y-59400000D02*
X188430000Y-59400000D01*
X183632567Y-59460994D02*
X183660000Y-59400000D01*
X182700000Y-60100000D02*
G75*
G03*
X183632568Y-59460994I0J1000000D01*
G01*
X180820000Y-84600000D02*
X181340000Y-84600000D01*
X180080000Y-84050001D02*
G75*
G03*
X179819801Y-84300000I-10000J-249999D01*
G01*
X180820000Y-84600000D02*
X180820000Y-84300398D01*
X180820002Y-84300398D02*
G75*
G03*
X180570000Y-84050398I-250002J-2D01*
G01*
X180080000Y-84050000D02*
X180570000Y-84050398D01*
X179820000Y-84600000D02*
X179470000Y-84600000D01*
X179470000Y-84600000D02*
G75*
G03*
X179170000Y-84439445I-300000J-200000D01*
G01*
X179820000Y-84600000D02*
X179820000Y-84300398D01*
X176220001Y-84600000D02*
X176220000Y-84300399D01*
X178520200Y-84300000D02*
G75*
G03*
X178260000Y-84050000I-250200J0D01*
G01*
X177520000Y-84600000D02*
X177520000Y-84300398D01*
X178260000Y-84050000D02*
X177780000Y-84050000D01*
X177780000Y-84050001D02*
G75*
G03*
X177519801Y-84300000I-10000J-249999D01*
G01*
X178520001Y-84600000D02*
X178520000Y-84300398D01*
X176220200Y-84300000D02*
G75*
G03*
X175960000Y-84050000I-250200J0D01*
G01*
X175220000Y-84600000D02*
X175220000Y-84300398D01*
X175960000Y-84050000D02*
X175480000Y-84050000D01*
X178520001Y-84600000D02*
X178870000Y-84600000D01*
X175220000Y-84600000D02*
X174870001Y-84600000D01*
X176869999Y-84439445D02*
G75*
G03*
X176570000Y-84600000I1J-360555D01*
G01*
X175480000Y-84050001D02*
G75*
G03*
X175219801Y-84300000I-10000J-249999D01*
G01*
X177170000Y-84600000D02*
G75*
G03*
X176870000Y-84439445I-300000J-200000D01*
G01*
X177520000Y-84600000D02*
X177170000Y-84600000D01*
X174698768Y-84463222D02*
X174675268Y-84450565D01*
X179169999Y-84439445D02*
G75*
G03*
X178870000Y-84600000I1J-360555D01*
G01*
X174870001Y-84600000D02*
G75*
G03*
X174698768Y-84463222I-300001J-200000D01*
G01*
X176220001Y-84600000D02*
X176570000Y-84600000D01*
X184180000Y-84600000D02*
X184180000Y-84300398D01*
X188779999Y-84600000D02*
X188780000Y-84300399D01*
X187480200Y-84300000D02*
G75*
G03*
X187219999Y-84050000I-250200J0D01*
G01*
X185180000Y-84600000D02*
X185180000Y-84300399D01*
X186740000Y-84050000D02*
X187219999Y-84050000D01*
X186479999Y-84600000D02*
X186480000Y-84300399D01*
X189040000Y-84050001D02*
G75*
G03*
X188779801Y-84300000I-10000J-249999D01*
G01*
X190301232Y-84463222D02*
G75*
G03*
X190129999Y-84600000I128768J-336778D01*
G01*
X186740000Y-84050001D02*
G75*
G03*
X186479801Y-84300000I-10000J-249999D01*
G01*
X189780000Y-84600000D02*
X190129999Y-84600000D01*
X188130001Y-84439445D02*
G75*
G03*
X187830000Y-84600000I-1J-360555D01*
G01*
X185830000Y-84439445D02*
G75*
G03*
X185530000Y-84600000I0J-360555D01*
G01*
X187480000Y-84600000D02*
X187480000Y-84300398D01*
X184430001Y-84050400D02*
G75*
G03*
X184180000Y-84300398I-1J-250000D01*
G01*
X188779999Y-84600000D02*
X188430000Y-84600000D01*
X188430001Y-84600000D02*
G75*
G03*
X188130001Y-84439444I-300001J-200000D01*
G01*
X189780200Y-84300000D02*
G75*
G03*
X189520000Y-84050000I-250200J0D01*
G01*
X184920000Y-84050000D02*
X184430000Y-84050398D01*
X184180000Y-84600000D02*
X183660000Y-84600000D01*
X187480000Y-84600000D02*
X187830000Y-84600000D01*
X186130001Y-84600000D02*
G75*
G03*
X185830002Y-84439444I-300001J-200000D01*
G01*
X183632568Y-84539006D02*
G75*
G03*
X182700000Y-83900000I-932568J-360994D01*
G01*
X185180200Y-84300000D02*
G75*
G03*
X184920000Y-84050000I-250200J0D01*
G01*
X189780000Y-84600000D02*
X189780000Y-84300398D01*
X189040000Y-84050000D02*
X189520000Y-84050000D01*
X186479999Y-84600000D02*
X186130000Y-84600000D01*
X190301232Y-84463223D02*
X190324732Y-84450565D01*
X185180000Y-84600000D02*
X185530000Y-84600000D01*
X183632567Y-84539006D02*
X183660000Y-84600000D01*
X181367432Y-84539006D02*
X181340000Y-84600000D01*
X182300000Y-83900000D02*
G75*
G03*
X181367432Y-84539006I0J-1000000D01*
G01*
X182700000Y-83900000D02*
X182300000Y-83900000D01*
X191250326Y-83968348D02*
G75*
G03*
X190324732Y-84450565I-50626J-1032252D01*
G01*
X195072693Y-82785418D02*
G75*
G03*
X194750000Y-82750000I-323893J-1463282D01*
G01*
X192624881Y-83994654D02*
X191250328Y-83968303D01*
X197600000Y-82500000D02*
X197300000Y-82800000D01*
X193403000Y-83584694D02*
X193469647Y-83471754D01*
X197600000Y-74600000D02*
X197600000Y-82500000D01*
X195150000Y-82800000D02*
X197300000Y-82800000D01*
X195072691Y-82785428D02*
X195150000Y-82800000D01*
X194750000Y-82749942D02*
G75*
G03*
X193469647Y-83471754I1300J-1498758D01*
G01*
X192624881Y-83994657D02*
G75*
G03*
X193403000Y-83584694I-21881J984957D01*
G01*
X171600020Y-83574985D02*
G75*
G03*
X172300790Y-83956406I771280J582585D01*
G01*
X172300002Y-60043627D02*
G75*
G03*
X171600000Y-60425000I71298J-963973D01*
G01*
X168000000Y-63000000D02*
X170250000Y-61250000D01*
X171531783Y-60529123D02*
X171600000Y-60425000D01*
X168000000Y-63000000D02*
X168000000Y-66750000D01*
X167600000Y-67700000D02*
X167600000Y-72150000D01*
X172300790Y-83956406D02*
X173799998Y-83967062D01*
X167706139Y-67555170D02*
G75*
G03*
X168000000Y-66750000I-956139J805170D01*
G01*
X171531783Y-83470877D02*
X171600000Y-83575000D01*
X168000000Y-81000000D02*
X170250000Y-82750000D01*
X174675305Y-84450540D02*
G75*
G03*
X173799998Y-83967062I-875005J-550060D01*
G01*
X172300790Y-60043594D02*
X173799998Y-60032938D01*
X171531783Y-83470877D02*
G75*
G03*
X170250000Y-82750000I-1281783J-779123D01*
G01*
X167600000Y-67700000D02*
X167706139Y-67555170D01*
X170250000Y-61250000D02*
G75*
G03*
X171531783Y-60529123I0J1500000D01*
G01*
X167600000Y-76300001D02*
X167600000Y-72150000D01*
X168000000Y-77250001D02*
G75*
G03*
X167706139Y-76444831I-1250000J1D01*
G01*
X168000000Y-81000000D02*
X168000000Y-77250001D01*
X167600000Y-76300001D02*
X167706139Y-76444831D01*
X173800000Y-60032894D02*
G75*
G03*
X174675268Y-59549437I300J1033494D01*
G01*
X193469697Y-60528216D02*
G75*
G03*
X194750000Y-61250000I1281603J776916D01*
G01*
X193402998Y-60415307D02*
G75*
G03*
X192624881Y-60005346I-799998J-574993D01*
G01*
X192624881Y-60005346D02*
X191250328Y-60031697D01*
X197600000Y-69400000D02*
X197600000Y-61500000D01*
X195150000Y-61200000D02*
X197300000Y-61200000D01*
X195072691Y-61214572D02*
X195150000Y-61200000D01*
X194750000Y-61249990D02*
G75*
G03*
X195072691Y-61214572I-1200J1498690D01*
G01*
X193403000Y-60415306D02*
X193469647Y-60528246D01*
X198000000Y-71000000D02*
X198000000Y-73000000D01*
X190324694Y-59549459D02*
G75*
G03*
X191250328Y-60031697I875006J550059D01*
G01*
X198000000Y-71000000D02*
X196820000Y-71000000D01*
X196020000Y-70200000D02*
G75*
G03*
X196820000Y-71000000I800000J0D01*
G01*
X197600000Y-61500000D02*
X197300000Y-61200000D01*
D11*
X192700000Y-65150000D02*
X192200000Y-65650000D01*
X196850000Y-78350000D02*
X196350000Y-78850000D01*
X175300000Y-63700000D02*
X174800000Y-63200000D01*
X190200000Y-80800000D02*
X189700000Y-80300000D01*
X182000000Y-60950000D02*
X181500000Y-60450000D01*
X183500000Y-83550000D02*
X183000000Y-83050000D01*
X175350000Y-83550000D02*
X174850000Y-83050000D01*
X190200000Y-60950000D02*
X189700000Y-60450000D01*
X174700000Y-73100000D02*
X174200000Y-72600000D01*
D12*
X193660000Y-69987142D02*
X193674285Y-70001428D01*
X193717142Y-70015714D01*
X193745714Y-70015714D01*
X193788571Y-70001428D01*
X193817142Y-69972857D01*
X193831428Y-69944285D01*
X193845714Y-69887142D01*
X193845714Y-69844285D01*
X193831428Y-69787142D01*
X193817142Y-69758571D01*
X193788571Y-69730000D01*
X193745714Y-69715714D01*
X193717142Y-69715714D01*
X193674285Y-69730000D01*
X193660000Y-69744285D01*
X193402857Y-69715714D02*
X193460000Y-69715714D01*
X193488571Y-69730000D01*
X193502857Y-69744285D01*
X193531428Y-69787142D01*
X193545714Y-69844285D01*
X193545714Y-69958571D01*
X193531428Y-69987142D01*
X193517142Y-70001428D01*
X193488571Y-70015714D01*
X193431428Y-70015714D01*
X193402857Y-70001428D01*
X193388571Y-69987142D01*
X193374285Y-69958571D01*
X193374285Y-69887142D01*
X193388571Y-69858571D01*
X193402857Y-69844285D01*
X193431428Y-69830000D01*
X193488571Y-69830000D01*
X193517142Y-69844285D01*
X193531428Y-69858571D01*
X193545714Y-69887142D01*
X193487500Y-73867142D02*
X193501785Y-73881428D01*
X193544642Y-73895714D01*
X193573214Y-73895714D01*
X193616071Y-73881428D01*
X193644642Y-73852857D01*
X193658928Y-73824285D01*
X193673214Y-73767142D01*
X193673214Y-73724285D01*
X193658928Y-73667142D01*
X193644642Y-73638571D01*
X193616071Y-73610000D01*
X193573214Y-73595714D01*
X193544642Y-73595714D01*
X193501785Y-73610000D01*
X193487500Y-73624285D01*
X193316071Y-73724285D02*
X193344642Y-73710000D01*
X193358928Y-73695714D01*
X193373214Y-73667142D01*
X193373214Y-73652857D01*
X193358928Y-73624285D01*
X193344642Y-73610000D01*
X193316071Y-73595714D01*
X193258928Y-73595714D01*
X193230357Y-73610000D01*
X193216071Y-73624285D01*
X193201785Y-73652857D01*
X193201785Y-73667142D01*
X193216071Y-73695714D01*
X193230357Y-73710000D01*
X193258928Y-73724285D01*
X193316071Y-73724285D01*
X193344642Y-73738571D01*
X193358928Y-73752857D01*
X193373214Y-73781428D01*
X193373214Y-73838571D01*
X193358928Y-73867142D01*
X193344642Y-73881428D01*
X193316071Y-73895714D01*
X193258928Y-73895714D01*
X193230357Y-73881428D01*
X193216071Y-73867142D01*
X193201785Y-73838571D01*
X193201785Y-73781428D01*
X193216071Y-73752857D01*
X193230357Y-73738571D01*
X193258928Y-73724285D01*
X193655357Y-72717142D02*
X193669642Y-72731428D01*
X193712500Y-72745714D01*
X193741071Y-72745714D01*
X193783928Y-72731428D01*
X193812500Y-72702857D01*
X193826785Y-72674285D01*
X193841071Y-72617142D01*
X193841071Y-72574285D01*
X193826785Y-72517142D01*
X193812500Y-72488571D01*
X193783928Y-72460000D01*
X193741071Y-72445714D01*
X193712500Y-72445714D01*
X193669642Y-72460000D01*
X193655357Y-72474285D01*
X193369642Y-72745714D02*
X193541071Y-72745714D01*
X193455357Y-72745714D02*
X193455357Y-72445714D01*
X193483928Y-72488571D01*
X193512500Y-72517142D01*
X193541071Y-72531428D01*
X193083928Y-72745714D02*
X193255357Y-72745714D01*
X193169642Y-72745714D02*
X193169642Y-72445714D01*
X193198214Y-72488571D01*
X193226785Y-72517142D01*
X193255357Y-72531428D01*
X191675714Y-71082500D02*
X191675714Y-70939642D01*
X191375714Y-70939642D01*
X191404285Y-71168214D02*
X191390000Y-71182500D01*
X191375714Y-71211071D01*
X191375714Y-71282500D01*
X191390000Y-71311071D01*
X191404285Y-71325357D01*
X191432857Y-71339642D01*
X191461428Y-71339642D01*
X191504285Y-71325357D01*
X191675714Y-71153928D01*
X191675714Y-71339642D01*
X180185714Y-61871428D02*
X180428571Y-61871428D01*
X180457142Y-61885714D01*
X180471428Y-61900000D01*
X180485714Y-61928571D01*
X180485714Y-61985714D01*
X180471428Y-62014285D01*
X180457142Y-62028571D01*
X180428571Y-62042857D01*
X180185714Y-62042857D01*
X180314285Y-62228571D02*
X180300000Y-62200000D01*
X180285714Y-62185714D01*
X180257142Y-62171428D01*
X180242857Y-62171428D01*
X180214285Y-62185714D01*
X180200000Y-62200000D01*
X180185714Y-62228571D01*
X180185714Y-62285714D01*
X180200000Y-62314285D01*
X180214285Y-62328571D01*
X180242857Y-62342857D01*
X180257142Y-62342857D01*
X180285714Y-62328571D01*
X180300000Y-62314285D01*
X180314285Y-62285714D01*
X180314285Y-62228571D01*
X180328571Y-62200000D01*
X180342857Y-62185714D01*
X180371428Y-62171428D01*
X180428571Y-62171428D01*
X180457142Y-62185714D01*
X180471428Y-62200000D01*
X180485714Y-62228571D01*
X180485714Y-62285714D01*
X180471428Y-62314285D01*
X180457142Y-62328571D01*
X180428571Y-62342857D01*
X180371428Y-62342857D01*
X180342857Y-62328571D01*
X180328571Y-62314285D01*
X180314285Y-62285714D01*
X180947142Y-64837142D02*
X180961428Y-64822857D01*
X180975714Y-64780000D01*
X180975714Y-64751428D01*
X180961428Y-64708571D01*
X180932857Y-64680000D01*
X180904285Y-64665714D01*
X180847142Y-64651428D01*
X180804285Y-64651428D01*
X180747142Y-64665714D01*
X180718571Y-64680000D01*
X180690000Y-64708571D01*
X180675714Y-64751428D01*
X180675714Y-64780000D01*
X180690000Y-64822857D01*
X180704285Y-64837142D01*
X180975714Y-65122857D02*
X180975714Y-64951428D01*
X180975714Y-65037142D02*
X180675714Y-65037142D01*
X180718571Y-65008571D01*
X180747142Y-64980000D01*
X180761428Y-64951428D01*
X180675714Y-65308571D02*
X180675714Y-65337142D01*
X180690000Y-65365714D01*
X180704285Y-65380000D01*
X180732857Y-65394285D01*
X180790000Y-65408571D01*
X180861428Y-65408571D01*
X180918571Y-65394285D01*
X180947142Y-65380000D01*
X180961428Y-65365714D01*
X180975714Y-65337142D01*
X180975714Y-65308571D01*
X180961428Y-65280000D01*
X180947142Y-65265714D01*
X180918571Y-65251428D01*
X180861428Y-65237142D01*
X180790000Y-65237142D01*
X180732857Y-65251428D01*
X180704285Y-65265714D01*
X180690000Y-65280000D01*
X180675714Y-65308571D01*
X178505714Y-65421428D02*
X178748571Y-65421428D01*
X178777142Y-65435714D01*
X178791428Y-65450000D01*
X178805714Y-65478571D01*
X178805714Y-65535714D01*
X178791428Y-65564285D01*
X178777142Y-65578571D01*
X178748571Y-65592857D01*
X178505714Y-65592857D01*
X178505714Y-65707142D02*
X178505714Y-65907142D01*
X178805714Y-65778571D01*
X175668571Y-65435714D02*
X175668571Y-65678571D01*
X175654285Y-65707142D01*
X175640000Y-65721428D01*
X175611428Y-65735714D01*
X175554285Y-65735714D01*
X175525714Y-65721428D01*
X175511428Y-65707142D01*
X175497142Y-65678571D01*
X175497142Y-65435714D01*
X175340000Y-65735714D02*
X175282857Y-65735714D01*
X175254285Y-65721428D01*
X175240000Y-65707142D01*
X175211428Y-65664285D01*
X175197142Y-65607142D01*
X175197142Y-65492857D01*
X175211428Y-65464285D01*
X175225714Y-65450000D01*
X175254285Y-65435714D01*
X175311428Y-65435714D01*
X175340000Y-65450000D01*
X175354285Y-65464285D01*
X175368571Y-65492857D01*
X175368571Y-65564285D01*
X175354285Y-65592857D01*
X175340000Y-65607142D01*
X175311428Y-65621428D01*
X175254285Y-65621428D01*
X175225714Y-65607142D01*
X175211428Y-65592857D01*
X175197142Y-65564285D01*
X176235714Y-61728571D02*
X176478571Y-61728571D01*
X176507142Y-61742857D01*
X176521428Y-61757142D01*
X176535714Y-61785714D01*
X176535714Y-61842857D01*
X176521428Y-61871428D01*
X176507142Y-61885714D01*
X176478571Y-61900000D01*
X176235714Y-61900000D01*
X176535714Y-62200000D02*
X176535714Y-62028571D01*
X176535714Y-62114285D02*
X176235714Y-62114285D01*
X176278571Y-62085714D01*
X176307142Y-62057142D01*
X176321428Y-62028571D01*
X176535714Y-62485714D02*
X176535714Y-62314285D01*
X176535714Y-62400000D02*
X176235714Y-62400000D01*
X176278571Y-62371428D01*
X176307142Y-62342857D01*
X176321428Y-62314285D01*
X176607857Y-64257142D02*
X176622142Y-64271428D01*
X176665000Y-64285714D01*
X176693571Y-64285714D01*
X176736428Y-64271428D01*
X176765000Y-64242857D01*
X176779285Y-64214285D01*
X176793571Y-64157142D01*
X176793571Y-64114285D01*
X176779285Y-64057142D01*
X176765000Y-64028571D01*
X176736428Y-64000000D01*
X176693571Y-63985714D01*
X176665000Y-63985714D01*
X176622142Y-64000000D01*
X176607857Y-64014285D01*
X176322142Y-64285714D02*
X176493571Y-64285714D01*
X176407857Y-64285714D02*
X176407857Y-63985714D01*
X176436428Y-64028571D01*
X176465000Y-64057142D01*
X176493571Y-64071428D01*
X176222142Y-63985714D02*
X176022142Y-63985714D01*
X176150714Y-64285714D01*
X170892857Y-65807142D02*
X170907142Y-65821428D01*
X170950000Y-65835714D01*
X170978571Y-65835714D01*
X171021428Y-65821428D01*
X171050000Y-65792857D01*
X171064285Y-65764285D01*
X171078571Y-65707142D01*
X171078571Y-65664285D01*
X171064285Y-65607142D01*
X171050000Y-65578571D01*
X171021428Y-65550000D01*
X170978571Y-65535714D01*
X170950000Y-65535714D01*
X170907142Y-65550000D01*
X170892857Y-65564285D01*
X170607142Y-65835714D02*
X170778571Y-65835714D01*
X170692857Y-65835714D02*
X170692857Y-65535714D01*
X170721428Y-65578571D01*
X170750000Y-65607142D01*
X170778571Y-65621428D01*
X170492857Y-65564285D02*
X170478571Y-65550000D01*
X170450000Y-65535714D01*
X170378571Y-65535714D01*
X170350000Y-65550000D01*
X170335714Y-65564285D01*
X170321428Y-65592857D01*
X170321428Y-65621428D01*
X170335714Y-65664285D01*
X170507142Y-65835714D01*
X170321428Y-65835714D01*
X172492857Y-79107142D02*
X172507142Y-79121428D01*
X172550000Y-79135714D01*
X172578571Y-79135714D01*
X172621428Y-79121428D01*
X172650000Y-79092857D01*
X172664285Y-79064285D01*
X172678571Y-79007142D01*
X172678571Y-78964285D01*
X172664285Y-78907142D01*
X172650000Y-78878571D01*
X172621428Y-78850000D01*
X172578571Y-78835714D01*
X172550000Y-78835714D01*
X172507142Y-78850000D01*
X172492857Y-78864285D01*
X172207142Y-79135714D02*
X172378571Y-79135714D01*
X172292857Y-79135714D02*
X172292857Y-78835714D01*
X172321428Y-78878571D01*
X172350000Y-78907142D01*
X172378571Y-78921428D01*
X171950000Y-78935714D02*
X171950000Y-79135714D01*
X172021428Y-78821428D02*
X172092857Y-79035714D01*
X171907142Y-79035714D01*
X170292857Y-78907142D02*
X170307142Y-78921428D01*
X170350000Y-78935714D01*
X170378571Y-78935714D01*
X170421428Y-78921428D01*
X170450000Y-78892857D01*
X170464285Y-78864285D01*
X170478571Y-78807142D01*
X170478571Y-78764285D01*
X170464285Y-78707142D01*
X170450000Y-78678571D01*
X170421428Y-78650000D01*
X170378571Y-78635714D01*
X170350000Y-78635714D01*
X170307142Y-78650000D01*
X170292857Y-78664285D01*
X170007142Y-78935714D02*
X170178571Y-78935714D01*
X170092857Y-78935714D02*
X170092857Y-78635714D01*
X170121428Y-78678571D01*
X170150000Y-78707142D01*
X170178571Y-78721428D01*
X169735714Y-78635714D02*
X169878571Y-78635714D01*
X169892857Y-78778571D01*
X169878571Y-78764285D01*
X169850000Y-78750000D01*
X169778571Y-78750000D01*
X169750000Y-78764285D01*
X169735714Y-78778571D01*
X169721428Y-78807142D01*
X169721428Y-78878571D01*
X169735714Y-78907142D01*
X169750000Y-78921428D01*
X169778571Y-78935714D01*
X169850000Y-78935714D01*
X169878571Y-78921428D01*
X169892857Y-78907142D01*
X184957142Y-78777142D02*
X184971428Y-78762857D01*
X184985714Y-78720000D01*
X184985714Y-78691428D01*
X184971428Y-78648571D01*
X184942857Y-78620000D01*
X184914285Y-78605714D01*
X184857142Y-78591428D01*
X184814285Y-78591428D01*
X184757142Y-78605714D01*
X184728571Y-78620000D01*
X184700000Y-78648571D01*
X184685714Y-78691428D01*
X184685714Y-78720000D01*
X184700000Y-78762857D01*
X184714285Y-78777142D01*
X184985714Y-79062857D02*
X184985714Y-78891428D01*
X184985714Y-78977142D02*
X184685714Y-78977142D01*
X184728571Y-78948571D01*
X184757142Y-78920000D01*
X184771428Y-78891428D01*
X184685714Y-79320000D02*
X184685714Y-79262857D01*
X184700000Y-79234285D01*
X184714285Y-79220000D01*
X184757142Y-79191428D01*
X184814285Y-79177142D01*
X184928571Y-79177142D01*
X184957142Y-79191428D01*
X184971428Y-79205714D01*
X184985714Y-79234285D01*
X184985714Y-79291428D01*
X184971428Y-79320000D01*
X184957142Y-79334285D01*
X184928571Y-79348571D01*
X184857142Y-79348571D01*
X184828571Y-79334285D01*
X184814285Y-79320000D01*
X184800000Y-79291428D01*
X184800000Y-79234285D01*
X184814285Y-79205714D01*
X184828571Y-79191428D01*
X184857142Y-79177142D01*
X188777857Y-79967142D02*
X188792142Y-79981428D01*
X188835000Y-79995714D01*
X188863571Y-79995714D01*
X188906428Y-79981428D01*
X188935000Y-79952857D01*
X188949285Y-79924285D01*
X188963571Y-79867142D01*
X188963571Y-79824285D01*
X188949285Y-79767142D01*
X188935000Y-79738571D01*
X188906428Y-79710000D01*
X188863571Y-79695714D01*
X188835000Y-79695714D01*
X188792142Y-79710000D01*
X188777857Y-79724285D01*
X188492142Y-79995714D02*
X188663571Y-79995714D01*
X188577857Y-79995714D02*
X188577857Y-79695714D01*
X188606428Y-79738571D01*
X188635000Y-79767142D01*
X188663571Y-79781428D01*
X188349285Y-79995714D02*
X188292142Y-79995714D01*
X188263571Y-79981428D01*
X188249285Y-79967142D01*
X188220714Y-79924285D01*
X188206428Y-79867142D01*
X188206428Y-79752857D01*
X188220714Y-79724285D01*
X188235000Y-79710000D01*
X188263571Y-79695714D01*
X188320714Y-79695714D01*
X188349285Y-79710000D01*
X188363571Y-79724285D01*
X188377857Y-79752857D01*
X188377857Y-79824285D01*
X188363571Y-79852857D01*
X188349285Y-79867142D01*
X188320714Y-79881428D01*
X188263571Y-79881428D01*
X188235000Y-79867142D01*
X188220714Y-79852857D01*
X188206428Y-79824285D01*
X183357142Y-77957142D02*
X183371428Y-77942857D01*
X183385714Y-77900000D01*
X183385714Y-77871428D01*
X183371428Y-77828571D01*
X183342857Y-77800000D01*
X183314285Y-77785714D01*
X183257142Y-77771428D01*
X183214285Y-77771428D01*
X183157142Y-77785714D01*
X183128571Y-77800000D01*
X183100000Y-77828571D01*
X183085714Y-77871428D01*
X183085714Y-77900000D01*
X183100000Y-77942857D01*
X183114285Y-77957142D01*
X183114285Y-78071428D02*
X183100000Y-78085714D01*
X183085714Y-78114285D01*
X183085714Y-78185714D01*
X183100000Y-78214285D01*
X183114285Y-78228571D01*
X183142857Y-78242857D01*
X183171428Y-78242857D01*
X183214285Y-78228571D01*
X183385714Y-78057142D01*
X183385714Y-78242857D01*
X183214285Y-78414285D02*
X183200000Y-78385714D01*
X183185714Y-78371428D01*
X183157142Y-78357142D01*
X183142857Y-78357142D01*
X183114285Y-78371428D01*
X183100000Y-78385714D01*
X183085714Y-78414285D01*
X183085714Y-78471428D01*
X183100000Y-78500000D01*
X183114285Y-78514285D01*
X183142857Y-78528571D01*
X183157142Y-78528571D01*
X183185714Y-78514285D01*
X183200000Y-78500000D01*
X183214285Y-78471428D01*
X183214285Y-78414285D01*
X183228571Y-78385714D01*
X183242857Y-78371428D01*
X183271428Y-78357142D01*
X183328571Y-78357142D01*
X183357142Y-78371428D01*
X183371428Y-78385714D01*
X183385714Y-78414285D01*
X183385714Y-78471428D01*
X183371428Y-78500000D01*
X183357142Y-78514285D01*
X183328571Y-78528571D01*
X183271428Y-78528571D01*
X183242857Y-78514285D01*
X183228571Y-78500000D01*
X183214285Y-78471428D01*
X190987142Y-65852142D02*
X191001428Y-65837857D01*
X191015714Y-65795000D01*
X191015714Y-65766428D01*
X191001428Y-65723571D01*
X190972857Y-65695000D01*
X190944285Y-65680714D01*
X190887142Y-65666428D01*
X190844285Y-65666428D01*
X190787142Y-65680714D01*
X190758571Y-65695000D01*
X190730000Y-65723571D01*
X190715714Y-65766428D01*
X190715714Y-65795000D01*
X190730000Y-65837857D01*
X190744285Y-65852142D01*
X190744285Y-65966428D02*
X190730000Y-65980714D01*
X190715714Y-66009285D01*
X190715714Y-66080714D01*
X190730000Y-66109285D01*
X190744285Y-66123571D01*
X190772857Y-66137857D01*
X190801428Y-66137857D01*
X190844285Y-66123571D01*
X191015714Y-65952142D01*
X191015714Y-66137857D01*
X191015714Y-66280714D02*
X191015714Y-66337857D01*
X191001428Y-66366428D01*
X190987142Y-66380714D01*
X190944285Y-66409285D01*
X190887142Y-66423571D01*
X190772857Y-66423571D01*
X190744285Y-66409285D01*
X190730000Y-66395000D01*
X190715714Y-66366428D01*
X190715714Y-66309285D01*
X190730000Y-66280714D01*
X190744285Y-66266428D01*
X190772857Y-66252142D01*
X190844285Y-66252142D01*
X190872857Y-66266428D01*
X190887142Y-66280714D01*
X190901428Y-66309285D01*
X190901428Y-66366428D01*
X190887142Y-66395000D01*
X190872857Y-66409285D01*
X190844285Y-66423571D01*
X189707142Y-71657142D02*
X189721428Y-71642857D01*
X189735714Y-71600000D01*
X189735714Y-71571428D01*
X189721428Y-71528571D01*
X189692857Y-71500000D01*
X189664285Y-71485714D01*
X189607142Y-71471428D01*
X189564285Y-71471428D01*
X189507142Y-71485714D01*
X189478571Y-71500000D01*
X189450000Y-71528571D01*
X189435714Y-71571428D01*
X189435714Y-71600000D01*
X189450000Y-71642857D01*
X189464285Y-71657142D01*
X189435714Y-71757142D02*
X189435714Y-71942857D01*
X189550000Y-71842857D01*
X189550000Y-71885714D01*
X189564285Y-71914285D01*
X189578571Y-71928571D01*
X189607142Y-71942857D01*
X189678571Y-71942857D01*
X189707142Y-71928571D01*
X189721428Y-71914285D01*
X189735714Y-71885714D01*
X189735714Y-71800000D01*
X189721428Y-71771428D01*
X189707142Y-71757142D01*
X189435714Y-72042857D02*
X189435714Y-72228571D01*
X189550000Y-72128571D01*
X189550000Y-72171428D01*
X189564285Y-72200000D01*
X189578571Y-72214285D01*
X189607142Y-72228571D01*
X189678571Y-72228571D01*
X189707142Y-72214285D01*
X189721428Y-72200000D01*
X189735714Y-72171428D01*
X189735714Y-72085714D01*
X189721428Y-72057142D01*
X189707142Y-72042857D01*
X174167142Y-77727142D02*
X174181428Y-77712857D01*
X174195714Y-77670000D01*
X174195714Y-77641428D01*
X174181428Y-77598571D01*
X174152857Y-77570000D01*
X174124285Y-77555714D01*
X174067142Y-77541428D01*
X174024285Y-77541428D01*
X173967142Y-77555714D01*
X173938571Y-77570000D01*
X173910000Y-77598571D01*
X173895714Y-77641428D01*
X173895714Y-77670000D01*
X173910000Y-77712857D01*
X173924285Y-77727142D01*
X173895714Y-77827142D02*
X173895714Y-78012857D01*
X174010000Y-77912857D01*
X174010000Y-77955714D01*
X174024285Y-77984285D01*
X174038571Y-77998571D01*
X174067142Y-78012857D01*
X174138571Y-78012857D01*
X174167142Y-77998571D01*
X174181428Y-77984285D01*
X174195714Y-77955714D01*
X174195714Y-77870000D01*
X174181428Y-77841428D01*
X174167142Y-77827142D01*
X173995714Y-78270000D02*
X174195714Y-78270000D01*
X173881428Y-78198571D02*
X174095714Y-78127142D01*
X174095714Y-78312857D01*
X191092500Y-68798571D02*
X191192500Y-68798571D01*
X191192500Y-68955714D02*
X191192500Y-68655714D01*
X191049642Y-68655714D01*
X190835357Y-68798571D02*
X190792500Y-68812857D01*
X190778214Y-68827142D01*
X190763928Y-68855714D01*
X190763928Y-68898571D01*
X190778214Y-68927142D01*
X190792500Y-68941428D01*
X190821071Y-68955714D01*
X190935357Y-68955714D01*
X190935357Y-68655714D01*
X190835357Y-68655714D01*
X190806785Y-68670000D01*
X190792500Y-68684285D01*
X190778214Y-68712857D01*
X190778214Y-68741428D01*
X190792500Y-68770000D01*
X190806785Y-68784285D01*
X190835357Y-68798571D01*
X190935357Y-68798571D01*
X190663928Y-68655714D02*
X190478214Y-68655714D01*
X190578214Y-68770000D01*
X190535357Y-68770000D01*
X190506785Y-68784285D01*
X190492500Y-68798571D01*
X190478214Y-68827142D01*
X190478214Y-68898571D01*
X190492500Y-68927142D01*
X190506785Y-68941428D01*
X190535357Y-68955714D01*
X190621071Y-68955714D01*
X190649642Y-68941428D01*
X190663928Y-68927142D01*
X191030000Y-75518571D02*
X191130000Y-75518571D01*
X191130000Y-75675714D02*
X191130000Y-75375714D01*
X190987142Y-75375714D01*
X190772857Y-75518571D02*
X190730000Y-75532857D01*
X190715714Y-75547142D01*
X190701428Y-75575714D01*
X190701428Y-75618571D01*
X190715714Y-75647142D01*
X190730000Y-75661428D01*
X190758571Y-75675714D01*
X190872857Y-75675714D01*
X190872857Y-75375714D01*
X190772857Y-75375714D01*
X190744285Y-75390000D01*
X190730000Y-75404285D01*
X190715714Y-75432857D01*
X190715714Y-75461428D01*
X190730000Y-75490000D01*
X190744285Y-75504285D01*
X190772857Y-75518571D01*
X190872857Y-75518571D01*
X190444285Y-75475714D02*
X190444285Y-75675714D01*
X190515714Y-75361428D02*
X190587142Y-75575714D01*
X190401428Y-75575714D01*
X194610000Y-77005714D02*
X194610000Y-77220000D01*
X194624285Y-77262857D01*
X194652857Y-77291428D01*
X194695714Y-77305714D01*
X194724285Y-77305714D01*
X194338571Y-77105714D02*
X194338571Y-77305714D01*
X194410000Y-76991428D02*
X194481428Y-77205714D01*
X194295714Y-77205714D01*
X194650000Y-66660714D02*
X194650000Y-66875000D01*
X194664285Y-66917857D01*
X194692857Y-66946428D01*
X194735714Y-66960714D01*
X194764285Y-66960714D01*
X194364285Y-66660714D02*
X194507142Y-66660714D01*
X194521428Y-66803571D01*
X194507142Y-66789285D01*
X194478571Y-66775000D01*
X194407142Y-66775000D01*
X194378571Y-66789285D01*
X194364285Y-66803571D01*
X194350000Y-66832142D01*
X194350000Y-66903571D01*
X194364285Y-66932142D01*
X194378571Y-66946428D01*
X194407142Y-66960714D01*
X194478571Y-66960714D01*
X194507142Y-66946428D01*
X194521428Y-66932142D01*
X183385714Y-62342857D02*
X183242857Y-62242857D01*
X183385714Y-62171428D02*
X183085714Y-62171428D01*
X183085714Y-62285714D01*
X183100000Y-62314285D01*
X183114285Y-62328571D01*
X183142857Y-62342857D01*
X183185714Y-62342857D01*
X183214285Y-62328571D01*
X183228571Y-62314285D01*
X183242857Y-62285714D01*
X183242857Y-62171428D01*
X183385714Y-62471428D02*
X183085714Y-62471428D01*
X183385714Y-62642857D01*
X183085714Y-62642857D01*
X183085714Y-62928571D02*
X183085714Y-62785714D01*
X183228571Y-62771428D01*
X183214285Y-62785714D01*
X183200000Y-62814285D01*
X183200000Y-62885714D01*
X183214285Y-62914285D01*
X183228571Y-62928571D01*
X183257142Y-62942857D01*
X183328571Y-62942857D01*
X183357142Y-62928571D01*
X183371428Y-62914285D01*
X183385714Y-62885714D01*
X183385714Y-62814285D01*
X183371428Y-62785714D01*
X183357142Y-62771428D01*
X187735714Y-65900000D02*
X187592857Y-65800000D01*
X187735714Y-65728571D02*
X187435714Y-65728571D01*
X187435714Y-65842857D01*
X187450000Y-65871428D01*
X187464285Y-65885714D01*
X187492857Y-65900000D01*
X187535714Y-65900000D01*
X187564285Y-65885714D01*
X187578571Y-65871428D01*
X187592857Y-65842857D01*
X187592857Y-65728571D01*
X187735714Y-66028571D02*
X187435714Y-66028571D01*
X187735714Y-66200000D01*
X187435714Y-66200000D01*
X187735714Y-66500000D02*
X187735714Y-66328571D01*
X187735714Y-66414285D02*
X187435714Y-66414285D01*
X187478571Y-66385714D01*
X187507142Y-66357142D01*
X187521428Y-66328571D01*
X187535714Y-66757142D02*
X187735714Y-66757142D01*
X187421428Y-66685714D02*
X187635714Y-66614285D01*
X187635714Y-66800000D01*
X181935714Y-81150000D02*
X181792857Y-81050000D01*
X181935714Y-80978571D02*
X181635714Y-80978571D01*
X181635714Y-81092857D01*
X181650000Y-81121428D01*
X181664285Y-81135714D01*
X181692857Y-81150000D01*
X181735714Y-81150000D01*
X181764285Y-81135714D01*
X181778571Y-81121428D01*
X181792857Y-81092857D01*
X181792857Y-80978571D01*
X181935714Y-81278571D02*
X181635714Y-81278571D01*
X181935714Y-81450000D01*
X181635714Y-81450000D01*
X181935714Y-81750000D02*
X181935714Y-81578571D01*
X181935714Y-81664285D02*
X181635714Y-81664285D01*
X181678571Y-81635714D01*
X181707142Y-81607142D01*
X181721428Y-81578571D01*
X181764285Y-81921428D02*
X181750000Y-81892857D01*
X181735714Y-81878571D01*
X181707142Y-81864285D01*
X181692857Y-81864285D01*
X181664285Y-81878571D01*
X181650000Y-81892857D01*
X181635714Y-81921428D01*
X181635714Y-81978571D01*
X181650000Y-82007142D01*
X181664285Y-82021428D01*
X181692857Y-82035714D01*
X181707142Y-82035714D01*
X181735714Y-82021428D01*
X181750000Y-82007142D01*
X181764285Y-81978571D01*
X181764285Y-81921428D01*
X181778571Y-81892857D01*
X181792857Y-81878571D01*
X181821428Y-81864285D01*
X181878571Y-81864285D01*
X181907142Y-81878571D01*
X181921428Y-81892857D01*
X181935714Y-81921428D01*
X181935714Y-81978571D01*
X181921428Y-82007142D01*
X181907142Y-82021428D01*
X181878571Y-82035714D01*
X181821428Y-82035714D01*
X181792857Y-82021428D01*
X181778571Y-82007142D01*
X181764285Y-81978571D01*
X177585714Y-77390000D02*
X177442857Y-77290000D01*
X177585714Y-77218571D02*
X177285714Y-77218571D01*
X177285714Y-77332857D01*
X177300000Y-77361428D01*
X177314285Y-77375714D01*
X177342857Y-77390000D01*
X177385714Y-77390000D01*
X177414285Y-77375714D01*
X177428571Y-77361428D01*
X177442857Y-77332857D01*
X177442857Y-77218571D01*
X177585714Y-77518571D02*
X177285714Y-77518571D01*
X177585714Y-77690000D01*
X177285714Y-77690000D01*
X177314285Y-77818571D02*
X177300000Y-77832857D01*
X177285714Y-77861428D01*
X177285714Y-77932857D01*
X177300000Y-77961428D01*
X177314285Y-77975714D01*
X177342857Y-77990000D01*
X177371428Y-77990000D01*
X177414285Y-77975714D01*
X177585714Y-77804285D01*
X177585714Y-77990000D01*
X177285714Y-78175714D02*
X177285714Y-78204285D01*
X177300000Y-78232857D01*
X177314285Y-78247142D01*
X177342857Y-78261428D01*
X177400000Y-78275714D01*
X177471428Y-78275714D01*
X177528571Y-78261428D01*
X177557142Y-78247142D01*
X177571428Y-78232857D01*
X177585714Y-78204285D01*
X177585714Y-78175714D01*
X177571428Y-78147142D01*
X177557142Y-78132857D01*
X177528571Y-78118571D01*
X177471428Y-78104285D01*
X177400000Y-78104285D01*
X177342857Y-78118571D01*
X177314285Y-78132857D01*
X177300000Y-78147142D01*
X177285714Y-78175714D01*
X184615714Y-64821428D02*
X184858571Y-64821428D01*
X184887142Y-64835714D01*
X184901428Y-64850000D01*
X184915714Y-64878571D01*
X184915714Y-64935714D01*
X184901428Y-64964285D01*
X184887142Y-64978571D01*
X184858571Y-64992857D01*
X184615714Y-64992857D01*
X184915714Y-65292857D02*
X184915714Y-65121428D01*
X184915714Y-65207142D02*
X184615714Y-65207142D01*
X184658571Y-65178571D01*
X184687142Y-65150000D01*
X184701428Y-65121428D01*
X186155714Y-77978571D02*
X186398571Y-77978571D01*
X186427142Y-77992857D01*
X186441428Y-78007142D01*
X186455714Y-78035714D01*
X186455714Y-78092857D01*
X186441428Y-78121428D01*
X186427142Y-78135714D01*
X186398571Y-78150000D01*
X186155714Y-78150000D01*
X186455714Y-78450000D02*
X186455714Y-78278571D01*
X186455714Y-78364285D02*
X186155714Y-78364285D01*
X186198571Y-78335714D01*
X186227142Y-78307142D01*
X186241428Y-78278571D01*
X186184285Y-78564285D02*
X186170000Y-78578571D01*
X186155714Y-78607142D01*
X186155714Y-78678571D01*
X186170000Y-78707142D01*
X186184285Y-78721428D01*
X186212857Y-78735714D01*
X186241428Y-78735714D01*
X186284285Y-78721428D01*
X186455714Y-78550000D01*
X186455714Y-78735714D01*
X184485714Y-81528571D02*
X184728571Y-81528571D01*
X184757142Y-81542857D01*
X184771428Y-81557142D01*
X184785714Y-81585714D01*
X184785714Y-81642857D01*
X184771428Y-81671428D01*
X184757142Y-81685714D01*
X184728571Y-81700000D01*
X184485714Y-81700000D01*
X184785714Y-82000000D02*
X184785714Y-81828571D01*
X184785714Y-81914285D02*
X184485714Y-81914285D01*
X184528571Y-81885714D01*
X184557142Y-81857142D01*
X184571428Y-81828571D01*
X184485714Y-82271428D02*
X184485714Y-82128571D01*
X184628571Y-82114285D01*
X184614285Y-82128571D01*
X184600000Y-82157142D01*
X184600000Y-82228571D01*
X184614285Y-82257142D01*
X184628571Y-82271428D01*
X184657142Y-82285714D01*
X184728571Y-82285714D01*
X184757142Y-82271428D01*
X184771428Y-82257142D01*
X184785714Y-82228571D01*
X184785714Y-82157142D01*
X184771428Y-82128571D01*
X184757142Y-82114285D01*
X189921428Y-78235714D02*
X189921428Y-78478571D01*
X189907142Y-78507142D01*
X189892857Y-78521428D01*
X189864285Y-78535714D01*
X189807142Y-78535714D01*
X189778571Y-78521428D01*
X189764285Y-78507142D01*
X189750000Y-78478571D01*
X189750000Y-78235714D01*
X189450000Y-78535714D02*
X189621428Y-78535714D01*
X189535714Y-78535714D02*
X189535714Y-78235714D01*
X189564285Y-78278571D01*
X189592857Y-78307142D01*
X189621428Y-78321428D01*
X189350000Y-78235714D02*
X189150000Y-78235714D01*
X189278571Y-78535714D01*
X189205714Y-64908571D02*
X189448571Y-64908571D01*
X189477142Y-64922857D01*
X189491428Y-64937142D01*
X189505714Y-64965714D01*
X189505714Y-65022857D01*
X189491428Y-65051428D01*
X189477142Y-65065714D01*
X189448571Y-65080000D01*
X189205714Y-65080000D01*
X189505714Y-65380000D02*
X189505714Y-65208571D01*
X189505714Y-65294285D02*
X189205714Y-65294285D01*
X189248571Y-65265714D01*
X189277142Y-65237142D01*
X189291428Y-65208571D01*
X189334285Y-65551428D02*
X189320000Y-65522857D01*
X189305714Y-65508571D01*
X189277142Y-65494285D01*
X189262857Y-65494285D01*
X189234285Y-65508571D01*
X189220000Y-65522857D01*
X189205714Y-65551428D01*
X189205714Y-65608571D01*
X189220000Y-65637142D01*
X189234285Y-65651428D01*
X189262857Y-65665714D01*
X189277142Y-65665714D01*
X189305714Y-65651428D01*
X189320000Y-65637142D01*
X189334285Y-65608571D01*
X189334285Y-65551428D01*
X189348571Y-65522857D01*
X189362857Y-65508571D01*
X189391428Y-65494285D01*
X189448571Y-65494285D01*
X189477142Y-65508571D01*
X189491428Y-65522857D01*
X189505714Y-65551428D01*
X189505714Y-65608571D01*
X189491428Y-65637142D01*
X189477142Y-65651428D01*
X189448571Y-65665714D01*
X189391428Y-65665714D01*
X189362857Y-65651428D01*
X189348571Y-65637142D01*
X189334285Y-65608571D01*
X188385714Y-81578571D02*
X188628571Y-81578571D01*
X188657142Y-81592857D01*
X188671428Y-81607142D01*
X188685714Y-81635714D01*
X188685714Y-81692857D01*
X188671428Y-81721428D01*
X188657142Y-81735714D01*
X188628571Y-81750000D01*
X188385714Y-81750000D01*
X188414285Y-81878571D02*
X188400000Y-81892857D01*
X188385714Y-81921428D01*
X188385714Y-81992857D01*
X188400000Y-82021428D01*
X188414285Y-82035714D01*
X188442857Y-82050000D01*
X188471428Y-82050000D01*
X188514285Y-82035714D01*
X188685714Y-81864285D01*
X188685714Y-82050000D01*
X188685714Y-82335714D02*
X188685714Y-82164285D01*
X188685714Y-82250000D02*
X188385714Y-82250000D01*
X188428571Y-82221428D01*
X188457142Y-82192857D01*
X188471428Y-82164285D01*
X188435714Y-61728571D02*
X188678571Y-61728571D01*
X188707142Y-61742857D01*
X188721428Y-61757142D01*
X188735714Y-61785714D01*
X188735714Y-61842857D01*
X188721428Y-61871428D01*
X188707142Y-61885714D01*
X188678571Y-61900000D01*
X188435714Y-61900000D01*
X188464285Y-62028571D02*
X188450000Y-62042857D01*
X188435714Y-62071428D01*
X188435714Y-62142857D01*
X188450000Y-62171428D01*
X188464285Y-62185714D01*
X188492857Y-62200000D01*
X188521428Y-62200000D01*
X188564285Y-62185714D01*
X188735714Y-62014285D01*
X188735714Y-62200000D01*
X188464285Y-62314285D02*
X188450000Y-62328571D01*
X188435714Y-62357142D01*
X188435714Y-62428571D01*
X188450000Y-62457142D01*
X188464285Y-62471428D01*
X188492857Y-62485714D01*
X188521428Y-62485714D01*
X188564285Y-62471428D01*
X188735714Y-62300000D01*
X188735714Y-62485714D01*
X175465714Y-78348571D02*
X175708571Y-78348571D01*
X175737142Y-78362857D01*
X175751428Y-78377142D01*
X175765714Y-78405714D01*
X175765714Y-78462857D01*
X175751428Y-78491428D01*
X175737142Y-78505714D01*
X175708571Y-78520000D01*
X175465714Y-78520000D01*
X175494285Y-78648571D02*
X175480000Y-78662857D01*
X175465714Y-78691428D01*
X175465714Y-78762857D01*
X175480000Y-78791428D01*
X175494285Y-78805714D01*
X175522857Y-78820000D01*
X175551428Y-78820000D01*
X175594285Y-78805714D01*
X175765714Y-78634285D01*
X175765714Y-78820000D01*
X175594285Y-78991428D02*
X175580000Y-78962857D01*
X175565714Y-78948571D01*
X175537142Y-78934285D01*
X175522857Y-78934285D01*
X175494285Y-78948571D01*
X175480000Y-78962857D01*
X175465714Y-78991428D01*
X175465714Y-79048571D01*
X175480000Y-79077142D01*
X175494285Y-79091428D01*
X175522857Y-79105714D01*
X175537142Y-79105714D01*
X175565714Y-79091428D01*
X175580000Y-79077142D01*
X175594285Y-79048571D01*
X175594285Y-78991428D01*
X175608571Y-78962857D01*
X175622857Y-78948571D01*
X175651428Y-78934285D01*
X175708571Y-78934285D01*
X175737142Y-78948571D01*
X175751428Y-78962857D01*
X175765714Y-78991428D01*
X175765714Y-79048571D01*
X175751428Y-79077142D01*
X175737142Y-79091428D01*
X175708571Y-79105714D01*
X175651428Y-79105714D01*
X175622857Y-79091428D01*
X175608571Y-79077142D01*
X175594285Y-79048571D01*
X176285714Y-81628571D02*
X176528571Y-81628571D01*
X176557142Y-81642857D01*
X176571428Y-81657142D01*
X176585714Y-81685714D01*
X176585714Y-81742857D01*
X176571428Y-81771428D01*
X176557142Y-81785714D01*
X176528571Y-81800000D01*
X176285714Y-81800000D01*
X176285714Y-81914285D02*
X176285714Y-82100000D01*
X176400000Y-82000000D01*
X176400000Y-82042857D01*
X176414285Y-82071428D01*
X176428571Y-82085714D01*
X176457142Y-82100000D01*
X176528571Y-82100000D01*
X176557142Y-82085714D01*
X176571428Y-82071428D01*
X176585714Y-82042857D01*
X176585714Y-81957142D01*
X176571428Y-81928571D01*
X176557142Y-81914285D01*
X176285714Y-82285714D02*
X176285714Y-82314285D01*
X176300000Y-82342857D01*
X176314285Y-82357142D01*
X176342857Y-82371428D01*
X176400000Y-82385714D01*
X176471428Y-82385714D01*
X176528571Y-82371428D01*
X176557142Y-82357142D01*
X176571428Y-82342857D01*
X176585714Y-82314285D01*
X176585714Y-82285714D01*
X176571428Y-82257142D01*
X176557142Y-82242857D01*
X176528571Y-82228571D01*
X176471428Y-82214285D01*
X176400000Y-82214285D01*
X176342857Y-82228571D01*
X176314285Y-82242857D01*
X176300000Y-82257142D01*
X176285714Y-82285714D01*
X172492857Y-77407142D02*
X172507142Y-77421428D01*
X172550000Y-77435714D01*
X172578571Y-77435714D01*
X172621428Y-77421428D01*
X172650000Y-77392857D01*
X172664285Y-77364285D01*
X172678571Y-77307142D01*
X172678571Y-77264285D01*
X172664285Y-77207142D01*
X172650000Y-77178571D01*
X172621428Y-77150000D01*
X172578571Y-77135714D01*
X172550000Y-77135714D01*
X172507142Y-77150000D01*
X172492857Y-77164285D01*
X172235714Y-77235714D02*
X172235714Y-77435714D01*
X172307142Y-77121428D02*
X172378571Y-77335714D01*
X172192857Y-77335714D01*
X171921428Y-77435714D02*
X172092857Y-77435714D01*
X172007142Y-77435714D02*
X172007142Y-77135714D01*
X172035714Y-77178571D01*
X172064285Y-77207142D01*
X172092857Y-77221428D01*
X169570714Y-71427500D02*
X169785000Y-71427500D01*
X169827857Y-71413214D01*
X169856428Y-71384642D01*
X169870714Y-71341785D01*
X169870714Y-71313214D01*
X169870714Y-71727500D02*
X169870714Y-71556071D01*
X169870714Y-71641785D02*
X169570714Y-71641785D01*
X169613571Y-71613214D01*
X169642142Y-71584642D01*
X169656428Y-71556071D01*
X183342857Y-77185714D02*
X183442857Y-77042857D01*
X183514285Y-77185714D02*
X183514285Y-76885714D01*
X183400000Y-76885714D01*
X183371428Y-76900000D01*
X183357142Y-76914285D01*
X183342857Y-76942857D01*
X183342857Y-76985714D01*
X183357142Y-77014285D01*
X183371428Y-77028571D01*
X183400000Y-77042857D01*
X183514285Y-77042857D01*
X183085714Y-76985714D02*
X183085714Y-77185714D01*
X183157142Y-76871428D02*
X183228571Y-77085714D01*
X183042857Y-77085714D01*
X182957142Y-76885714D02*
X182757142Y-76885714D01*
X182885714Y-77185714D01*
X180055714Y-78578571D02*
X180298571Y-78578571D01*
X180327142Y-78592857D01*
X180341428Y-78607142D01*
X180355714Y-78635714D01*
X180355714Y-78692857D01*
X180341428Y-78721428D01*
X180327142Y-78735714D01*
X180298571Y-78750000D01*
X180055714Y-78750000D01*
X180084285Y-78878571D02*
X180070000Y-78892857D01*
X180055714Y-78921428D01*
X180055714Y-78992857D01*
X180070000Y-79021428D01*
X180084285Y-79035714D01*
X180112857Y-79050000D01*
X180141428Y-79050000D01*
X180184285Y-79035714D01*
X180355714Y-78864285D01*
X180355714Y-79050000D01*
X180155714Y-79307142D02*
X180355714Y-79307142D01*
X180041428Y-79235714D02*
X180255714Y-79164285D01*
X180255714Y-79350000D01*
X196342857Y-82107142D02*
X196357142Y-82121428D01*
X196400000Y-82135714D01*
X196428571Y-82135714D01*
X196471428Y-82121428D01*
X196500000Y-82092857D01*
X196514285Y-82064285D01*
X196528571Y-82007142D01*
X196528571Y-81964285D01*
X196514285Y-81907142D01*
X196500000Y-81878571D01*
X196471428Y-81850000D01*
X196428571Y-81835714D01*
X196400000Y-81835714D01*
X196357142Y-81850000D01*
X196342857Y-81864285D01*
X196228571Y-81864285D02*
X196214285Y-81850000D01*
X196185714Y-81835714D01*
X196114285Y-81835714D01*
X196085714Y-81850000D01*
X196071428Y-81864285D01*
X196057142Y-81892857D01*
X196057142Y-81921428D01*
X196071428Y-81964285D01*
X196242857Y-82135714D01*
X196057142Y-82135714D01*
X195942857Y-81864285D02*
X195928571Y-81850000D01*
X195900000Y-81835714D01*
X195828571Y-81835714D01*
X195800000Y-81850000D01*
X195785714Y-81864285D01*
X195771428Y-81892857D01*
X195771428Y-81921428D01*
X195785714Y-81964285D01*
X195957142Y-82135714D01*
X195771428Y-82135714D01*
X196342857Y-63257142D02*
X196357142Y-63271428D01*
X196400000Y-63285714D01*
X196428571Y-63285714D01*
X196471428Y-63271428D01*
X196500000Y-63242857D01*
X196514285Y-63214285D01*
X196528571Y-63157142D01*
X196528571Y-63114285D01*
X196514285Y-63057142D01*
X196500000Y-63028571D01*
X196471428Y-63000000D01*
X196428571Y-62985714D01*
X196400000Y-62985714D01*
X196357142Y-63000000D01*
X196342857Y-63014285D01*
X196228571Y-63014285D02*
X196214285Y-63000000D01*
X196185714Y-62985714D01*
X196114285Y-62985714D01*
X196085714Y-63000000D01*
X196071428Y-63014285D01*
X196057142Y-63042857D01*
X196057142Y-63071428D01*
X196071428Y-63114285D01*
X196242857Y-63285714D01*
X196057142Y-63285714D01*
X195957142Y-62985714D02*
X195771428Y-62985714D01*
X195871428Y-63100000D01*
X195828571Y-63100000D01*
X195800000Y-63114285D01*
X195785714Y-63128571D01*
X195771428Y-63157142D01*
X195771428Y-63228571D01*
X195785714Y-63257142D01*
X195800000Y-63271428D01*
X195828571Y-63285714D01*
X195914285Y-63285714D01*
X195942857Y-63271428D01*
X195957142Y-63257142D01*
X196345357Y-80957142D02*
X196359642Y-80971428D01*
X196402500Y-80985714D01*
X196431071Y-80985714D01*
X196473928Y-80971428D01*
X196502500Y-80942857D01*
X196516785Y-80914285D01*
X196531071Y-80857142D01*
X196531071Y-80814285D01*
X196516785Y-80757142D01*
X196502500Y-80728571D01*
X196473928Y-80700000D01*
X196431071Y-80685714D01*
X196402500Y-80685714D01*
X196359642Y-80700000D01*
X196345357Y-80714285D01*
X196231071Y-80714285D02*
X196216785Y-80700000D01*
X196188214Y-80685714D01*
X196116785Y-80685714D01*
X196088214Y-80700000D01*
X196073928Y-80714285D01*
X196059642Y-80742857D01*
X196059642Y-80771428D01*
X196073928Y-80814285D01*
X196245357Y-80985714D01*
X196059642Y-80985714D01*
X195802500Y-80785714D02*
X195802500Y-80985714D01*
X195873928Y-80671428D02*
X195945357Y-80885714D01*
X195759642Y-80885714D01*
X196342857Y-62107142D02*
X196357142Y-62121428D01*
X196400000Y-62135714D01*
X196428571Y-62135714D01*
X196471428Y-62121428D01*
X196500000Y-62092857D01*
X196514285Y-62064285D01*
X196528571Y-62007142D01*
X196528571Y-61964285D01*
X196514285Y-61907142D01*
X196500000Y-61878571D01*
X196471428Y-61850000D01*
X196428571Y-61835714D01*
X196400000Y-61835714D01*
X196357142Y-61850000D01*
X196342857Y-61864285D01*
X196085714Y-61935714D02*
X196085714Y-62135714D01*
X196157142Y-61821428D02*
X196228571Y-62035714D01*
X196042857Y-62035714D01*
X195785714Y-61835714D02*
X195928571Y-61835714D01*
X195942857Y-61978571D01*
X195928571Y-61964285D01*
X195900000Y-61950000D01*
X195828571Y-61950000D01*
X195800000Y-61964285D01*
X195785714Y-61978571D01*
X195771428Y-62007142D01*
X195771428Y-62078571D01*
X195785714Y-62107142D01*
X195800000Y-62121428D01*
X195828571Y-62135714D01*
X195900000Y-62135714D01*
X195928571Y-62121428D01*
X195942857Y-62107142D01*
X167785714Y-77200000D02*
X167642857Y-77100000D01*
X167785714Y-77028571D02*
X167485714Y-77028571D01*
X167485714Y-77142857D01*
X167500000Y-77171428D01*
X167514285Y-77185714D01*
X167542857Y-77200000D01*
X167585714Y-77200000D01*
X167614285Y-77185714D01*
X167628571Y-77171428D01*
X167642857Y-77142857D01*
X167642857Y-77028571D01*
X167485714Y-77471428D02*
X167485714Y-77328571D01*
X167628571Y-77314285D01*
X167614285Y-77328571D01*
X167600000Y-77357142D01*
X167600000Y-77428571D01*
X167614285Y-77457142D01*
X167628571Y-77471428D01*
X167657142Y-77485714D01*
X167728571Y-77485714D01*
X167757142Y-77471428D01*
X167771428Y-77457142D01*
X167785714Y-77428571D01*
X167785714Y-77357142D01*
X167771428Y-77328571D01*
X167757142Y-77314285D01*
X168850000Y-80335714D02*
X168950000Y-80192857D01*
X169021428Y-80335714D02*
X169021428Y-80035714D01*
X168907142Y-80035714D01*
X168878571Y-80050000D01*
X168864285Y-80064285D01*
X168850000Y-80092857D01*
X168850000Y-80135714D01*
X168864285Y-80164285D01*
X168878571Y-80178571D01*
X168907142Y-80192857D01*
X169021428Y-80192857D01*
X168707142Y-80335714D02*
X168650000Y-80335714D01*
X168621428Y-80321428D01*
X168607142Y-80307142D01*
X168578571Y-80264285D01*
X168564285Y-80207142D01*
X168564285Y-80092857D01*
X168578571Y-80064285D01*
X168592857Y-80050000D01*
X168621428Y-80035714D01*
X168678571Y-80035714D01*
X168707142Y-80050000D01*
X168721428Y-80064285D01*
X168735714Y-80092857D01*
X168735714Y-80164285D01*
X168721428Y-80192857D01*
X168707142Y-80207142D01*
X168678571Y-80221428D01*
X168621428Y-80221428D01*
X168592857Y-80207142D01*
X168578571Y-80192857D01*
X168564285Y-80164285D01*
X167785714Y-79007142D02*
X167642857Y-78907142D01*
X167785714Y-78835714D02*
X167485714Y-78835714D01*
X167485714Y-78950000D01*
X167500000Y-78978571D01*
X167514285Y-78992857D01*
X167542857Y-79007142D01*
X167585714Y-79007142D01*
X167614285Y-78992857D01*
X167628571Y-78978571D01*
X167642857Y-78950000D01*
X167642857Y-78835714D01*
X167785714Y-79292857D02*
X167785714Y-79121428D01*
X167785714Y-79207142D02*
X167485714Y-79207142D01*
X167528571Y-79178571D01*
X167557142Y-79150000D01*
X167571428Y-79121428D01*
X167485714Y-79478571D02*
X167485714Y-79507142D01*
X167500000Y-79535714D01*
X167514285Y-79550000D01*
X167542857Y-79564285D01*
X167600000Y-79578571D01*
X167671428Y-79578571D01*
X167728571Y-79564285D01*
X167757142Y-79550000D01*
X167771428Y-79535714D01*
X167785714Y-79507142D01*
X167785714Y-79478571D01*
X167771428Y-79450000D01*
X167757142Y-79435714D01*
X167728571Y-79421428D01*
X167671428Y-79407142D01*
X167600000Y-79407142D01*
X167542857Y-79421428D01*
X167514285Y-79435714D01*
X167500000Y-79450000D01*
X167485714Y-79478571D01*
X182892857Y-61535714D02*
X182992857Y-61392857D01*
X183064285Y-61535714D02*
X183064285Y-61235714D01*
X182950000Y-61235714D01*
X182921428Y-61250000D01*
X182907142Y-61264285D01*
X182892857Y-61292857D01*
X182892857Y-61335714D01*
X182907142Y-61364285D01*
X182921428Y-61378571D01*
X182950000Y-61392857D01*
X183064285Y-61392857D01*
X182607142Y-61535714D02*
X182778571Y-61535714D01*
X182692857Y-61535714D02*
X182692857Y-61235714D01*
X182721428Y-61278571D01*
X182750000Y-61307142D01*
X182778571Y-61321428D01*
X182492857Y-61264285D02*
X182478571Y-61250000D01*
X182450000Y-61235714D01*
X182378571Y-61235714D01*
X182350000Y-61250000D01*
X182335714Y-61264285D01*
X182321428Y-61292857D01*
X182321428Y-61321428D01*
X182335714Y-61364285D01*
X182507142Y-61535714D01*
X182321428Y-61535714D01*
X182892857Y-60935714D02*
X182992857Y-60792857D01*
X183064285Y-60935714D02*
X183064285Y-60635714D01*
X182950000Y-60635714D01*
X182921428Y-60650000D01*
X182907142Y-60664285D01*
X182892857Y-60692857D01*
X182892857Y-60735714D01*
X182907142Y-60764285D01*
X182921428Y-60778571D01*
X182950000Y-60792857D01*
X183064285Y-60792857D01*
X182607142Y-60935714D02*
X182778571Y-60935714D01*
X182692857Y-60935714D02*
X182692857Y-60635714D01*
X182721428Y-60678571D01*
X182750000Y-60707142D01*
X182778571Y-60721428D01*
X182350000Y-60735714D02*
X182350000Y-60935714D01*
X182421428Y-60621428D02*
X182492857Y-60835714D01*
X182307142Y-60835714D01*
X186942857Y-65335714D02*
X187042857Y-65192857D01*
X187114285Y-65335714D02*
X187114285Y-65035714D01*
X187000000Y-65035714D01*
X186971428Y-65050000D01*
X186957142Y-65064285D01*
X186942857Y-65092857D01*
X186942857Y-65135714D01*
X186957142Y-65164285D01*
X186971428Y-65178571D01*
X187000000Y-65192857D01*
X187114285Y-65192857D01*
X186657142Y-65335714D02*
X186828571Y-65335714D01*
X186742857Y-65335714D02*
X186742857Y-65035714D01*
X186771428Y-65078571D01*
X186800000Y-65107142D01*
X186828571Y-65121428D01*
X186400000Y-65035714D02*
X186457142Y-65035714D01*
X186485714Y-65050000D01*
X186500000Y-65064285D01*
X186528571Y-65107142D01*
X186542857Y-65164285D01*
X186542857Y-65278571D01*
X186528571Y-65307142D01*
X186514285Y-65321428D01*
X186485714Y-65335714D01*
X186428571Y-65335714D01*
X186400000Y-65321428D01*
X186385714Y-65307142D01*
X186371428Y-65278571D01*
X186371428Y-65207142D01*
X186385714Y-65178571D01*
X186400000Y-65164285D01*
X186428571Y-65150000D01*
X186485714Y-65150000D01*
X186514285Y-65164285D01*
X186528571Y-65178571D01*
X186542857Y-65207142D01*
X186942857Y-64685714D02*
X187042857Y-64542857D01*
X187114285Y-64685714D02*
X187114285Y-64385714D01*
X187000000Y-64385714D01*
X186971428Y-64400000D01*
X186957142Y-64414285D01*
X186942857Y-64442857D01*
X186942857Y-64485714D01*
X186957142Y-64514285D01*
X186971428Y-64528571D01*
X187000000Y-64542857D01*
X187114285Y-64542857D01*
X186657142Y-64685714D02*
X186828571Y-64685714D01*
X186742857Y-64685714D02*
X186742857Y-64385714D01*
X186771428Y-64428571D01*
X186800000Y-64457142D01*
X186828571Y-64471428D01*
X186557142Y-64385714D02*
X186357142Y-64385714D01*
X186485714Y-64685714D01*
X193535714Y-75007142D02*
X193392857Y-74907142D01*
X193535714Y-74835714D02*
X193235714Y-74835714D01*
X193235714Y-74950000D01*
X193250000Y-74978571D01*
X193264285Y-74992857D01*
X193292857Y-75007142D01*
X193335714Y-75007142D01*
X193364285Y-74992857D01*
X193378571Y-74978571D01*
X193392857Y-74950000D01*
X193392857Y-74835714D01*
X193264285Y-75121428D02*
X193250000Y-75135714D01*
X193235714Y-75164285D01*
X193235714Y-75235714D01*
X193250000Y-75264285D01*
X193264285Y-75278571D01*
X193292857Y-75292857D01*
X193321428Y-75292857D01*
X193364285Y-75278571D01*
X193535714Y-75107142D01*
X193535714Y-75292857D01*
X193535714Y-75578571D02*
X193535714Y-75407142D01*
X193535714Y-75492857D02*
X193235714Y-75492857D01*
X193278571Y-75464285D01*
X193307142Y-75435714D01*
X193321428Y-75407142D01*
X195235714Y-71207142D02*
X195092857Y-71107142D01*
X195235714Y-71035714D02*
X194935714Y-71035714D01*
X194935714Y-71150000D01*
X194950000Y-71178571D01*
X194964285Y-71192857D01*
X194992857Y-71207142D01*
X195035714Y-71207142D01*
X195064285Y-71192857D01*
X195078571Y-71178571D01*
X195092857Y-71150000D01*
X195092857Y-71035714D01*
X194964285Y-71321428D02*
X194950000Y-71335714D01*
X194935714Y-71364285D01*
X194935714Y-71435714D01*
X194950000Y-71464285D01*
X194964285Y-71478571D01*
X194992857Y-71492857D01*
X195021428Y-71492857D01*
X195064285Y-71478571D01*
X195235714Y-71307142D01*
X195235714Y-71492857D01*
X194964285Y-71607142D02*
X194950000Y-71621428D01*
X194935714Y-71650000D01*
X194935714Y-71721428D01*
X194950000Y-71750000D01*
X194964285Y-71764285D01*
X194992857Y-71778571D01*
X195021428Y-71778571D01*
X195064285Y-71764285D01*
X195235714Y-71592857D01*
X195235714Y-71778571D01*
X182492857Y-82785714D02*
X182592857Y-82642857D01*
X182664285Y-82785714D02*
X182664285Y-82485714D01*
X182550000Y-82485714D01*
X182521428Y-82500000D01*
X182507142Y-82514285D01*
X182492857Y-82542857D01*
X182492857Y-82585714D01*
X182507142Y-82614285D01*
X182521428Y-82628571D01*
X182550000Y-82642857D01*
X182664285Y-82642857D01*
X182378571Y-82514285D02*
X182364285Y-82500000D01*
X182335714Y-82485714D01*
X182264285Y-82485714D01*
X182235714Y-82500000D01*
X182221428Y-82514285D01*
X182207142Y-82542857D01*
X182207142Y-82571428D01*
X182221428Y-82614285D01*
X182392857Y-82785714D01*
X182207142Y-82785714D01*
X182107142Y-82485714D02*
X181921428Y-82485714D01*
X182021428Y-82600000D01*
X181978571Y-82600000D01*
X181950000Y-82614285D01*
X181935714Y-82628571D01*
X181921428Y-82657142D01*
X181921428Y-82728571D01*
X181935714Y-82757142D01*
X181950000Y-82771428D01*
X181978571Y-82785714D01*
X182064285Y-82785714D01*
X182092857Y-82771428D01*
X182107142Y-82757142D01*
X182542857Y-83385714D02*
X182642857Y-83242857D01*
X182714285Y-83385714D02*
X182714285Y-83085714D01*
X182600000Y-83085714D01*
X182571428Y-83100000D01*
X182557142Y-83114285D01*
X182542857Y-83142857D01*
X182542857Y-83185714D01*
X182557142Y-83214285D01*
X182571428Y-83228571D01*
X182600000Y-83242857D01*
X182714285Y-83242857D01*
X182428571Y-83114285D02*
X182414285Y-83100000D01*
X182385714Y-83085714D01*
X182314285Y-83085714D01*
X182285714Y-83100000D01*
X182271428Y-83114285D01*
X182257142Y-83142857D01*
X182257142Y-83171428D01*
X182271428Y-83214285D01*
X182442857Y-83385714D01*
X182257142Y-83385714D01*
X181985714Y-83085714D02*
X182128571Y-83085714D01*
X182142857Y-83228571D01*
X182128571Y-83214285D01*
X182100000Y-83200000D01*
X182028571Y-83200000D01*
X182000000Y-83214285D01*
X181985714Y-83228571D01*
X181971428Y-83257142D01*
X181971428Y-83328571D01*
X181985714Y-83357142D01*
X182000000Y-83371428D01*
X182028571Y-83385714D01*
X182100000Y-83385714D01*
X182128571Y-83371428D01*
X182142857Y-83357142D01*
X178442857Y-78935714D02*
X178542857Y-78792857D01*
X178614285Y-78935714D02*
X178614285Y-78635714D01*
X178500000Y-78635714D01*
X178471428Y-78650000D01*
X178457142Y-78664285D01*
X178442857Y-78692857D01*
X178442857Y-78735714D01*
X178457142Y-78764285D01*
X178471428Y-78778571D01*
X178500000Y-78792857D01*
X178614285Y-78792857D01*
X178328571Y-78664285D02*
X178314285Y-78650000D01*
X178285714Y-78635714D01*
X178214285Y-78635714D01*
X178185714Y-78650000D01*
X178171428Y-78664285D01*
X178157142Y-78692857D01*
X178157142Y-78721428D01*
X178171428Y-78764285D01*
X178342857Y-78935714D01*
X178157142Y-78935714D01*
X177985714Y-78764285D02*
X178014285Y-78750000D01*
X178028571Y-78735714D01*
X178042857Y-78707142D01*
X178042857Y-78692857D01*
X178028571Y-78664285D01*
X178014285Y-78650000D01*
X177985714Y-78635714D01*
X177928571Y-78635714D01*
X177900000Y-78650000D01*
X177885714Y-78664285D01*
X177871428Y-78692857D01*
X177871428Y-78707142D01*
X177885714Y-78735714D01*
X177900000Y-78750000D01*
X177928571Y-78764285D01*
X177985714Y-78764285D01*
X178014285Y-78778571D01*
X178028571Y-78792857D01*
X178042857Y-78821428D01*
X178042857Y-78878571D01*
X178028571Y-78907142D01*
X178014285Y-78921428D01*
X177985714Y-78935714D01*
X177928571Y-78935714D01*
X177900000Y-78921428D01*
X177885714Y-78907142D01*
X177871428Y-78878571D01*
X177871428Y-78821428D01*
X177885714Y-78792857D01*
X177900000Y-78778571D01*
X177928571Y-78764285D01*
X178442857Y-79585714D02*
X178542857Y-79442857D01*
X178614285Y-79585714D02*
X178614285Y-79285714D01*
X178500000Y-79285714D01*
X178471428Y-79300000D01*
X178457142Y-79314285D01*
X178442857Y-79342857D01*
X178442857Y-79385714D01*
X178457142Y-79414285D01*
X178471428Y-79428571D01*
X178500000Y-79442857D01*
X178614285Y-79442857D01*
X178328571Y-79314285D02*
X178314285Y-79300000D01*
X178285714Y-79285714D01*
X178214285Y-79285714D01*
X178185714Y-79300000D01*
X178171428Y-79314285D01*
X178157142Y-79342857D01*
X178157142Y-79371428D01*
X178171428Y-79414285D01*
X178342857Y-79585714D01*
X178157142Y-79585714D01*
X178014285Y-79585714D02*
X177957142Y-79585714D01*
X177928571Y-79571428D01*
X177914285Y-79557142D01*
X177885714Y-79514285D01*
X177871428Y-79457142D01*
X177871428Y-79342857D01*
X177885714Y-79314285D01*
X177900000Y-79300000D01*
X177928571Y-79285714D01*
X177985714Y-79285714D01*
X178014285Y-79300000D01*
X178028571Y-79314285D01*
X178042857Y-79342857D01*
X178042857Y-79414285D01*
X178028571Y-79442857D01*
X178014285Y-79457142D01*
X177985714Y-79471428D01*
X177928571Y-79471428D01*
X177900000Y-79457142D01*
X177885714Y-79442857D01*
X177871428Y-79414285D01*
X184935714Y-77257142D02*
X184792857Y-77157142D01*
X184935714Y-77085714D02*
X184635714Y-77085714D01*
X184635714Y-77200000D01*
X184650000Y-77228571D01*
X184664285Y-77242857D01*
X184692857Y-77257142D01*
X184735714Y-77257142D01*
X184764285Y-77242857D01*
X184778571Y-77228571D01*
X184792857Y-77200000D01*
X184792857Y-77085714D01*
X184735714Y-77514285D02*
X184935714Y-77514285D01*
X184621428Y-77442857D02*
X184835714Y-77371428D01*
X184835714Y-77557142D01*
X184764285Y-77714285D02*
X184750000Y-77685714D01*
X184735714Y-77671428D01*
X184707142Y-77657142D01*
X184692857Y-77657142D01*
X184664285Y-77671428D01*
X184650000Y-77685714D01*
X184635714Y-77714285D01*
X184635714Y-77771428D01*
X184650000Y-77800000D01*
X184664285Y-77814285D01*
X184692857Y-77828571D01*
X184707142Y-77828571D01*
X184735714Y-77814285D01*
X184750000Y-77800000D01*
X184764285Y-77771428D01*
X184764285Y-77714285D01*
X184778571Y-77685714D01*
X184792857Y-77671428D01*
X184821428Y-77657142D01*
X184878571Y-77657142D01*
X184907142Y-77671428D01*
X184921428Y-77685714D01*
X184935714Y-77714285D01*
X184935714Y-77771428D01*
X184921428Y-77800000D01*
X184907142Y-77814285D01*
X184878571Y-77828571D01*
X184821428Y-77828571D01*
X184792857Y-77814285D01*
X184778571Y-77800000D01*
X184764285Y-77771428D01*
X190535714Y-70497142D02*
X190392857Y-70397142D01*
X190535714Y-70325714D02*
X190235714Y-70325714D01*
X190235714Y-70440000D01*
X190250000Y-70468571D01*
X190264285Y-70482857D01*
X190292857Y-70497142D01*
X190335714Y-70497142D01*
X190364285Y-70482857D01*
X190378571Y-70468571D01*
X190392857Y-70440000D01*
X190392857Y-70325714D01*
X190235714Y-70768571D02*
X190235714Y-70625714D01*
X190378571Y-70611428D01*
X190364285Y-70625714D01*
X190350000Y-70654285D01*
X190350000Y-70725714D01*
X190364285Y-70754285D01*
X190378571Y-70768571D01*
X190407142Y-70782857D01*
X190478571Y-70782857D01*
X190507142Y-70768571D01*
X190521428Y-70754285D01*
X190535714Y-70725714D01*
X190535714Y-70654285D01*
X190521428Y-70625714D01*
X190507142Y-70611428D01*
X190364285Y-70954285D02*
X190350000Y-70925714D01*
X190335714Y-70911428D01*
X190307142Y-70897142D01*
X190292857Y-70897142D01*
X190264285Y-70911428D01*
X190250000Y-70925714D01*
X190235714Y-70954285D01*
X190235714Y-71011428D01*
X190250000Y-71040000D01*
X190264285Y-71054285D01*
X190292857Y-71068571D01*
X190307142Y-71068571D01*
X190335714Y-71054285D01*
X190350000Y-71040000D01*
X190364285Y-71011428D01*
X190364285Y-70954285D01*
X190378571Y-70925714D01*
X190392857Y-70911428D01*
X190421428Y-70897142D01*
X190478571Y-70897142D01*
X190507142Y-70911428D01*
X190521428Y-70925714D01*
X190535714Y-70954285D01*
X190535714Y-71011428D01*
X190521428Y-71040000D01*
X190507142Y-71054285D01*
X190478571Y-71068571D01*
X190421428Y-71068571D01*
X190392857Y-71054285D01*
X190378571Y-71040000D01*
X190364285Y-71011428D01*
X185407142Y-61765714D02*
X185507142Y-61622857D01*
X185578571Y-61765714D02*
X185578571Y-61465714D01*
X185464285Y-61465714D01*
X185435714Y-61480000D01*
X185421428Y-61494285D01*
X185407142Y-61522857D01*
X185407142Y-61565714D01*
X185421428Y-61594285D01*
X185435714Y-61608571D01*
X185464285Y-61622857D01*
X185578571Y-61622857D01*
X185278571Y-61765714D02*
X185278571Y-61465714D01*
X185107142Y-61765714D01*
X185107142Y-61465714D01*
X184807142Y-61765714D02*
X184978571Y-61765714D01*
X184892857Y-61765714D02*
X184892857Y-61465714D01*
X184921428Y-61508571D01*
X184950000Y-61537142D01*
X184978571Y-61551428D01*
X180120000Y-82505714D02*
X180220000Y-82362857D01*
X180291428Y-82505714D02*
X180291428Y-82205714D01*
X180177142Y-82205714D01*
X180148571Y-82220000D01*
X180134285Y-82234285D01*
X180120000Y-82262857D01*
X180120000Y-82305714D01*
X180134285Y-82334285D01*
X180148571Y-82348571D01*
X180177142Y-82362857D01*
X180291428Y-82362857D01*
X179991428Y-82505714D02*
X179991428Y-82205714D01*
X179820000Y-82505714D01*
X179820000Y-82205714D01*
X179520000Y-82505714D02*
X179691428Y-82505714D01*
X179605714Y-82505714D02*
X179605714Y-82205714D01*
X179634285Y-82248571D01*
X179662857Y-82277142D01*
X179691428Y-82291428D01*
X179262857Y-82205714D02*
X179320000Y-82205714D01*
X179348571Y-82220000D01*
X179362857Y-82234285D01*
X179391428Y-82277142D01*
X179405714Y-82334285D01*
X179405714Y-82448571D01*
X179391428Y-82477142D01*
X179377142Y-82491428D01*
X179348571Y-82505714D01*
X179291428Y-82505714D01*
X179262857Y-82491428D01*
X179248571Y-82477142D01*
X179234285Y-82448571D01*
X179234285Y-82377142D01*
X179248571Y-82348571D01*
X179262857Y-82334285D01*
X179291428Y-82320000D01*
X179348571Y-82320000D01*
X179377142Y-82334285D01*
X179391428Y-82348571D01*
X179405714Y-82377142D01*
X190292857Y-73417142D02*
X190435714Y-73417142D01*
X190135714Y-73317142D02*
X190292857Y-73417142D01*
X190135714Y-73517142D01*
X190164285Y-73602857D02*
X190150000Y-73617142D01*
X190135714Y-73645714D01*
X190135714Y-73717142D01*
X190150000Y-73745714D01*
X190164285Y-73760000D01*
X190192857Y-73774285D01*
X190221428Y-73774285D01*
X190264285Y-73760000D01*
X190435714Y-73588571D01*
X190435714Y-73774285D01*
X189635714Y-67247142D02*
X189492857Y-67147142D01*
X189635714Y-67075714D02*
X189335714Y-67075714D01*
X189335714Y-67190000D01*
X189350000Y-67218571D01*
X189364285Y-67232857D01*
X189392857Y-67247142D01*
X189435714Y-67247142D01*
X189464285Y-67232857D01*
X189478571Y-67218571D01*
X189492857Y-67190000D01*
X189492857Y-67075714D01*
X189335714Y-67347142D02*
X189335714Y-67532857D01*
X189450000Y-67432857D01*
X189450000Y-67475714D01*
X189464285Y-67504285D01*
X189478571Y-67518571D01*
X189507142Y-67532857D01*
X189578571Y-67532857D01*
X189607142Y-67518571D01*
X189621428Y-67504285D01*
X189635714Y-67475714D01*
X189635714Y-67390000D01*
X189621428Y-67361428D01*
X189607142Y-67347142D01*
X189635714Y-67818571D02*
X189635714Y-67647142D01*
X189635714Y-67732857D02*
X189335714Y-67732857D01*
X189378571Y-67704285D01*
X189407142Y-67675714D01*
X189421428Y-67647142D01*
X189535714Y-76517142D02*
X189392857Y-76417142D01*
X189535714Y-76345714D02*
X189235714Y-76345714D01*
X189235714Y-76460000D01*
X189250000Y-76488571D01*
X189264285Y-76502857D01*
X189292857Y-76517142D01*
X189335714Y-76517142D01*
X189364285Y-76502857D01*
X189378571Y-76488571D01*
X189392857Y-76460000D01*
X189392857Y-76345714D01*
X189235714Y-76617142D02*
X189235714Y-76802857D01*
X189350000Y-76702857D01*
X189350000Y-76745714D01*
X189364285Y-76774285D01*
X189378571Y-76788571D01*
X189407142Y-76802857D01*
X189478571Y-76802857D01*
X189507142Y-76788571D01*
X189521428Y-76774285D01*
X189535714Y-76745714D01*
X189535714Y-76660000D01*
X189521428Y-76631428D01*
X189507142Y-76617142D01*
X189264285Y-76917142D02*
X189250000Y-76931428D01*
X189235714Y-76960000D01*
X189235714Y-77031428D01*
X189250000Y-77060000D01*
X189264285Y-77074285D01*
X189292857Y-77088571D01*
X189321428Y-77088571D01*
X189364285Y-77074285D01*
X189535714Y-76902857D01*
X189535714Y-77088571D01*
X188085714Y-67247142D02*
X187942857Y-67147142D01*
X188085714Y-67075714D02*
X187785714Y-67075714D01*
X187785714Y-67190000D01*
X187800000Y-67218571D01*
X187814285Y-67232857D01*
X187842857Y-67247142D01*
X187885714Y-67247142D01*
X187914285Y-67232857D01*
X187928571Y-67218571D01*
X187942857Y-67190000D01*
X187942857Y-67075714D01*
X187785714Y-67347142D02*
X187785714Y-67532857D01*
X187900000Y-67432857D01*
X187900000Y-67475714D01*
X187914285Y-67504285D01*
X187928571Y-67518571D01*
X187957142Y-67532857D01*
X188028571Y-67532857D01*
X188057142Y-67518571D01*
X188071428Y-67504285D01*
X188085714Y-67475714D01*
X188085714Y-67390000D01*
X188071428Y-67361428D01*
X188057142Y-67347142D01*
X187785714Y-67632857D02*
X187785714Y-67818571D01*
X187900000Y-67718571D01*
X187900000Y-67761428D01*
X187914285Y-67790000D01*
X187928571Y-67804285D01*
X187957142Y-67818571D01*
X188028571Y-67818571D01*
X188057142Y-67804285D01*
X188071428Y-67790000D01*
X188085714Y-67761428D01*
X188085714Y-67675714D01*
X188071428Y-67647142D01*
X188057142Y-67632857D01*
X188035714Y-76517142D02*
X187892857Y-76417142D01*
X188035714Y-76345714D02*
X187735714Y-76345714D01*
X187735714Y-76460000D01*
X187750000Y-76488571D01*
X187764285Y-76502857D01*
X187792857Y-76517142D01*
X187835714Y-76517142D01*
X187864285Y-76502857D01*
X187878571Y-76488571D01*
X187892857Y-76460000D01*
X187892857Y-76345714D01*
X187735714Y-76617142D02*
X187735714Y-76802857D01*
X187850000Y-76702857D01*
X187850000Y-76745714D01*
X187864285Y-76774285D01*
X187878571Y-76788571D01*
X187907142Y-76802857D01*
X187978571Y-76802857D01*
X188007142Y-76788571D01*
X188021428Y-76774285D01*
X188035714Y-76745714D01*
X188035714Y-76660000D01*
X188021428Y-76631428D01*
X188007142Y-76617142D01*
X187835714Y-77060000D02*
X188035714Y-77060000D01*
X187721428Y-76988571D02*
X187935714Y-76917142D01*
X187935714Y-77102857D01*
X179985714Y-74957142D02*
X179842857Y-74857142D01*
X179985714Y-74785714D02*
X179685714Y-74785714D01*
X179685714Y-74900000D01*
X179700000Y-74928571D01*
X179714285Y-74942857D01*
X179742857Y-74957142D01*
X179785714Y-74957142D01*
X179814285Y-74942857D01*
X179828571Y-74928571D01*
X179842857Y-74900000D01*
X179842857Y-74785714D01*
X179685714Y-75057142D02*
X179685714Y-75242857D01*
X179800000Y-75142857D01*
X179800000Y-75185714D01*
X179814285Y-75214285D01*
X179828571Y-75228571D01*
X179857142Y-75242857D01*
X179928571Y-75242857D01*
X179957142Y-75228571D01*
X179971428Y-75214285D01*
X179985714Y-75185714D01*
X179985714Y-75100000D01*
X179971428Y-75071428D01*
X179957142Y-75057142D01*
X179685714Y-75500000D02*
X179685714Y-75442857D01*
X179700000Y-75414285D01*
X179714285Y-75400000D01*
X179757142Y-75371428D01*
X179814285Y-75357142D01*
X179928571Y-75357142D01*
X179957142Y-75371428D01*
X179971428Y-75385714D01*
X179985714Y-75414285D01*
X179985714Y-75471428D01*
X179971428Y-75500000D01*
X179957142Y-75514285D01*
X179928571Y-75528571D01*
X179857142Y-75528571D01*
X179828571Y-75514285D01*
X179814285Y-75500000D01*
X179800000Y-75471428D01*
X179800000Y-75414285D01*
X179814285Y-75385714D01*
X179828571Y-75371428D01*
X179857142Y-75357142D01*
X180585714Y-75107142D02*
X180442857Y-75007142D01*
X180585714Y-74935714D02*
X180285714Y-74935714D01*
X180285714Y-75050000D01*
X180300000Y-75078571D01*
X180314285Y-75092857D01*
X180342857Y-75107142D01*
X180385714Y-75107142D01*
X180414285Y-75092857D01*
X180428571Y-75078571D01*
X180442857Y-75050000D01*
X180442857Y-74935714D01*
X180285714Y-75207142D02*
X180285714Y-75392857D01*
X180400000Y-75292857D01*
X180400000Y-75335714D01*
X180414285Y-75364285D01*
X180428571Y-75378571D01*
X180457142Y-75392857D01*
X180528571Y-75392857D01*
X180557142Y-75378571D01*
X180571428Y-75364285D01*
X180585714Y-75335714D01*
X180585714Y-75250000D01*
X180571428Y-75221428D01*
X180557142Y-75207142D01*
X180285714Y-75492857D02*
X180285714Y-75692857D01*
X180585714Y-75564285D01*
X173771428Y-75935714D02*
X173771428Y-75635714D01*
X173700000Y-75635714D01*
X173657142Y-75650000D01*
X173628571Y-75678571D01*
X173614285Y-75707142D01*
X173600000Y-75764285D01*
X173600000Y-75807142D01*
X173614285Y-75864285D01*
X173628571Y-75892857D01*
X173657142Y-75921428D01*
X173700000Y-75935714D01*
X173771428Y-75935714D01*
X173485714Y-75664285D02*
X173471428Y-75650000D01*
X173442857Y-75635714D01*
X173371428Y-75635714D01*
X173342857Y-75650000D01*
X173328571Y-75664285D01*
X173314285Y-75692857D01*
X173314285Y-75721428D01*
X173328571Y-75764285D01*
X173500000Y-75935714D01*
X173314285Y-75935714D01*
X185085714Y-71728571D02*
X185328571Y-71728571D01*
X185357142Y-71742857D01*
X185371428Y-71757142D01*
X185385714Y-71785714D01*
X185385714Y-71842857D01*
X185371428Y-71871428D01*
X185357142Y-71885714D01*
X185328571Y-71900000D01*
X185085714Y-71900000D01*
X185085714Y-72014285D02*
X185085714Y-72200000D01*
X185200000Y-72100000D01*
X185200000Y-72142857D01*
X185214285Y-72171428D01*
X185228571Y-72185714D01*
X185257142Y-72200000D01*
X185328571Y-72200000D01*
X185357142Y-72185714D01*
X185371428Y-72171428D01*
X185385714Y-72142857D01*
X185385714Y-72057142D01*
X185371428Y-72028571D01*
X185357142Y-72014285D01*
X185085714Y-72300000D02*
X185085714Y-72485714D01*
X185200000Y-72385714D01*
X185200000Y-72428571D01*
X185214285Y-72457142D01*
X185228571Y-72471428D01*
X185257142Y-72485714D01*
X185328571Y-72485714D01*
X185357142Y-72471428D01*
X185371428Y-72457142D01*
X185385714Y-72428571D01*
X185385714Y-72342857D01*
X185371428Y-72314285D01*
X185357142Y-72300000D01*
X192292857Y-74307142D02*
X192307142Y-74321428D01*
X192350000Y-74335714D01*
X192378571Y-74335714D01*
X192421428Y-74321428D01*
X192450000Y-74292857D01*
X192464285Y-74264285D01*
X192478571Y-74207142D01*
X192478571Y-74164285D01*
X192464285Y-74107142D01*
X192450000Y-74078571D01*
X192421428Y-74050000D01*
X192378571Y-74035714D01*
X192350000Y-74035714D01*
X192307142Y-74050000D01*
X192292857Y-74064285D01*
X192021428Y-74035714D02*
X192164285Y-74035714D01*
X192178571Y-74178571D01*
X192164285Y-74164285D01*
X192135714Y-74150000D01*
X192064285Y-74150000D01*
X192035714Y-74164285D01*
X192021428Y-74178571D01*
X192007142Y-74207142D01*
X192007142Y-74278571D01*
X192021428Y-74307142D01*
X192035714Y-74321428D01*
X192064285Y-74335714D01*
X192135714Y-74335714D01*
X192164285Y-74321428D01*
X192178571Y-74307142D01*
X191907142Y-74035714D02*
X191721428Y-74035714D01*
X191821428Y-74150000D01*
X191778571Y-74150000D01*
X191750000Y-74164285D01*
X191735714Y-74178571D01*
X191721428Y-74207142D01*
X191721428Y-74278571D01*
X191735714Y-74307142D01*
X191750000Y-74321428D01*
X191778571Y-74335714D01*
X191864285Y-74335714D01*
X191892857Y-74321428D01*
X191907142Y-74307142D01*
X193671428Y-71085714D02*
X193671428Y-71328571D01*
X193657142Y-71357142D01*
X193642857Y-71371428D01*
X193614285Y-71385714D01*
X193557142Y-71385714D01*
X193528571Y-71371428D01*
X193514285Y-71357142D01*
X193500000Y-71328571D01*
X193500000Y-71085714D01*
X193200000Y-71385714D02*
X193371428Y-71385714D01*
X193285714Y-71385714D02*
X193285714Y-71085714D01*
X193314285Y-71128571D01*
X193342857Y-71157142D01*
X193371428Y-71171428D01*
X192942857Y-71185714D02*
X192942857Y-71385714D01*
X193014285Y-71071428D02*
X193085714Y-71285714D01*
X192900000Y-71285714D01*
X175952500Y-74357142D02*
X175966785Y-74371428D01*
X176009642Y-74385714D01*
X176038214Y-74385714D01*
X176081071Y-74371428D01*
X176109642Y-74342857D01*
X176123928Y-74314285D01*
X176138214Y-74257142D01*
X176138214Y-74214285D01*
X176123928Y-74157142D01*
X176109642Y-74128571D01*
X176081071Y-74100000D01*
X176038214Y-74085714D01*
X176009642Y-74085714D01*
X175966785Y-74100000D01*
X175952500Y-74114285D01*
X175666785Y-74385714D02*
X175838214Y-74385714D01*
X175752500Y-74385714D02*
X175752500Y-74085714D01*
X175781071Y-74128571D01*
X175809642Y-74157142D01*
X175838214Y-74171428D01*
X175922500Y-75957142D02*
X175936785Y-75971428D01*
X175979642Y-75985714D01*
X176008214Y-75985714D01*
X176051071Y-75971428D01*
X176079642Y-75942857D01*
X176093928Y-75914285D01*
X176108214Y-75857142D01*
X176108214Y-75814285D01*
X176093928Y-75757142D01*
X176079642Y-75728571D01*
X176051071Y-75700000D01*
X176008214Y-75685714D01*
X175979642Y-75685714D01*
X175936785Y-75700000D01*
X175922500Y-75714285D01*
X175808214Y-75714285D02*
X175793928Y-75700000D01*
X175765357Y-75685714D01*
X175693928Y-75685714D01*
X175665357Y-75700000D01*
X175651071Y-75714285D01*
X175636785Y-75742857D01*
X175636785Y-75771428D01*
X175651071Y-75814285D01*
X175822500Y-75985714D01*
X175636785Y-75985714D01*
X173757142Y-71650000D02*
X173771428Y-71635714D01*
X173785714Y-71592857D01*
X173785714Y-71564285D01*
X173771428Y-71521428D01*
X173742857Y-71492857D01*
X173714285Y-71478571D01*
X173657142Y-71464285D01*
X173614285Y-71464285D01*
X173557142Y-71478571D01*
X173528571Y-71492857D01*
X173500000Y-71521428D01*
X173485714Y-71564285D01*
X173485714Y-71592857D01*
X173500000Y-71635714D01*
X173514285Y-71650000D01*
X173485714Y-71750000D02*
X173485714Y-71935714D01*
X173600000Y-71835714D01*
X173600000Y-71878571D01*
X173614285Y-71907142D01*
X173628571Y-71921428D01*
X173657142Y-71935714D01*
X173728571Y-71935714D01*
X173757142Y-71921428D01*
X173771428Y-71907142D01*
X173785714Y-71878571D01*
X173785714Y-71792857D01*
X173771428Y-71764285D01*
X173757142Y-71750000D01*
X175002500Y-69297142D02*
X175016785Y-69311428D01*
X175059642Y-69325714D01*
X175088214Y-69325714D01*
X175131071Y-69311428D01*
X175159642Y-69282857D01*
X175173928Y-69254285D01*
X175188214Y-69197142D01*
X175188214Y-69154285D01*
X175173928Y-69097142D01*
X175159642Y-69068571D01*
X175131071Y-69040000D01*
X175088214Y-69025714D01*
X175059642Y-69025714D01*
X175016785Y-69040000D01*
X175002500Y-69054285D01*
X174745357Y-69125714D02*
X174745357Y-69325714D01*
X174816785Y-69011428D02*
X174888214Y-69225714D01*
X174702500Y-69225714D01*
X175620000Y-67947142D02*
X175634285Y-67961428D01*
X175677142Y-67975714D01*
X175705714Y-67975714D01*
X175748571Y-67961428D01*
X175777142Y-67932857D01*
X175791428Y-67904285D01*
X175805714Y-67847142D01*
X175805714Y-67804285D01*
X175791428Y-67747142D01*
X175777142Y-67718571D01*
X175748571Y-67690000D01*
X175705714Y-67675714D01*
X175677142Y-67675714D01*
X175634285Y-67690000D01*
X175620000Y-67704285D01*
X175348571Y-67675714D02*
X175491428Y-67675714D01*
X175505714Y-67818571D01*
X175491428Y-67804285D01*
X175462857Y-67790000D01*
X175391428Y-67790000D01*
X175362857Y-67804285D01*
X175348571Y-67818571D01*
X175334285Y-67847142D01*
X175334285Y-67918571D01*
X175348571Y-67947142D01*
X175362857Y-67961428D01*
X175391428Y-67975714D01*
X175462857Y-67975714D01*
X175491428Y-67961428D01*
X175505714Y-67947142D01*
X178018571Y-74440000D02*
X178018571Y-74340000D01*
X178175714Y-74340000D02*
X177875714Y-74340000D01*
X177875714Y-74482857D01*
X178018571Y-74697142D02*
X178032857Y-74740000D01*
X178047142Y-74754285D01*
X178075714Y-74768571D01*
X178118571Y-74768571D01*
X178147142Y-74754285D01*
X178161428Y-74740000D01*
X178175714Y-74711428D01*
X178175714Y-74597142D01*
X177875714Y-74597142D01*
X177875714Y-74697142D01*
X177890000Y-74725714D01*
X177904285Y-74740000D01*
X177932857Y-74754285D01*
X177961428Y-74754285D01*
X177990000Y-74740000D01*
X178004285Y-74725714D01*
X178018571Y-74697142D01*
X178018571Y-74597142D01*
X178175714Y-75054285D02*
X178175714Y-74882857D01*
X178175714Y-74968571D02*
X177875714Y-74968571D01*
X177918571Y-74940000D01*
X177947142Y-74911428D01*
X177961428Y-74882857D01*
X178170000Y-69198571D02*
X178270000Y-69198571D01*
X178270000Y-69355714D02*
X178270000Y-69055714D01*
X178127142Y-69055714D01*
X177912857Y-69198571D02*
X177870000Y-69212857D01*
X177855714Y-69227142D01*
X177841428Y-69255714D01*
X177841428Y-69298571D01*
X177855714Y-69327142D01*
X177870000Y-69341428D01*
X177898571Y-69355714D01*
X178012857Y-69355714D01*
X178012857Y-69055714D01*
X177912857Y-69055714D01*
X177884285Y-69070000D01*
X177870000Y-69084285D01*
X177855714Y-69112857D01*
X177855714Y-69141428D01*
X177870000Y-69170000D01*
X177884285Y-69184285D01*
X177912857Y-69198571D01*
X178012857Y-69198571D01*
X177727142Y-69084285D02*
X177712857Y-69070000D01*
X177684285Y-69055714D01*
X177612857Y-69055714D01*
X177584285Y-69070000D01*
X177570000Y-69084285D01*
X177555714Y-69112857D01*
X177555714Y-69141428D01*
X177570000Y-69184285D01*
X177741428Y-69355714D01*
X177555714Y-69355714D01*
X178455714Y-71765000D02*
X178455714Y-71622142D01*
X178155714Y-71622142D01*
X178455714Y-72022142D02*
X178455714Y-71850714D01*
X178455714Y-71936428D02*
X178155714Y-71936428D01*
X178198571Y-71907857D01*
X178227142Y-71879285D01*
X178241428Y-71850714D01*
X175235714Y-71421428D02*
X175478571Y-71421428D01*
X175507142Y-71435714D01*
X175521428Y-71450000D01*
X175535714Y-71478571D01*
X175535714Y-71535714D01*
X175521428Y-71564285D01*
X175507142Y-71578571D01*
X175478571Y-71592857D01*
X175235714Y-71592857D01*
X175235714Y-71878571D02*
X175235714Y-71735714D01*
X175378571Y-71721428D01*
X175364285Y-71735714D01*
X175350000Y-71764285D01*
X175350000Y-71835714D01*
X175364285Y-71864285D01*
X175378571Y-71878571D01*
X175407142Y-71892857D01*
X175478571Y-71892857D01*
X175507142Y-71878571D01*
X175521428Y-71864285D01*
X175535714Y-71835714D01*
X175535714Y-71764285D01*
X175521428Y-71735714D01*
X175507142Y-71721428D01*
X170292857Y-77207142D02*
X170307142Y-77221428D01*
X170350000Y-77235714D01*
X170378571Y-77235714D01*
X170421428Y-77221428D01*
X170450000Y-77192857D01*
X170464285Y-77164285D01*
X170478571Y-77107142D01*
X170478571Y-77064285D01*
X170464285Y-77007142D01*
X170450000Y-76978571D01*
X170421428Y-76950000D01*
X170378571Y-76935714D01*
X170350000Y-76935714D01*
X170307142Y-76950000D01*
X170292857Y-76964285D01*
X170178571Y-76964285D02*
X170164285Y-76950000D01*
X170135714Y-76935714D01*
X170064285Y-76935714D01*
X170035714Y-76950000D01*
X170021428Y-76964285D01*
X170007142Y-76992857D01*
X170007142Y-77021428D01*
X170021428Y-77064285D01*
X170192857Y-77235714D01*
X170007142Y-77235714D01*
X169721428Y-77235714D02*
X169892857Y-77235714D01*
X169807142Y-77235714D02*
X169807142Y-76935714D01*
X169835714Y-76978571D01*
X169864285Y-77007142D01*
X169892857Y-77021428D01*
X197550000Y-64310714D02*
X197650000Y-64167857D01*
X197721428Y-64310714D02*
X197721428Y-64010714D01*
X197607142Y-64010714D01*
X197578571Y-64025000D01*
X197564285Y-64039285D01*
X197550000Y-64067857D01*
X197550000Y-64110714D01*
X197564285Y-64139285D01*
X197578571Y-64153571D01*
X197607142Y-64167857D01*
X197721428Y-64167857D01*
X197421428Y-64153571D02*
X197321428Y-64153571D01*
X197278571Y-64310714D02*
X197421428Y-64310714D01*
X197421428Y-64010714D01*
X197278571Y-64010714D01*
X197050000Y-64153571D02*
X197150000Y-64153571D01*
X197150000Y-64310714D02*
X197150000Y-64010714D01*
X197007142Y-64010714D01*
X196850000Y-64010714D02*
X196850000Y-64082142D01*
X196921428Y-64053571D02*
X196850000Y-64082142D01*
X196778571Y-64053571D01*
X196892857Y-64139285D02*
X196850000Y-64082142D01*
X196807142Y-64139285D01*
X196621428Y-64010714D02*
X196621428Y-64082142D01*
X196692857Y-64053571D02*
X196621428Y-64082142D01*
X196550000Y-64053571D01*
X196664285Y-64139285D02*
X196621428Y-64082142D01*
X196578571Y-64139285D01*
X170275000Y-81335714D02*
X170375000Y-81192857D01*
X170446428Y-81335714D02*
X170446428Y-81035714D01*
X170332142Y-81035714D01*
X170303571Y-81050000D01*
X170289285Y-81064285D01*
X170275000Y-81092857D01*
X170275000Y-81135714D01*
X170289285Y-81164285D01*
X170303571Y-81178571D01*
X170332142Y-81192857D01*
X170446428Y-81192857D01*
X170146428Y-81178571D02*
X170046428Y-81178571D01*
X170003571Y-81335714D02*
X170146428Y-81335714D01*
X170146428Y-81035714D01*
X170003571Y-81035714D01*
X169775000Y-81178571D02*
X169875000Y-81178571D01*
X169875000Y-81335714D02*
X169875000Y-81035714D01*
X169732142Y-81035714D01*
X169575000Y-81035714D02*
X169575000Y-81107142D01*
X169646428Y-81078571D02*
X169575000Y-81107142D01*
X169503571Y-81078571D01*
X169617857Y-81164285D02*
X169575000Y-81107142D01*
X169532142Y-81164285D01*
X169346428Y-81035714D02*
X169346428Y-81107142D01*
X169417857Y-81078571D02*
X169346428Y-81107142D01*
X169275000Y-81078571D01*
X169389285Y-81164285D02*
X169346428Y-81107142D01*
X169303571Y-81164285D01*
D11*
X192810000Y-69480000D02*
X192810000Y-70280000D01*
X194410000Y-70280000D02*
X194410000Y-69480000D01*
X192810000Y-70280000D02*
X194410000Y-70280000D01*
X194410000Y-69480000D02*
X192810000Y-69480000D01*
X192637500Y-74160000D02*
X194237500Y-74160000D01*
X192637500Y-73360000D02*
X192637500Y-74160000D01*
X194237500Y-73360000D02*
X192637500Y-73360000D01*
X194237500Y-74160000D02*
X194237500Y-73360000D01*
X192662500Y-72210000D02*
X192662500Y-73010000D01*
X194262500Y-73010000D02*
X194262500Y-72210000D01*
X194262500Y-72210000D02*
X192662500Y-72210000D01*
X192662500Y-73010000D02*
X194262500Y-73010000D01*
X191140000Y-71932500D02*
X191940000Y-71932500D01*
X191940000Y-71932500D02*
X191940000Y-70332500D01*
X191140000Y-70332500D02*
X191140000Y-71932500D01*
X191940000Y-70332500D02*
X191140000Y-70332500D01*
X182004000Y-60455000D02*
X178704000Y-60455000D01*
X182004000Y-63755000D02*
X182004000Y-60455000D01*
X178704000Y-63755000D02*
X182004000Y-63755000D01*
X178704000Y-60455000D02*
X178704000Y-63755000D01*
X179910000Y-64530000D02*
X179910000Y-65530000D01*
X180410000Y-65530000D02*
X180410000Y-64530000D01*
X180410000Y-64530000D02*
X179910000Y-64530000D01*
X179910000Y-65530000D02*
X180410000Y-65530000D01*
X179670000Y-64650000D02*
X177670000Y-64650000D01*
X179670000Y-66150000D02*
X179670000Y-64650000D01*
X179170000Y-66650000D02*
X179670000Y-66150000D01*
X177670000Y-66650000D02*
X179170000Y-66650000D01*
X177670000Y-64650000D02*
X177670000Y-66650000D01*
X175940000Y-64600000D02*
X174440000Y-64600000D01*
X176440000Y-65100000D02*
X175940000Y-64600000D01*
X174440000Y-64600000D02*
X174440000Y-66600000D01*
X174440000Y-66600000D02*
X176440000Y-66600000D01*
X176440000Y-66600000D02*
X176440000Y-65100000D01*
X178086000Y-63725000D02*
X178086000Y-60425000D01*
X178086000Y-60425000D02*
X174786000Y-60425000D01*
X174786000Y-60425000D02*
X174786000Y-63725000D01*
X174786000Y-63725000D02*
X178086000Y-63725000D01*
X176915000Y-63900000D02*
X175915000Y-63900000D01*
X175915000Y-63900000D02*
X175915000Y-64400000D01*
X176915000Y-64400000D02*
X176915000Y-63900000D01*
X175915000Y-64400000D02*
X176915000Y-64400000D01*
X168950000Y-64300000D02*
X171750000Y-64300000D01*
X171750000Y-64300000D02*
X172450000Y-65000000D01*
X172450000Y-65000000D02*
X172450000Y-67100000D01*
X168950000Y-67100000D02*
X168950000Y-64300000D01*
X172450000Y-67100000D02*
X168950000Y-67100000D01*
X173300000Y-79400000D02*
X173300000Y-78400000D01*
X171300000Y-78400000D02*
X171300000Y-79400000D01*
X173300000Y-78400000D02*
X171300000Y-78400000D01*
X171300000Y-79400000D02*
X173300000Y-79400000D01*
X171100000Y-78400000D02*
X169100000Y-78400000D01*
X169100000Y-79400000D02*
X171100000Y-79400000D01*
X171100000Y-79400000D02*
X171100000Y-78400000D01*
X169100000Y-78400000D02*
X169100000Y-79400000D01*
X184600000Y-79470000D02*
X185100000Y-79470000D01*
X184600000Y-78470000D02*
X184600000Y-79470000D01*
X185100000Y-79470000D02*
X185100000Y-78470000D01*
X185100000Y-78470000D02*
X184600000Y-78470000D01*
X189085000Y-79610000D02*
X188085000Y-79610000D01*
X189085000Y-80110000D02*
X189085000Y-79610000D01*
X188085000Y-80110000D02*
X189085000Y-80110000D01*
X188085000Y-79610000D02*
X188085000Y-80110000D01*
X183500000Y-78445000D02*
X183800000Y-78445000D01*
X183500000Y-77845000D02*
X183500000Y-78445000D01*
X183800000Y-78445000D02*
X183800000Y-77845000D01*
X183800000Y-77845000D02*
X183500000Y-77845000D01*
X191130000Y-65545000D02*
X190630000Y-65545000D01*
X191130000Y-66545000D02*
X191130000Y-65545000D01*
X190630000Y-66545000D02*
X191130000Y-66545000D01*
X190630000Y-65545000D02*
X190630000Y-66545000D01*
X189900000Y-71600000D02*
X189900000Y-72200000D01*
X190200000Y-72200000D02*
X190200000Y-71600000D01*
X189900000Y-72200000D02*
X190200000Y-72200000D01*
X190200000Y-71600000D02*
X189900000Y-71600000D01*
X174310000Y-77420000D02*
X173810000Y-77420000D01*
X173810000Y-78420000D02*
X174310000Y-78420000D01*
X174310000Y-78420000D02*
X174310000Y-77420000D01*
X173810000Y-77420000D02*
X173810000Y-78420000D01*
X191642500Y-69220000D02*
X191642500Y-68420000D01*
X190042500Y-69220000D02*
X191642500Y-69220000D01*
X191642500Y-68420000D02*
X190042500Y-68420000D01*
X190042500Y-68420000D02*
X190042500Y-69220000D01*
X189980000Y-75140000D02*
X189980000Y-75940000D01*
X189980000Y-75940000D02*
X191580000Y-75940000D01*
X191580000Y-75940000D02*
X191580000Y-75140000D01*
X191580000Y-75140000D02*
X189980000Y-75140000D01*
D13*
X192160000Y-78870000D02*
X196860000Y-78870000D01*
X196860000Y-78870000D02*
X196860000Y-76370000D01*
X196860000Y-76370000D02*
X192160000Y-76370000D01*
X192160000Y-76370000D02*
X192160000Y-78870000D01*
X192200000Y-65125000D02*
X192200000Y-67625000D01*
X192200000Y-67625000D02*
X196900000Y-67625000D01*
X196900000Y-65125000D02*
X192200000Y-65125000D01*
X196900000Y-67625000D02*
X196900000Y-65125000D01*
D14*
X183530000Y-61800000D02*
X182930000Y-61800000D01*
X183530000Y-63200000D02*
X183530000Y-61800000D01*
X182930000Y-63200000D02*
X183530000Y-63200000D01*
X182930000Y-61800000D02*
X182930000Y-63200000D01*
D13*
X182955000Y-63325000D02*
G75*
G03*
X182955000Y-63325000I-25000J0D01*
G01*
D14*
X187870000Y-65560000D02*
X187270000Y-65560000D01*
X187270000Y-65560000D02*
X187270000Y-66960000D01*
X187270000Y-66960000D02*
X187870000Y-66960000D01*
X187870000Y-66960000D02*
X187870000Y-65560000D01*
D13*
X187895000Y-65435000D02*
G75*
G03*
X187895000Y-65435000I-25000J0D01*
G01*
D14*
X182070000Y-82200000D02*
X182070000Y-80800000D01*
X181470000Y-82200000D02*
X182070000Y-82200000D01*
X181470000Y-80800000D02*
X181470000Y-82200000D01*
X182070000Y-80800000D02*
X181470000Y-80800000D01*
D13*
X182095000Y-80675000D02*
G75*
G03*
X182095000Y-80675000I-25000J0D01*
G01*
D14*
X177130000Y-78440000D02*
X177730000Y-78440000D01*
X177730000Y-77040000D02*
X177130000Y-77040000D01*
X177130000Y-77040000D02*
X177130000Y-78440000D01*
X177730000Y-78440000D02*
X177730000Y-77040000D01*
D13*
X177155000Y-78565000D02*
G75*
G03*
X177155000Y-78565000I-25000J0D01*
G01*
D11*
X186280000Y-63550000D02*
X184280000Y-63550000D01*
X186280000Y-66550000D02*
X186280000Y-63550000D01*
X184280000Y-63550000D02*
X183280000Y-64550000D01*
X183280000Y-66550000D02*
X186280000Y-66550000D01*
X183280000Y-64550000D02*
X183280000Y-66550000D01*
X187320000Y-77350000D02*
X185820000Y-77350000D01*
X185320000Y-77850000D02*
X185320000Y-79350000D01*
X187320000Y-79350000D02*
X187320000Y-77350000D01*
X185820000Y-77350000D02*
X185320000Y-77850000D01*
X185320000Y-79350000D02*
X187320000Y-79350000D01*
X186296000Y-83545000D02*
X186296000Y-80245000D01*
X186296000Y-80245000D02*
X182996000Y-80245000D01*
X182996000Y-80245000D02*
X182996000Y-83545000D01*
X182996000Y-83545000D02*
X186296000Y-83545000D01*
X188550000Y-77400000D02*
X188550000Y-78900000D01*
X189050000Y-79400000D02*
X190550000Y-79400000D01*
X188550000Y-78900000D02*
X189050000Y-79400000D01*
X190550000Y-77400000D02*
X188550000Y-77400000D01*
X190550000Y-79400000D02*
X190550000Y-77400000D01*
X188370000Y-64280000D02*
X188370000Y-66280000D01*
X190370000Y-65780000D02*
X190370000Y-64280000D01*
X188370000Y-66280000D02*
X189870000Y-66280000D01*
X190370000Y-64280000D02*
X188370000Y-64280000D01*
X189870000Y-66280000D02*
X190370000Y-65780000D01*
X190214000Y-80275000D02*
X186914000Y-80275000D01*
X186914000Y-80275000D02*
X186914000Y-83575000D01*
X190214000Y-83575000D02*
X190214000Y-80275000D01*
X186914000Y-83575000D02*
X190214000Y-83575000D01*
X190194000Y-60435000D02*
X186894000Y-60435000D01*
X186894000Y-60435000D02*
X186894000Y-63735000D01*
X186894000Y-63735000D02*
X190194000Y-63735000D01*
X190194000Y-63735000D02*
X190194000Y-60435000D01*
X176630000Y-79720000D02*
X176630000Y-77720000D01*
X174630000Y-79720000D02*
X176630000Y-79720000D01*
X176630000Y-77720000D02*
X175130000Y-77720000D01*
X175130000Y-77720000D02*
X174630000Y-78220000D01*
X174630000Y-78220000D02*
X174630000Y-79720000D01*
X174806000Y-80265000D02*
X174806000Y-83565000D01*
X178106000Y-80265000D02*
X174806000Y-80265000D01*
X178106000Y-83565000D02*
X178106000Y-80265000D01*
X174806000Y-83565000D02*
X178106000Y-83565000D01*
X171300000Y-77700000D02*
X173300000Y-77700000D01*
X173300000Y-76700000D02*
X171300000Y-76700000D01*
X173300000Y-77700000D02*
X173300000Y-76700000D01*
X171300000Y-76700000D02*
X171300000Y-77700000D01*
X168285000Y-74777500D02*
X168285000Y-68277500D01*
X172585000Y-67777500D02*
X167585000Y-67777500D01*
X167585000Y-67777500D02*
X167585000Y-75277500D01*
X167585000Y-75277500D02*
X172585000Y-75277500D01*
X172585000Y-75277500D02*
X172585000Y-67777500D01*
X183650000Y-77300000D02*
X183650000Y-76800000D01*
X183650000Y-76800000D02*
X182650000Y-76800000D01*
X182650000Y-76800000D02*
X182650000Y-77300000D01*
X182650000Y-77300000D02*
X183650000Y-77300000D01*
X178720000Y-77450000D02*
X178720000Y-80450000D01*
X181720000Y-77450000D02*
X178720000Y-77450000D01*
X181720000Y-79450000D02*
X181720000Y-77450000D01*
X180720000Y-80450000D02*
X181720000Y-79450000D01*
X178720000Y-80450000D02*
X180720000Y-80450000D01*
X196950000Y-81600000D02*
X195350000Y-81600000D01*
X195350000Y-81600000D02*
X195350000Y-82400000D01*
X195350000Y-82400000D02*
X196950000Y-82400000D01*
X196950000Y-82400000D02*
X196950000Y-81600000D01*
X196950000Y-62750000D02*
X195350000Y-62750000D01*
X196950000Y-63550000D02*
X196950000Y-62750000D01*
X195350000Y-62750000D02*
X195350000Y-63550000D01*
X195350000Y-63550000D02*
X196950000Y-63550000D01*
X196952500Y-81250000D02*
X196952500Y-80450000D01*
X195352500Y-80450000D02*
X195352500Y-81250000D01*
X195352500Y-81250000D02*
X196952500Y-81250000D01*
X196952500Y-80450000D02*
X195352500Y-80450000D01*
X195350000Y-61600000D02*
X195350000Y-62400000D01*
X195350000Y-62400000D02*
X196950000Y-62400000D01*
X196950000Y-62400000D02*
X196950000Y-61600000D01*
X196950000Y-61600000D02*
X195350000Y-61600000D01*
X168700000Y-77550000D02*
X168700000Y-76950000D01*
X168400000Y-77550000D02*
X168700000Y-77550000D01*
X168400000Y-76950000D02*
X168400000Y-77550000D01*
X168700000Y-76950000D02*
X168400000Y-76950000D01*
X169160000Y-80480000D02*
X168560000Y-80480000D01*
X169160000Y-80780000D02*
X169160000Y-80480000D01*
X168560000Y-80780000D02*
X169160000Y-80780000D01*
X168560000Y-80480000D02*
X168560000Y-80780000D01*
X168750000Y-79500000D02*
X168750000Y-78900000D01*
X168750000Y-78900000D02*
X168450000Y-78900000D01*
X168450000Y-79500000D02*
X168750000Y-79500000D01*
X168450000Y-78900000D02*
X168450000Y-79500000D01*
X183230000Y-61210000D02*
X183230000Y-61510000D01*
X183830000Y-61210000D02*
X183230000Y-61210000D01*
X183830000Y-61510000D02*
X183830000Y-61210000D01*
X183230000Y-61510000D02*
X183830000Y-61510000D01*
X183820000Y-60910000D02*
X183820000Y-60610000D01*
X183220000Y-60610000D02*
X183220000Y-60910000D01*
X183220000Y-60910000D02*
X183820000Y-60910000D01*
X183820000Y-60610000D02*
X183220000Y-60610000D01*
X187220000Y-65310000D02*
X187820000Y-65310000D01*
X187820000Y-65010000D02*
X187220000Y-65010000D01*
X187220000Y-65010000D02*
X187220000Y-65310000D01*
X187820000Y-65310000D02*
X187820000Y-65010000D01*
X187820000Y-64710000D02*
X187820000Y-64410000D01*
X187820000Y-64410000D02*
X187220000Y-64410000D01*
X187220000Y-64710000D02*
X187820000Y-64710000D01*
X187220000Y-64410000D02*
X187220000Y-64710000D01*
X193060000Y-74590000D02*
X192760000Y-74590000D01*
X192760000Y-74590000D02*
X192760000Y-75190000D01*
X193060000Y-75190000D02*
X193060000Y-74590000D01*
X192760000Y-75190000D02*
X193060000Y-75190000D01*
X194800000Y-71650000D02*
X194800000Y-71050000D01*
X194800000Y-71050000D02*
X194500000Y-71050000D01*
X194500000Y-71050000D02*
X194500000Y-71650000D01*
X194500000Y-71650000D02*
X194800000Y-71650000D01*
X181170000Y-82490000D02*
X181170000Y-82790000D01*
X181770000Y-82790000D02*
X181770000Y-82490000D01*
X181770000Y-82490000D02*
X181170000Y-82490000D01*
X181170000Y-82790000D02*
X181770000Y-82790000D01*
X181170000Y-83390000D02*
X181770000Y-83390000D01*
X181170000Y-83090000D02*
X181170000Y-83390000D01*
X181770000Y-83390000D02*
X181770000Y-83090000D01*
X181770000Y-83090000D02*
X181170000Y-83090000D01*
X177140000Y-78690000D02*
X177140000Y-78990000D01*
X177740000Y-78690000D02*
X177140000Y-78690000D01*
X177140000Y-78990000D02*
X177740000Y-78990000D01*
X177740000Y-78990000D02*
X177740000Y-78690000D01*
X177750000Y-79290000D02*
X177150000Y-79290000D01*
X177150000Y-79290000D02*
X177150000Y-79590000D01*
X177750000Y-79590000D02*
X177750000Y-79290000D01*
X177150000Y-79590000D02*
X177750000Y-79590000D01*
X184200000Y-77105000D02*
X184200000Y-77705000D01*
X184500000Y-77705000D02*
X184500000Y-77105000D01*
X184200000Y-77705000D02*
X184500000Y-77705000D01*
X184500000Y-77105000D02*
X184200000Y-77105000D01*
X189800000Y-70390000D02*
X189800000Y-70990000D01*
X189800000Y-70990000D02*
X190100000Y-70990000D01*
X190100000Y-70990000D02*
X190100000Y-70390000D01*
X190100000Y-70390000D02*
X189800000Y-70390000D01*
X186230000Y-61130000D02*
X184230000Y-61130000D01*
X184230000Y-62130000D02*
X186230000Y-62130000D01*
X186230000Y-62130000D02*
X186230000Y-61130000D01*
X184230000Y-61130000D02*
X184230000Y-62130000D01*
X180770000Y-81870000D02*
X178770000Y-81870000D01*
X178770000Y-82870000D02*
X180770000Y-82870000D01*
X180770000Y-82870000D02*
X180770000Y-81870000D01*
X178770000Y-81870000D02*
X178770000Y-82870000D01*
X190900000Y-74360000D02*
X189700000Y-74360000D01*
X190500000Y-72760000D02*
X189700000Y-72760000D01*
X190500000Y-72760000D02*
X190900000Y-73160000D01*
X190900000Y-73160000D02*
X190900000Y-74360000D01*
X189700000Y-72760000D02*
X189700000Y-74360000D01*
X189180000Y-67740000D02*
X189180000Y-67140000D01*
X188880000Y-67140000D02*
X188880000Y-67740000D01*
X188880000Y-67740000D02*
X189180000Y-67740000D01*
X189180000Y-67140000D02*
X188880000Y-67140000D01*
X189080000Y-76410000D02*
X188780000Y-76410000D01*
X188780000Y-77010000D02*
X189080000Y-77010000D01*
X188780000Y-76410000D02*
X188780000Y-77010000D01*
X189080000Y-77010000D02*
X189080000Y-76410000D01*
X188560000Y-67140000D02*
X188260000Y-67140000D01*
X188260000Y-67140000D02*
X188260000Y-67740000D01*
X188560000Y-67740000D02*
X188560000Y-67140000D01*
X188260000Y-67740000D02*
X188560000Y-67740000D01*
X188180000Y-76410000D02*
X188180000Y-77010000D01*
X188180000Y-77010000D02*
X188480000Y-77010000D01*
X188480000Y-77010000D02*
X188480000Y-76410000D01*
X188480000Y-76410000D02*
X188180000Y-76410000D01*
X179990000Y-76280000D02*
X179990000Y-75680000D01*
X179690000Y-75680000D02*
X179690000Y-76280000D01*
X179690000Y-76280000D02*
X179990000Y-76280000D01*
X179990000Y-75680000D02*
X179690000Y-75680000D01*
X180300000Y-76430000D02*
X180600000Y-76430000D01*
X180600000Y-76430000D02*
X180600000Y-75830000D01*
X180300000Y-75830000D02*
X180300000Y-76430000D01*
X180600000Y-75830000D02*
X180300000Y-75830000D01*
X172700000Y-75800000D02*
X172400000Y-76000000D01*
X172700000Y-75800000D02*
X172850000Y-75800000D01*
X172400000Y-75600000D02*
X172700000Y-75800000D01*
X171850000Y-76250000D02*
X173150000Y-76250000D01*
X173150000Y-75350000D02*
X171850000Y-75350000D01*
X171850000Y-75350000D02*
X171850000Y-76250000D01*
X173150000Y-76250000D02*
X173150000Y-75350000D01*
X172400000Y-75800000D02*
X172250000Y-75800000D01*
X172400000Y-76000000D02*
X172400000Y-75600000D01*
X172700000Y-76000000D02*
X172700000Y-75600000D01*
X189250000Y-76100000D02*
X189250000Y-68100000D01*
X182250000Y-68100000D02*
X181250000Y-69100000D01*
X181250000Y-69100000D02*
X181250000Y-76100000D01*
X181250000Y-76100000D02*
X189250000Y-76100000D01*
X189250000Y-68100000D02*
X182250000Y-68100000D01*
X191750000Y-74510000D02*
X191750000Y-74810000D01*
X191750000Y-74810000D02*
X192350000Y-74810000D01*
X192350000Y-74510000D02*
X191750000Y-74510000D01*
X192350000Y-74810000D02*
X192350000Y-74510000D01*
D13*
X194050000Y-71975000D02*
X194050000Y-70475000D01*
X192550000Y-71975000D02*
X194050000Y-71975000D01*
X194050000Y-70775000D02*
X193750000Y-70475000D01*
X192550000Y-70475000D02*
X192550000Y-71975000D01*
X194050000Y-70475000D02*
X192550000Y-70475000D01*
D11*
X176902500Y-74850000D02*
X176902500Y-73650000D01*
X174902500Y-73650000D02*
X174902500Y-74850000D01*
X174902500Y-74850000D02*
X176902500Y-74850000D01*
X176902500Y-73650000D02*
X174902500Y-73650000D01*
X174872500Y-75250000D02*
X174872500Y-76450000D01*
X176872500Y-75250000D02*
X174872500Y-75250000D01*
X176872500Y-76450000D02*
X176872500Y-75250000D01*
X174872500Y-76450000D02*
X176872500Y-76450000D01*
X173450000Y-70730000D02*
X173450000Y-71330000D01*
X173750000Y-70730000D02*
X173450000Y-70730000D01*
X173750000Y-71330000D02*
X173750000Y-70730000D01*
X173450000Y-71330000D02*
X173750000Y-71330000D01*
X174152500Y-69590000D02*
X175752500Y-69590000D01*
X175752500Y-69590000D02*
X175752500Y-68790000D01*
X175752500Y-68790000D02*
X174152500Y-68790000D01*
X174152500Y-68790000D02*
X174152500Y-69590000D01*
X176770000Y-67040000D02*
X177170000Y-67440000D01*
X177170000Y-67440000D02*
X177170000Y-68640000D01*
X173970000Y-68640000D02*
X173970000Y-67040000D01*
X177170000Y-68640000D02*
X173970000Y-68640000D01*
X173970000Y-67040000D02*
X176770000Y-67040000D01*
X178440000Y-75490000D02*
X178440000Y-73890000D01*
X177640000Y-73890000D02*
X177640000Y-75490000D01*
X178440000Y-73890000D02*
X177640000Y-73890000D01*
X177640000Y-75490000D02*
X178440000Y-75490000D01*
X177120000Y-69620000D02*
X178720000Y-69620000D01*
X177120000Y-68820000D02*
X177120000Y-69620000D01*
X178720000Y-68820000D02*
X177120000Y-68820000D01*
X178720000Y-69620000D02*
X178720000Y-68820000D01*
X179320000Y-70565000D02*
X179320000Y-73065000D01*
X177320000Y-73065000D02*
X177320000Y-70565000D01*
X177320000Y-70565000D02*
X179320000Y-70565000D01*
X179320000Y-73065000D02*
X177320000Y-73065000D01*
D13*
X176705000Y-73120000D02*
X174205000Y-73120000D01*
X174205000Y-70120000D02*
X176705000Y-70120000D01*
X174205000Y-73120000D02*
X174205000Y-70120000D01*
X176705000Y-70120000D02*
X176705000Y-73120000D01*
D11*
X171100000Y-76700000D02*
X169100000Y-76700000D01*
X171100000Y-77700000D02*
X171100000Y-76700000D01*
X169100000Y-76700000D02*
X169100000Y-77700000D01*
X169100000Y-77700000D02*
X171100000Y-77700000D01*
X197650000Y-64175000D02*
G75*
G03*
X197650000Y-64175000I-500000J0D01*
G01*
X170375000Y-81200000D02*
G75*
G03*
X170375000Y-81200000I-500000J0D01*
G01*
M02*
