G04 #@! TF.GenerationSoftware,KiCad,Pcbnew,6.0.4-6f826c9f35~116~ubuntu18.04.1*
G04 #@! TF.CreationDate,2022-03-27T23:11:54+02:00*
G04 #@! TF.ProjectId,ultimateFC,756c7469-6d61-4746-9546-432e6b696361,rev?*
G04 #@! TF.SameCoordinates,Original*
G04 #@! TF.FileFunction,AssemblyDrawing,Top*
%FSLAX46Y46*%
G04 Gerber Fmt 4.6, Leading zero omitted, Abs format (unit mm)*
G04 Created by KiCad (PCBNEW 6.0.4-6f826c9f35~116~ubuntu18.04.1) date 2022-03-27 23:11:54*
%MOMM*%
%LPD*%
G01*
G04 APERTURE LIST*
G04 #@! TA.AperFunction,Profile*
%ADD10C,0.200000*%
G04 #@! TD*
%ADD11C,0.100000*%
%ADD12C,0.040000*%
%ADD13C,0.080000*%
%ADD14C,0.120000*%
%ADD15C,0.203200*%
%ADD16C,0.101600*%
%ADD17C,0.150000*%
G04 APERTURE END LIST*
D10*
X198000000Y-73000000D02*
X196820000Y-73000000D01*
X196820000Y-74600000D02*
X197020000Y-74600000D01*
X197020000Y-74600000D02*
X197600000Y-74600000D01*
X196020000Y-73800000D02*
G75*
G03*
X196820000Y-74600000I800000J0D01*
G01*
X196820000Y-73000000D02*
G75*
G03*
X196020000Y-73800000I0J-800000D01*
G01*
X180080000Y-59950000D02*
X180570000Y-59949602D01*
X180570000Y-59949600D02*
G75*
G03*
X180820000Y-59699602I0J250000D01*
G01*
X180820000Y-59400000D02*
X181340000Y-59400000D01*
X180820000Y-59400000D02*
X180820000Y-59699602D01*
X179819800Y-59700000D02*
G75*
G03*
X180080000Y-59950000I250200J0D01*
G01*
X196820000Y-69400000D02*
G75*
G03*
X196020000Y-70200000I0J-800000D01*
G01*
X197020000Y-69400000D02*
X197600000Y-69400000D01*
X196820000Y-69400000D02*
X197020000Y-69400000D01*
X182700000Y-60100000D02*
X182300000Y-60100000D01*
X181367432Y-59460994D02*
X181340000Y-59400000D01*
X181367432Y-59460994D02*
G75*
G03*
X182300000Y-60100000I932568J360994D01*
G01*
X179820000Y-59400000D02*
X179470000Y-59400000D01*
X179820000Y-59400000D02*
X179820000Y-59699602D01*
X179170000Y-59560555D02*
G75*
G03*
X179470000Y-59400000I0J360555D01*
G01*
X178260000Y-59949999D02*
G75*
G03*
X178520199Y-59700000I10000J249999D01*
G01*
X178260000Y-59950000D02*
X177780000Y-59950000D01*
X178520001Y-59400000D02*
X178520000Y-59699602D01*
X175960000Y-59949999D02*
G75*
G03*
X176220199Y-59700000I10000J249999D01*
G01*
X176220001Y-59400000D02*
X176220000Y-59699601D01*
X177519800Y-59700000D02*
G75*
G03*
X177780000Y-59950000I250200J0D01*
G01*
X177520000Y-59400000D02*
X177520000Y-59699602D01*
X175220000Y-59400000D02*
X175220000Y-59699602D01*
X175960000Y-59950000D02*
X175480000Y-59950000D01*
X175219800Y-59700000D02*
G75*
G03*
X175480000Y-59950000I250200J0D01*
G01*
X174698768Y-59536778D02*
X174675268Y-59549435D01*
X178520001Y-59400000D02*
X178870000Y-59400000D01*
X178869999Y-59400000D02*
G75*
G03*
X179169999Y-59560556I300001J200000D01*
G01*
X177520000Y-59400000D02*
X177170000Y-59400000D01*
X176870000Y-59560555D02*
G75*
G03*
X177170000Y-59400000I0J360555D01*
G01*
X176220001Y-59400000D02*
X176570000Y-59400000D01*
X176569999Y-59400000D02*
G75*
G03*
X176869999Y-59560556I300001J200000D01*
G01*
X174698768Y-59536778D02*
G75*
G03*
X174870001Y-59400000I-128768J336778D01*
G01*
X175220000Y-59400000D02*
X174870001Y-59400000D01*
X184180000Y-59400000D02*
X183660000Y-59400000D01*
X184920000Y-59949999D02*
G75*
G03*
X185180199Y-59700000I10000J249999D01*
G01*
X184180000Y-59400000D02*
X184180000Y-59699602D01*
X184179999Y-59699602D02*
G75*
G03*
X184430001Y-59949601I250001J2D01*
G01*
X184920000Y-59950000D02*
X184430000Y-59949602D01*
X185180000Y-59400000D02*
X185530000Y-59400000D01*
X185530000Y-59400000D02*
G75*
G03*
X185830000Y-59560555I300000J200000D01*
G01*
X185180000Y-59400000D02*
X185180000Y-59699601D01*
X188779999Y-59400000D02*
X188780000Y-59699601D01*
X186479800Y-59700000D02*
G75*
G03*
X186740000Y-59950000I250200J0D01*
G01*
X187480000Y-59400000D02*
X187480000Y-59699602D01*
X186740000Y-59950000D02*
X187219999Y-59950000D01*
X187219999Y-59949998D02*
G75*
G03*
X187480198Y-59700000I10001J249998D01*
G01*
X186479999Y-59400000D02*
X186480000Y-59699601D01*
X188779800Y-59700000D02*
G75*
G03*
X189040000Y-59950000I250200J0D01*
G01*
X189780000Y-59400000D02*
X189780000Y-59699602D01*
X189040000Y-59950000D02*
X189520000Y-59950000D01*
X186479999Y-59400000D02*
X186130000Y-59400000D01*
X189780000Y-59400000D02*
X190129999Y-59400000D01*
X188130001Y-59560555D02*
G75*
G03*
X188430000Y-59400000I-1J360555D01*
G01*
X189520000Y-59949999D02*
G75*
G03*
X189780199Y-59700000I10000J249999D01*
G01*
X187830000Y-59400000D02*
G75*
G03*
X188130001Y-59560555I300000J200000D01*
G01*
X187480000Y-59400000D02*
X187830000Y-59400000D01*
X190301232Y-59536777D02*
X190324732Y-59549435D01*
X185830002Y-59560555D02*
G75*
G03*
X186130000Y-59400000I-2J360555D01*
G01*
X190129999Y-59400000D02*
G75*
G03*
X190301232Y-59536778I300001J200000D01*
G01*
X188779999Y-59400000D02*
X188430000Y-59400000D01*
X183632567Y-59460994D02*
X183660000Y-59400000D01*
X182700000Y-60100000D02*
G75*
G03*
X183632568Y-59460994I0J1000000D01*
G01*
X180820000Y-84600000D02*
X181340000Y-84600000D01*
X180080000Y-84050001D02*
G75*
G03*
X179819801Y-84300000I-10000J-249999D01*
G01*
X180820000Y-84600000D02*
X180820000Y-84300398D01*
X180820002Y-84300398D02*
G75*
G03*
X180570000Y-84050398I-250002J-2D01*
G01*
X180080000Y-84050000D02*
X180570000Y-84050398D01*
X179820000Y-84600000D02*
X179470000Y-84600000D01*
X179470000Y-84600000D02*
G75*
G03*
X179170000Y-84439445I-300000J-200000D01*
G01*
X179820000Y-84600000D02*
X179820000Y-84300398D01*
X176220001Y-84600000D02*
X176220000Y-84300399D01*
X178520200Y-84300000D02*
G75*
G03*
X178260000Y-84050000I-250200J0D01*
G01*
X177520000Y-84600000D02*
X177520000Y-84300398D01*
X178260000Y-84050000D02*
X177780000Y-84050000D01*
X177780000Y-84050001D02*
G75*
G03*
X177519801Y-84300000I-10000J-249999D01*
G01*
X178520001Y-84600000D02*
X178520000Y-84300398D01*
X176220200Y-84300000D02*
G75*
G03*
X175960000Y-84050000I-250200J0D01*
G01*
X175220000Y-84600000D02*
X175220000Y-84300398D01*
X175960000Y-84050000D02*
X175480000Y-84050000D01*
X178520001Y-84600000D02*
X178870000Y-84600000D01*
X175220000Y-84600000D02*
X174870001Y-84600000D01*
X176869999Y-84439445D02*
G75*
G03*
X176570000Y-84600000I1J-360555D01*
G01*
X175480000Y-84050001D02*
G75*
G03*
X175219801Y-84300000I-10000J-249999D01*
G01*
X177170000Y-84600000D02*
G75*
G03*
X176870000Y-84439445I-300000J-200000D01*
G01*
X177520000Y-84600000D02*
X177170000Y-84600000D01*
X174698768Y-84463222D02*
X174675268Y-84450565D01*
X179169999Y-84439445D02*
G75*
G03*
X178870000Y-84600000I1J-360555D01*
G01*
X174870001Y-84600000D02*
G75*
G03*
X174698768Y-84463222I-300001J-200000D01*
G01*
X176220001Y-84600000D02*
X176570000Y-84600000D01*
X184180000Y-84600000D02*
X184180000Y-84300398D01*
X188779999Y-84600000D02*
X188780000Y-84300399D01*
X187480200Y-84300000D02*
G75*
G03*
X187219999Y-84050000I-250200J0D01*
G01*
X185180000Y-84600000D02*
X185180000Y-84300399D01*
X186740000Y-84050000D02*
X187219999Y-84050000D01*
X186479999Y-84600000D02*
X186480000Y-84300399D01*
X189040000Y-84050001D02*
G75*
G03*
X188779801Y-84300000I-10000J-249999D01*
G01*
X190301232Y-84463222D02*
G75*
G03*
X190129999Y-84600000I128768J-336778D01*
G01*
X186740000Y-84050001D02*
G75*
G03*
X186479801Y-84300000I-10000J-249999D01*
G01*
X189780000Y-84600000D02*
X190129999Y-84600000D01*
X188130001Y-84439445D02*
G75*
G03*
X187830000Y-84600000I-1J-360555D01*
G01*
X185830000Y-84439445D02*
G75*
G03*
X185530000Y-84600000I0J-360555D01*
G01*
X187480000Y-84600000D02*
X187480000Y-84300398D01*
X184430001Y-84050400D02*
G75*
G03*
X184180000Y-84300398I-1J-250000D01*
G01*
X188779999Y-84600000D02*
X188430000Y-84600000D01*
X188430001Y-84600000D02*
G75*
G03*
X188130001Y-84439444I-300001J-200000D01*
G01*
X189780200Y-84300000D02*
G75*
G03*
X189520000Y-84050000I-250200J0D01*
G01*
X184920000Y-84050000D02*
X184430000Y-84050398D01*
X184180000Y-84600000D02*
X183660000Y-84600000D01*
X187480000Y-84600000D02*
X187830000Y-84600000D01*
X186130001Y-84600000D02*
G75*
G03*
X185830002Y-84439444I-300001J-200000D01*
G01*
X183632568Y-84539006D02*
G75*
G03*
X182700000Y-83900000I-932568J-360994D01*
G01*
X185180200Y-84300000D02*
G75*
G03*
X184920000Y-84050000I-250200J0D01*
G01*
X189780000Y-84600000D02*
X189780000Y-84300398D01*
X189040000Y-84050000D02*
X189520000Y-84050000D01*
X186479999Y-84600000D02*
X186130000Y-84600000D01*
X190301232Y-84463223D02*
X190324732Y-84450565D01*
X185180000Y-84600000D02*
X185530000Y-84600000D01*
X183632567Y-84539006D02*
X183660000Y-84600000D01*
X181367432Y-84539006D02*
X181340000Y-84600000D01*
X182300000Y-83900000D02*
G75*
G03*
X181367432Y-84539006I0J-1000000D01*
G01*
X182700000Y-83900000D02*
X182300000Y-83900000D01*
X191250326Y-83968348D02*
G75*
G03*
X190324732Y-84450565I-50626J-1032252D01*
G01*
X195072693Y-82785418D02*
G75*
G03*
X194750000Y-82750000I-323893J-1463282D01*
G01*
X192624881Y-83994654D02*
X191250328Y-83968303D01*
X197600000Y-82500000D02*
X197300000Y-82800000D01*
X193403000Y-83584694D02*
X193469647Y-83471754D01*
X197600000Y-74600000D02*
X197600000Y-82500000D01*
X195150000Y-82800000D02*
X197300000Y-82800000D01*
X195072691Y-82785428D02*
X195150000Y-82800000D01*
X194750000Y-82749942D02*
G75*
G03*
X193469647Y-83471754I1300J-1498758D01*
G01*
X192624881Y-83994657D02*
G75*
G03*
X193403000Y-83584694I-21881J984957D01*
G01*
X171600020Y-83574985D02*
G75*
G03*
X172300790Y-83956406I771280J582585D01*
G01*
X172300002Y-60043627D02*
G75*
G03*
X171600000Y-60425000I71298J-963973D01*
G01*
X168000000Y-63000000D02*
X170250000Y-61250000D01*
X171531783Y-60529123D02*
X171600000Y-60425000D01*
X168000000Y-63000000D02*
X168000000Y-66750000D01*
X167600000Y-67700000D02*
X167600000Y-72150000D01*
X172300790Y-83956406D02*
X173799998Y-83967062D01*
X167706139Y-67555170D02*
G75*
G03*
X168000000Y-66750000I-956139J805170D01*
G01*
X171531783Y-83470877D02*
X171600000Y-83575000D01*
X168000000Y-81000000D02*
X170250000Y-82750000D01*
X174675305Y-84450540D02*
G75*
G03*
X173799998Y-83967062I-875005J-550060D01*
G01*
X172300790Y-60043594D02*
X173799998Y-60032938D01*
X171531783Y-83470877D02*
G75*
G03*
X170250000Y-82750000I-1281783J-779123D01*
G01*
X167600000Y-67700000D02*
X167706139Y-67555170D01*
X170250000Y-61250000D02*
G75*
G03*
X171531783Y-60529123I0J1500000D01*
G01*
X167600000Y-76300001D02*
X167600000Y-72150000D01*
X168000000Y-77250001D02*
G75*
G03*
X167706139Y-76444831I-1250000J1D01*
G01*
X168000000Y-81000000D02*
X168000000Y-77250001D01*
X167600000Y-76300001D02*
X167706139Y-76444831D01*
X173800000Y-60032894D02*
G75*
G03*
X174675268Y-59549437I300J1033494D01*
G01*
X193469697Y-60528216D02*
G75*
G03*
X194750000Y-61250000I1281603J776916D01*
G01*
X193402998Y-60415307D02*
G75*
G03*
X192624881Y-60005346I-799998J-574993D01*
G01*
X192624881Y-60005346D02*
X191250328Y-60031697D01*
X197600000Y-69400000D02*
X197600000Y-61500000D01*
X195150000Y-61200000D02*
X197300000Y-61200000D01*
X195072691Y-61214572D02*
X195150000Y-61200000D01*
X194750000Y-61249990D02*
G75*
G03*
X195072691Y-61214572I-1200J1498690D01*
G01*
X193403000Y-60415306D02*
X193469647Y-60528246D01*
X198000000Y-71000000D02*
X198000000Y-73000000D01*
X190324694Y-59549459D02*
G75*
G03*
X191250328Y-60031697I875006J550059D01*
G01*
X198000000Y-71000000D02*
X196820000Y-71000000D01*
X196020000Y-70200000D02*
G75*
G03*
X196820000Y-71000000I800000J0D01*
G01*
X197600000Y-61500000D02*
X197300000Y-61200000D01*
D11*
X192150000Y-78250000D02*
X192750000Y-78850000D01*
X183850000Y-74600000D02*
X184200000Y-74950000D01*
X189600000Y-83550000D02*
X190200000Y-82950000D01*
X196300000Y-65150000D02*
X196900000Y-65750000D01*
X184000000Y-75750000D02*
X184350000Y-76100000D01*
X174800000Y-61050000D02*
X175400000Y-60450000D01*
X183000000Y-61050000D02*
X183600000Y-60450000D01*
X174800000Y-80900000D02*
X175400000Y-80300000D01*
X172350000Y-75500000D02*
X172950000Y-76100000D01*
X189600000Y-63700000D02*
X190200000Y-63100000D01*
X181400000Y-83550000D02*
X182000000Y-82950000D01*
X172400000Y-68100000D02*
X173000000Y-68700000D01*
D12*
X181885714Y-62707142D02*
X181742857Y-62807142D01*
X181885714Y-62878571D02*
X181585714Y-62878571D01*
X181585714Y-62764285D01*
X181600000Y-62735714D01*
X181614285Y-62721428D01*
X181642857Y-62707142D01*
X181685714Y-62707142D01*
X181714285Y-62721428D01*
X181728571Y-62735714D01*
X181742857Y-62764285D01*
X181742857Y-62878571D01*
X181885714Y-62578571D02*
X181585714Y-62578571D01*
X181885714Y-62407142D01*
X181585714Y-62407142D01*
X181885714Y-62250000D02*
X181885714Y-62192857D01*
X181871428Y-62164285D01*
X181857142Y-62150000D01*
X181814285Y-62121428D01*
X181757142Y-62107142D01*
X181642857Y-62107142D01*
X181614285Y-62121428D01*
X181600000Y-62135714D01*
X181585714Y-62164285D01*
X181585714Y-62221428D01*
X181600000Y-62250000D01*
X181614285Y-62264285D01*
X181642857Y-62278571D01*
X181714285Y-62278571D01*
X181742857Y-62264285D01*
X181757142Y-62250000D01*
X181771428Y-62221428D01*
X181771428Y-62164285D01*
X181757142Y-62135714D01*
X181742857Y-62121428D01*
X181714285Y-62107142D01*
X175465714Y-65508571D02*
X175708571Y-65508571D01*
X175737142Y-65494285D01*
X175751428Y-65480000D01*
X175765714Y-65451428D01*
X175765714Y-65394285D01*
X175751428Y-65365714D01*
X175737142Y-65351428D01*
X175708571Y-65337142D01*
X175465714Y-65337142D01*
X175465714Y-65222857D02*
X175465714Y-65037142D01*
X175580000Y-65137142D01*
X175580000Y-65094285D01*
X175594285Y-65065714D01*
X175608571Y-65051428D01*
X175637142Y-65037142D01*
X175708571Y-65037142D01*
X175737142Y-65051428D01*
X175751428Y-65065714D01*
X175765714Y-65094285D01*
X175765714Y-65180000D01*
X175751428Y-65208571D01*
X175737142Y-65222857D01*
X176285714Y-62278571D02*
X176528571Y-62278571D01*
X176557142Y-62264285D01*
X176571428Y-62250000D01*
X176585714Y-62221428D01*
X176585714Y-62164285D01*
X176571428Y-62135714D01*
X176557142Y-62121428D01*
X176528571Y-62107142D01*
X176285714Y-62107142D01*
X176385714Y-61835714D02*
X176585714Y-61835714D01*
X176271428Y-61907142D02*
X176485714Y-61978571D01*
X176485714Y-61792857D01*
X177585714Y-66600000D02*
X177442857Y-66700000D01*
X177585714Y-66771428D02*
X177285714Y-66771428D01*
X177285714Y-66657142D01*
X177300000Y-66628571D01*
X177314285Y-66614285D01*
X177342857Y-66600000D01*
X177385714Y-66600000D01*
X177414285Y-66614285D01*
X177428571Y-66628571D01*
X177442857Y-66657142D01*
X177442857Y-66771428D01*
X177585714Y-66471428D02*
X177285714Y-66471428D01*
X177585714Y-66300000D01*
X177285714Y-66300000D01*
X177585714Y-66000000D02*
X177585714Y-66171428D01*
X177585714Y-66085714D02*
X177285714Y-66085714D01*
X177328571Y-66114285D01*
X177357142Y-66142857D01*
X177371428Y-66171428D01*
X177285714Y-65900000D02*
X177285714Y-65714285D01*
X177400000Y-65814285D01*
X177400000Y-65771428D01*
X177414285Y-65742857D01*
X177428571Y-65728571D01*
X177457142Y-65714285D01*
X177528571Y-65714285D01*
X177557142Y-65728571D01*
X177571428Y-65742857D01*
X177585714Y-65771428D01*
X177585714Y-65857142D01*
X177571428Y-65885714D01*
X177557142Y-65900000D01*
X174197142Y-66015000D02*
X174211428Y-66029285D01*
X174225714Y-66072142D01*
X174225714Y-66100714D01*
X174211428Y-66143571D01*
X174182857Y-66172142D01*
X174154285Y-66186428D01*
X174097142Y-66200714D01*
X174054285Y-66200714D01*
X173997142Y-66186428D01*
X173968571Y-66172142D01*
X173940000Y-66143571D01*
X173925714Y-66100714D01*
X173925714Y-66072142D01*
X173940000Y-66029285D01*
X173954285Y-66015000D01*
X174225714Y-65872142D02*
X174225714Y-65815000D01*
X174211428Y-65786428D01*
X174197142Y-65772142D01*
X174154285Y-65743571D01*
X174097142Y-65729285D01*
X173982857Y-65729285D01*
X173954285Y-65743571D01*
X173940000Y-65757857D01*
X173925714Y-65786428D01*
X173925714Y-65843571D01*
X173940000Y-65872142D01*
X173954285Y-65886428D01*
X173982857Y-65900714D01*
X174054285Y-65900714D01*
X174082857Y-65886428D01*
X174097142Y-65872142D01*
X174111428Y-65843571D01*
X174111428Y-65786428D01*
X174097142Y-65757857D01*
X174082857Y-65743571D01*
X174054285Y-65729285D01*
X184967142Y-65055000D02*
X184981428Y-65069285D01*
X184995714Y-65112142D01*
X184995714Y-65140714D01*
X184981428Y-65183571D01*
X184952857Y-65212142D01*
X184924285Y-65226428D01*
X184867142Y-65240714D01*
X184824285Y-65240714D01*
X184767142Y-65226428D01*
X184738571Y-65212142D01*
X184710000Y-65183571D01*
X184695714Y-65140714D01*
X184695714Y-65112142D01*
X184710000Y-65069285D01*
X184724285Y-65055000D01*
X184695714Y-64955000D02*
X184695714Y-64755000D01*
X184995714Y-64883571D01*
X170444642Y-65507142D02*
X170430357Y-65521428D01*
X170387500Y-65535714D01*
X170358928Y-65535714D01*
X170316071Y-65521428D01*
X170287500Y-65492857D01*
X170273214Y-65464285D01*
X170258928Y-65407142D01*
X170258928Y-65364285D01*
X170273214Y-65307142D01*
X170287500Y-65278571D01*
X170316071Y-65250000D01*
X170358928Y-65235714D01*
X170387500Y-65235714D01*
X170430357Y-65250000D01*
X170444642Y-65264285D01*
X170730357Y-65535714D02*
X170558928Y-65535714D01*
X170644642Y-65535714D02*
X170644642Y-65235714D01*
X170616071Y-65278571D01*
X170587500Y-65307142D01*
X170558928Y-65321428D01*
X170830357Y-65235714D02*
X171016071Y-65235714D01*
X170916071Y-65350000D01*
X170958928Y-65350000D01*
X170987500Y-65364285D01*
X171001785Y-65378571D01*
X171016071Y-65407142D01*
X171016071Y-65478571D01*
X171001785Y-65507142D01*
X170987500Y-65521428D01*
X170958928Y-65535714D01*
X170873214Y-65535714D01*
X170844642Y-65521428D01*
X170830357Y-65507142D01*
X188397142Y-64217142D02*
X188382857Y-64231428D01*
X188340000Y-64245714D01*
X188311428Y-64245714D01*
X188268571Y-64231428D01*
X188240000Y-64202857D01*
X188225714Y-64174285D01*
X188211428Y-64117142D01*
X188211428Y-64074285D01*
X188225714Y-64017142D01*
X188240000Y-63988571D01*
X188268571Y-63960000D01*
X188311428Y-63945714D01*
X188340000Y-63945714D01*
X188382857Y-63960000D01*
X188397142Y-63974285D01*
X188682857Y-64245714D02*
X188511428Y-64245714D01*
X188597142Y-64245714D02*
X188597142Y-63945714D01*
X188568571Y-63988571D01*
X188540000Y-64017142D01*
X188511428Y-64031428D01*
X188854285Y-64074285D02*
X188825714Y-64060000D01*
X188811428Y-64045714D01*
X188797142Y-64017142D01*
X188797142Y-64002857D01*
X188811428Y-63974285D01*
X188825714Y-63960000D01*
X188854285Y-63945714D01*
X188911428Y-63945714D01*
X188940000Y-63960000D01*
X188954285Y-63974285D01*
X188968571Y-64002857D01*
X188968571Y-64017142D01*
X188954285Y-64045714D01*
X188940000Y-64060000D01*
X188911428Y-64074285D01*
X188854285Y-64074285D01*
X188825714Y-64088571D01*
X188811428Y-64102857D01*
X188797142Y-64131428D01*
X188797142Y-64188571D01*
X188811428Y-64217142D01*
X188825714Y-64231428D01*
X188854285Y-64245714D01*
X188911428Y-64245714D01*
X188940000Y-64231428D01*
X188954285Y-64217142D01*
X188968571Y-64188571D01*
X188968571Y-64131428D01*
X188954285Y-64102857D01*
X188940000Y-64088571D01*
X188911428Y-64074285D01*
X172107142Y-78907142D02*
X172092857Y-78921428D01*
X172050000Y-78935714D01*
X172021428Y-78935714D01*
X171978571Y-78921428D01*
X171950000Y-78892857D01*
X171935714Y-78864285D01*
X171921428Y-78807142D01*
X171921428Y-78764285D01*
X171935714Y-78707142D01*
X171950000Y-78678571D01*
X171978571Y-78650000D01*
X172021428Y-78635714D01*
X172050000Y-78635714D01*
X172092857Y-78650000D01*
X172107142Y-78664285D01*
X172221428Y-78664285D02*
X172235714Y-78650000D01*
X172264285Y-78635714D01*
X172335714Y-78635714D01*
X172364285Y-78650000D01*
X172378571Y-78664285D01*
X172392857Y-78692857D01*
X172392857Y-78721428D01*
X172378571Y-78764285D01*
X172207142Y-78935714D01*
X172392857Y-78935714D01*
X172578571Y-78635714D02*
X172607142Y-78635714D01*
X172635714Y-78650000D01*
X172650000Y-78664285D01*
X172664285Y-78692857D01*
X172678571Y-78750000D01*
X172678571Y-78821428D01*
X172664285Y-78878571D01*
X172650000Y-78907142D01*
X172635714Y-78921428D01*
X172607142Y-78935714D01*
X172578571Y-78935714D01*
X172550000Y-78921428D01*
X172535714Y-78907142D01*
X172521428Y-78878571D01*
X172507142Y-78821428D01*
X172507142Y-78750000D01*
X172521428Y-78692857D01*
X172535714Y-78664285D01*
X172550000Y-78650000D01*
X172578571Y-78635714D01*
X181567142Y-78052857D02*
X181581428Y-78067142D01*
X181595714Y-78110000D01*
X181595714Y-78138571D01*
X181581428Y-78181428D01*
X181552857Y-78210000D01*
X181524285Y-78224285D01*
X181467142Y-78238571D01*
X181424285Y-78238571D01*
X181367142Y-78224285D01*
X181338571Y-78210000D01*
X181310000Y-78181428D01*
X181295714Y-78138571D01*
X181295714Y-78110000D01*
X181310000Y-78067142D01*
X181324285Y-78052857D01*
X181324285Y-77938571D02*
X181310000Y-77924285D01*
X181295714Y-77895714D01*
X181295714Y-77824285D01*
X181310000Y-77795714D01*
X181324285Y-77781428D01*
X181352857Y-77767142D01*
X181381428Y-77767142D01*
X181424285Y-77781428D01*
X181595714Y-77952857D01*
X181595714Y-77767142D01*
X181295714Y-77510000D02*
X181295714Y-77567142D01*
X181310000Y-77595714D01*
X181324285Y-77610000D01*
X181367142Y-77638571D01*
X181424285Y-77652857D01*
X181538571Y-77652857D01*
X181567142Y-77638571D01*
X181581428Y-77624285D01*
X181595714Y-77595714D01*
X181595714Y-77538571D01*
X181581428Y-77510000D01*
X181567142Y-77495714D01*
X181538571Y-77481428D01*
X181467142Y-77481428D01*
X181438571Y-77495714D01*
X181424285Y-77510000D01*
X181410000Y-77538571D01*
X181410000Y-77595714D01*
X181424285Y-77624285D01*
X181438571Y-77638571D01*
X181467142Y-77652857D01*
X183557142Y-66142857D02*
X183571428Y-66157142D01*
X183585714Y-66200000D01*
X183585714Y-66228571D01*
X183571428Y-66271428D01*
X183542857Y-66300000D01*
X183514285Y-66314285D01*
X183457142Y-66328571D01*
X183414285Y-66328571D01*
X183357142Y-66314285D01*
X183328571Y-66300000D01*
X183300000Y-66271428D01*
X183285714Y-66228571D01*
X183285714Y-66200000D01*
X183300000Y-66157142D01*
X183314285Y-66142857D01*
X183314285Y-66028571D02*
X183300000Y-66014285D01*
X183285714Y-65985714D01*
X183285714Y-65914285D01*
X183300000Y-65885714D01*
X183314285Y-65871428D01*
X183342857Y-65857142D01*
X183371428Y-65857142D01*
X183414285Y-65871428D01*
X183585714Y-66042857D01*
X183585714Y-65857142D01*
X183285714Y-65757142D02*
X183285714Y-65557142D01*
X183585714Y-65685714D01*
X190947142Y-78202857D02*
X190961428Y-78217142D01*
X190975714Y-78260000D01*
X190975714Y-78288571D01*
X190961428Y-78331428D01*
X190932857Y-78360000D01*
X190904285Y-78374285D01*
X190847142Y-78388571D01*
X190804285Y-78388571D01*
X190747142Y-78374285D01*
X190718571Y-78360000D01*
X190690000Y-78331428D01*
X190675714Y-78288571D01*
X190675714Y-78260000D01*
X190690000Y-78217142D01*
X190704285Y-78202857D01*
X190675714Y-78102857D02*
X190675714Y-77917142D01*
X190790000Y-78017142D01*
X190790000Y-77974285D01*
X190804285Y-77945714D01*
X190818571Y-77931428D01*
X190847142Y-77917142D01*
X190918571Y-77917142D01*
X190947142Y-77931428D01*
X190961428Y-77945714D01*
X190975714Y-77974285D01*
X190975714Y-78060000D01*
X190961428Y-78088571D01*
X190947142Y-78102857D01*
X190675714Y-77731428D02*
X190675714Y-77702857D01*
X190690000Y-77674285D01*
X190704285Y-77660000D01*
X190732857Y-77645714D01*
X190790000Y-77631428D01*
X190861428Y-77631428D01*
X190918571Y-77645714D01*
X190947142Y-77660000D01*
X190961428Y-77674285D01*
X190975714Y-77702857D01*
X190975714Y-77731428D01*
X190961428Y-77760000D01*
X190947142Y-77774285D01*
X190918571Y-77788571D01*
X190861428Y-77802857D01*
X190790000Y-77802857D01*
X190732857Y-77788571D01*
X190704285Y-77774285D01*
X190690000Y-77760000D01*
X190675714Y-77731428D01*
X180257142Y-79167857D02*
X180271428Y-79182142D01*
X180285714Y-79225000D01*
X180285714Y-79253571D01*
X180271428Y-79296428D01*
X180242857Y-79325000D01*
X180214285Y-79339285D01*
X180157142Y-79353571D01*
X180114285Y-79353571D01*
X180057142Y-79339285D01*
X180028571Y-79325000D01*
X180000000Y-79296428D01*
X179985714Y-79253571D01*
X179985714Y-79225000D01*
X180000000Y-79182142D01*
X180014285Y-79167857D01*
X179985714Y-79067857D02*
X179985714Y-78882142D01*
X180100000Y-78982142D01*
X180100000Y-78939285D01*
X180114285Y-78910714D01*
X180128571Y-78896428D01*
X180157142Y-78882142D01*
X180228571Y-78882142D01*
X180257142Y-78896428D01*
X180271428Y-78910714D01*
X180285714Y-78939285D01*
X180285714Y-79025000D01*
X180271428Y-79053571D01*
X180257142Y-79067857D01*
X180285714Y-78596428D02*
X180285714Y-78767857D01*
X180285714Y-78682142D02*
X179985714Y-78682142D01*
X180028571Y-78710714D01*
X180057142Y-78739285D01*
X180071428Y-78767857D01*
X176217142Y-79977142D02*
X176202857Y-79991428D01*
X176160000Y-80005714D01*
X176131428Y-80005714D01*
X176088571Y-79991428D01*
X176060000Y-79962857D01*
X176045714Y-79934285D01*
X176031428Y-79877142D01*
X176031428Y-79834285D01*
X176045714Y-79777142D01*
X176060000Y-79748571D01*
X176088571Y-79720000D01*
X176131428Y-79705714D01*
X176160000Y-79705714D01*
X176202857Y-79720000D01*
X176217142Y-79734285D01*
X176317142Y-79705714D02*
X176502857Y-79705714D01*
X176402857Y-79820000D01*
X176445714Y-79820000D01*
X176474285Y-79834285D01*
X176488571Y-79848571D01*
X176502857Y-79877142D01*
X176502857Y-79948571D01*
X176488571Y-79977142D01*
X176474285Y-79991428D01*
X176445714Y-80005714D01*
X176360000Y-80005714D01*
X176331428Y-79991428D01*
X176317142Y-79977142D01*
X176617142Y-79734285D02*
X176631428Y-79720000D01*
X176660000Y-79705714D01*
X176731428Y-79705714D01*
X176760000Y-79720000D01*
X176774285Y-79734285D01*
X176788571Y-79762857D01*
X176788571Y-79791428D01*
X176774285Y-79834285D01*
X176602857Y-80005714D01*
X176788571Y-80005714D01*
X194410000Y-77005714D02*
X194410000Y-77220000D01*
X194395714Y-77262857D01*
X194367142Y-77291428D01*
X194324285Y-77305714D01*
X194295714Y-77305714D01*
X194538571Y-77034285D02*
X194552857Y-77020000D01*
X194581428Y-77005714D01*
X194652857Y-77005714D01*
X194681428Y-77020000D01*
X194695714Y-77034285D01*
X194710000Y-77062857D01*
X194710000Y-77091428D01*
X194695714Y-77134285D01*
X194524285Y-77305714D01*
X194710000Y-77305714D01*
X194450000Y-66285714D02*
X194450000Y-66500000D01*
X194435714Y-66542857D01*
X194407142Y-66571428D01*
X194364285Y-66585714D01*
X194335714Y-66585714D01*
X194564285Y-66285714D02*
X194750000Y-66285714D01*
X194650000Y-66400000D01*
X194692857Y-66400000D01*
X194721428Y-66414285D01*
X194735714Y-66428571D01*
X194750000Y-66457142D01*
X194750000Y-66528571D01*
X194735714Y-66557142D01*
X194721428Y-66571428D01*
X194692857Y-66585714D01*
X194607142Y-66585714D01*
X194578571Y-66571428D01*
X194564285Y-66557142D01*
X193885714Y-73217857D02*
X193742857Y-73317857D01*
X193885714Y-73389285D02*
X193585714Y-73389285D01*
X193585714Y-73275000D01*
X193600000Y-73246428D01*
X193614285Y-73232142D01*
X193642857Y-73217857D01*
X193685714Y-73217857D01*
X193714285Y-73232142D01*
X193728571Y-73246428D01*
X193742857Y-73275000D01*
X193742857Y-73389285D01*
X193685714Y-72960714D02*
X193885714Y-72960714D01*
X193571428Y-73032142D02*
X193785714Y-73103571D01*
X193785714Y-72917857D01*
X193885714Y-72789285D02*
X193885714Y-72732142D01*
X193871428Y-72703571D01*
X193857142Y-72689285D01*
X193814285Y-72660714D01*
X193757142Y-72646428D01*
X193642857Y-72646428D01*
X193614285Y-72660714D01*
X193600000Y-72675000D01*
X193585714Y-72703571D01*
X193585714Y-72760714D01*
X193600000Y-72789285D01*
X193614285Y-72803571D01*
X193642857Y-72817857D01*
X193714285Y-72817857D01*
X193742857Y-72803571D01*
X193757142Y-72789285D01*
X193771428Y-72760714D01*
X193771428Y-72703571D01*
X193757142Y-72675000D01*
X193742857Y-72660714D01*
X193714285Y-72646428D01*
X183385714Y-81707142D02*
X183242857Y-81807142D01*
X183385714Y-81878571D02*
X183085714Y-81878571D01*
X183085714Y-81764285D01*
X183100000Y-81735714D01*
X183114285Y-81721428D01*
X183142857Y-81707142D01*
X183185714Y-81707142D01*
X183214285Y-81721428D01*
X183228571Y-81735714D01*
X183242857Y-81764285D01*
X183242857Y-81878571D01*
X183385714Y-81578571D02*
X183085714Y-81578571D01*
X183385714Y-81407142D01*
X183085714Y-81407142D01*
X183085714Y-81135714D02*
X183085714Y-81192857D01*
X183100000Y-81221428D01*
X183114285Y-81235714D01*
X183157142Y-81264285D01*
X183214285Y-81278571D01*
X183328571Y-81278571D01*
X183357142Y-81264285D01*
X183371428Y-81250000D01*
X183385714Y-81221428D01*
X183385714Y-81164285D01*
X183371428Y-81135714D01*
X183357142Y-81121428D01*
X183328571Y-81107142D01*
X183257142Y-81107142D01*
X183228571Y-81121428D01*
X183214285Y-81135714D01*
X183200000Y-81164285D01*
X183200000Y-81221428D01*
X183214285Y-81250000D01*
X183228571Y-81264285D01*
X183257142Y-81278571D01*
X187735714Y-78140000D02*
X187592857Y-78240000D01*
X187735714Y-78311428D02*
X187435714Y-78311428D01*
X187435714Y-78197142D01*
X187450000Y-78168571D01*
X187464285Y-78154285D01*
X187492857Y-78140000D01*
X187535714Y-78140000D01*
X187564285Y-78154285D01*
X187578571Y-78168571D01*
X187592857Y-78197142D01*
X187592857Y-78311428D01*
X187735714Y-78011428D02*
X187435714Y-78011428D01*
X187735714Y-77840000D01*
X187435714Y-77840000D01*
X187735714Y-77540000D02*
X187735714Y-77711428D01*
X187735714Y-77625714D02*
X187435714Y-77625714D01*
X187478571Y-77654285D01*
X187507142Y-77682857D01*
X187521428Y-77711428D01*
X187435714Y-77268571D02*
X187435714Y-77411428D01*
X187578571Y-77425714D01*
X187564285Y-77411428D01*
X187550000Y-77382857D01*
X187550000Y-77311428D01*
X187564285Y-77282857D01*
X187578571Y-77268571D01*
X187607142Y-77254285D01*
X187678571Y-77254285D01*
X187707142Y-77268571D01*
X187721428Y-77282857D01*
X187735714Y-77311428D01*
X187735714Y-77382857D01*
X187721428Y-77411428D01*
X187707142Y-77425714D01*
X196828571Y-71985714D02*
X197000000Y-71985714D01*
X196914285Y-72285714D02*
X196914285Y-71985714D01*
X197100000Y-72285714D02*
X197100000Y-71985714D01*
X197214285Y-71985714D01*
X197242857Y-72000000D01*
X197257142Y-72014285D01*
X197271428Y-72042857D01*
X197271428Y-72085714D01*
X197257142Y-72114285D01*
X197242857Y-72128571D01*
X197214285Y-72142857D01*
X197100000Y-72142857D01*
X197557142Y-72285714D02*
X197385714Y-72285714D01*
X197471428Y-72285714D02*
X197471428Y-71985714D01*
X197442857Y-72028571D01*
X197414285Y-72057142D01*
X197385714Y-72071428D01*
X197742857Y-71985714D02*
X197771428Y-71985714D01*
X197800000Y-72000000D01*
X197814285Y-72014285D01*
X197828571Y-72042857D01*
X197842857Y-72100000D01*
X197842857Y-72171428D01*
X197828571Y-72228571D01*
X197814285Y-72257142D01*
X197800000Y-72271428D01*
X197771428Y-72285714D01*
X197742857Y-72285714D01*
X197714285Y-72271428D01*
X197700000Y-72257142D01*
X197685714Y-72228571D01*
X197671428Y-72171428D01*
X197671428Y-72100000D01*
X197685714Y-72042857D01*
X197700000Y-72014285D01*
X197714285Y-72000000D01*
X197742857Y-71985714D01*
X184615714Y-79178571D02*
X184858571Y-79178571D01*
X184887142Y-79164285D01*
X184901428Y-79150000D01*
X184915714Y-79121428D01*
X184915714Y-79064285D01*
X184901428Y-79035714D01*
X184887142Y-79021428D01*
X184858571Y-79007142D01*
X184615714Y-79007142D01*
X184615714Y-78735714D02*
X184615714Y-78792857D01*
X184630000Y-78821428D01*
X184644285Y-78835714D01*
X184687142Y-78864285D01*
X184744285Y-78878571D01*
X184858571Y-78878571D01*
X184887142Y-78864285D01*
X184901428Y-78850000D01*
X184915714Y-78821428D01*
X184915714Y-78764285D01*
X184901428Y-78735714D01*
X184887142Y-78721428D01*
X184858571Y-78707142D01*
X184787142Y-78707142D01*
X184758571Y-78721428D01*
X184744285Y-78735714D01*
X184730000Y-78764285D01*
X184730000Y-78821428D01*
X184744285Y-78850000D01*
X184758571Y-78864285D01*
X184787142Y-78878571D01*
X186165714Y-66021428D02*
X186408571Y-66021428D01*
X186437142Y-66007142D01*
X186451428Y-65992857D01*
X186465714Y-65964285D01*
X186465714Y-65907142D01*
X186451428Y-65878571D01*
X186437142Y-65864285D01*
X186408571Y-65850000D01*
X186165714Y-65850000D01*
X186465714Y-65550000D02*
X186465714Y-65721428D01*
X186465714Y-65635714D02*
X186165714Y-65635714D01*
X186208571Y-65664285D01*
X186237142Y-65692857D01*
X186251428Y-65721428D01*
X186165714Y-65364285D02*
X186165714Y-65335714D01*
X186180000Y-65307142D01*
X186194285Y-65292857D01*
X186222857Y-65278571D01*
X186280000Y-65264285D01*
X186351428Y-65264285D01*
X186408571Y-65278571D01*
X186437142Y-65292857D01*
X186451428Y-65307142D01*
X186465714Y-65335714D01*
X186465714Y-65364285D01*
X186451428Y-65392857D01*
X186437142Y-65407142D01*
X186408571Y-65421428D01*
X186351428Y-65435714D01*
X186280000Y-65435714D01*
X186222857Y-65421428D01*
X186194285Y-65407142D01*
X186180000Y-65392857D01*
X186165714Y-65364285D01*
X184485714Y-62421428D02*
X184728571Y-62421428D01*
X184757142Y-62407142D01*
X184771428Y-62392857D01*
X184785714Y-62364285D01*
X184785714Y-62307142D01*
X184771428Y-62278571D01*
X184757142Y-62264285D01*
X184728571Y-62250000D01*
X184485714Y-62250000D01*
X184785714Y-61950000D02*
X184785714Y-62121428D01*
X184785714Y-62035714D02*
X184485714Y-62035714D01*
X184528571Y-62064285D01*
X184557142Y-62092857D01*
X184571428Y-62121428D01*
X184485714Y-61850000D02*
X184485714Y-61664285D01*
X184600000Y-61764285D01*
X184600000Y-61721428D01*
X184614285Y-61692857D01*
X184628571Y-61678571D01*
X184657142Y-61664285D01*
X184728571Y-61664285D01*
X184757142Y-61678571D01*
X184771428Y-61692857D01*
X184785714Y-61721428D01*
X184785714Y-61807142D01*
X184771428Y-61835714D01*
X184757142Y-61850000D01*
X189188571Y-65435714D02*
X189188571Y-65678571D01*
X189202857Y-65707142D01*
X189217142Y-65721428D01*
X189245714Y-65735714D01*
X189302857Y-65735714D01*
X189331428Y-65721428D01*
X189345714Y-65707142D01*
X189360000Y-65678571D01*
X189360000Y-65435714D01*
X189660000Y-65735714D02*
X189488571Y-65735714D01*
X189574285Y-65735714D02*
X189574285Y-65435714D01*
X189545714Y-65478571D01*
X189517142Y-65507142D01*
X189488571Y-65521428D01*
X189917142Y-65435714D02*
X189860000Y-65435714D01*
X189831428Y-65450000D01*
X189817142Y-65464285D01*
X189788571Y-65507142D01*
X189774285Y-65564285D01*
X189774285Y-65678571D01*
X189788571Y-65707142D01*
X189802857Y-65721428D01*
X189831428Y-65735714D01*
X189888571Y-65735714D01*
X189917142Y-65721428D01*
X189931428Y-65707142D01*
X189945714Y-65678571D01*
X189945714Y-65607142D01*
X189931428Y-65578571D01*
X189917142Y-65564285D01*
X189888571Y-65550000D01*
X189831428Y-65550000D01*
X189802857Y-65564285D01*
X189788571Y-65578571D01*
X189774285Y-65607142D01*
X189205714Y-79091428D02*
X189448571Y-79091428D01*
X189477142Y-79077142D01*
X189491428Y-79062857D01*
X189505714Y-79034285D01*
X189505714Y-78977142D01*
X189491428Y-78948571D01*
X189477142Y-78934285D01*
X189448571Y-78920000D01*
X189205714Y-78920000D01*
X189505714Y-78620000D02*
X189505714Y-78791428D01*
X189505714Y-78705714D02*
X189205714Y-78705714D01*
X189248571Y-78734285D01*
X189277142Y-78762857D01*
X189291428Y-78791428D01*
X189505714Y-78477142D02*
X189505714Y-78420000D01*
X189491428Y-78391428D01*
X189477142Y-78377142D01*
X189434285Y-78348571D01*
X189377142Y-78334285D01*
X189262857Y-78334285D01*
X189234285Y-78348571D01*
X189220000Y-78362857D01*
X189205714Y-78391428D01*
X189205714Y-78448571D01*
X189220000Y-78477142D01*
X189234285Y-78491428D01*
X189262857Y-78505714D01*
X189334285Y-78505714D01*
X189362857Y-78491428D01*
X189377142Y-78477142D01*
X189391428Y-78448571D01*
X189391428Y-78391428D01*
X189377142Y-78362857D01*
X189362857Y-78348571D01*
X189334285Y-78334285D01*
X188435714Y-62421428D02*
X188678571Y-62421428D01*
X188707142Y-62407142D01*
X188721428Y-62392857D01*
X188735714Y-62364285D01*
X188735714Y-62307142D01*
X188721428Y-62278571D01*
X188707142Y-62264285D01*
X188678571Y-62250000D01*
X188435714Y-62250000D01*
X188464285Y-62121428D02*
X188450000Y-62107142D01*
X188435714Y-62078571D01*
X188435714Y-62007142D01*
X188450000Y-61978571D01*
X188464285Y-61964285D01*
X188492857Y-61950000D01*
X188521428Y-61950000D01*
X188564285Y-61964285D01*
X188735714Y-62135714D01*
X188735714Y-61950000D01*
X188435714Y-61764285D02*
X188435714Y-61735714D01*
X188450000Y-61707142D01*
X188464285Y-61692857D01*
X188492857Y-61678571D01*
X188550000Y-61664285D01*
X188621428Y-61664285D01*
X188678571Y-61678571D01*
X188707142Y-61692857D01*
X188721428Y-61707142D01*
X188735714Y-61735714D01*
X188735714Y-61764285D01*
X188721428Y-61792857D01*
X188707142Y-61807142D01*
X188678571Y-61821428D01*
X188621428Y-61835714D01*
X188550000Y-61835714D01*
X188492857Y-61821428D01*
X188464285Y-61807142D01*
X188450000Y-61792857D01*
X188435714Y-61764285D01*
X188435714Y-82271428D02*
X188678571Y-82271428D01*
X188707142Y-82257142D01*
X188721428Y-82242857D01*
X188735714Y-82214285D01*
X188735714Y-82157142D01*
X188721428Y-82128571D01*
X188707142Y-82114285D01*
X188678571Y-82100000D01*
X188435714Y-82100000D01*
X188464285Y-81971428D02*
X188450000Y-81957142D01*
X188435714Y-81928571D01*
X188435714Y-81857142D01*
X188450000Y-81828571D01*
X188464285Y-81814285D01*
X188492857Y-81800000D01*
X188521428Y-81800000D01*
X188564285Y-81814285D01*
X188735714Y-81985714D01*
X188735714Y-81800000D01*
X188435714Y-81700000D02*
X188435714Y-81514285D01*
X188550000Y-81614285D01*
X188550000Y-81571428D01*
X188564285Y-81542857D01*
X188578571Y-81528571D01*
X188607142Y-81514285D01*
X188678571Y-81514285D01*
X188707142Y-81528571D01*
X188721428Y-81542857D01*
X188735714Y-81571428D01*
X188735714Y-81657142D01*
X188721428Y-81685714D01*
X188707142Y-81700000D01*
X178505714Y-78721428D02*
X178748571Y-78721428D01*
X178777142Y-78707142D01*
X178791428Y-78692857D01*
X178805714Y-78664285D01*
X178805714Y-78607142D01*
X178791428Y-78578571D01*
X178777142Y-78564285D01*
X178748571Y-78550000D01*
X178505714Y-78550000D01*
X178534285Y-78421428D02*
X178520000Y-78407142D01*
X178505714Y-78378571D01*
X178505714Y-78307142D01*
X178520000Y-78278571D01*
X178534285Y-78264285D01*
X178562857Y-78250000D01*
X178591428Y-78250000D01*
X178634285Y-78264285D01*
X178805714Y-78435714D01*
X178805714Y-78250000D01*
X178505714Y-77978571D02*
X178505714Y-78121428D01*
X178648571Y-78135714D01*
X178634285Y-78121428D01*
X178620000Y-78092857D01*
X178620000Y-78021428D01*
X178634285Y-77992857D01*
X178648571Y-77978571D01*
X178677142Y-77964285D01*
X178748571Y-77964285D01*
X178777142Y-77978571D01*
X178791428Y-77992857D01*
X178805714Y-78021428D01*
X178805714Y-78092857D01*
X178791428Y-78121428D01*
X178777142Y-78135714D01*
X180185714Y-82271428D02*
X180428571Y-82271428D01*
X180457142Y-82257142D01*
X180471428Y-82242857D01*
X180485714Y-82214285D01*
X180485714Y-82157142D01*
X180471428Y-82128571D01*
X180457142Y-82114285D01*
X180428571Y-82100000D01*
X180185714Y-82100000D01*
X180214285Y-81971428D02*
X180200000Y-81957142D01*
X180185714Y-81928571D01*
X180185714Y-81857142D01*
X180200000Y-81828571D01*
X180214285Y-81814285D01*
X180242857Y-81800000D01*
X180271428Y-81800000D01*
X180314285Y-81814285D01*
X180485714Y-81985714D01*
X180485714Y-81800000D01*
X180185714Y-81542857D02*
X180185714Y-81600000D01*
X180200000Y-81628571D01*
X180214285Y-81642857D01*
X180257142Y-81671428D01*
X180314285Y-81685714D01*
X180428571Y-81685714D01*
X180457142Y-81671428D01*
X180471428Y-81657142D01*
X180485714Y-81628571D01*
X180485714Y-81571428D01*
X180471428Y-81542857D01*
X180457142Y-81528571D01*
X180428571Y-81514285D01*
X180357142Y-81514285D01*
X180328571Y-81528571D01*
X180314285Y-81542857D01*
X180300000Y-81571428D01*
X180300000Y-81628571D01*
X180314285Y-81657142D01*
X180328571Y-81671428D01*
X180357142Y-81685714D01*
X175068571Y-78235714D02*
X175068571Y-78478571D01*
X175082857Y-78507142D01*
X175097142Y-78521428D01*
X175125714Y-78535714D01*
X175182857Y-78535714D01*
X175211428Y-78521428D01*
X175225714Y-78507142D01*
X175240000Y-78478571D01*
X175240000Y-78235714D01*
X175368571Y-78264285D02*
X175382857Y-78250000D01*
X175411428Y-78235714D01*
X175482857Y-78235714D01*
X175511428Y-78250000D01*
X175525714Y-78264285D01*
X175540000Y-78292857D01*
X175540000Y-78321428D01*
X175525714Y-78364285D01*
X175354285Y-78535714D01*
X175540000Y-78535714D01*
X175640000Y-78235714D02*
X175840000Y-78235714D01*
X175711428Y-78535714D01*
X176285714Y-82321428D02*
X176528571Y-82321428D01*
X176557142Y-82307142D01*
X176571428Y-82292857D01*
X176585714Y-82264285D01*
X176585714Y-82207142D01*
X176571428Y-82178571D01*
X176557142Y-82164285D01*
X176528571Y-82150000D01*
X176285714Y-82150000D01*
X176314285Y-82021428D02*
X176300000Y-82007142D01*
X176285714Y-81978571D01*
X176285714Y-81907142D01*
X176300000Y-81878571D01*
X176314285Y-81864285D01*
X176342857Y-81850000D01*
X176371428Y-81850000D01*
X176414285Y-81864285D01*
X176585714Y-82035714D01*
X176585714Y-81850000D01*
X176585714Y-81707142D02*
X176585714Y-81650000D01*
X176571428Y-81621428D01*
X176557142Y-81607142D01*
X176514285Y-81578571D01*
X176457142Y-81564285D01*
X176342857Y-81564285D01*
X176314285Y-81578571D01*
X176300000Y-81592857D01*
X176285714Y-81621428D01*
X176285714Y-81678571D01*
X176300000Y-81707142D01*
X176314285Y-81721428D01*
X176342857Y-81735714D01*
X176414285Y-81735714D01*
X176442857Y-81721428D01*
X176457142Y-81707142D01*
X176471428Y-81678571D01*
X176471428Y-81621428D01*
X176457142Y-81592857D01*
X176442857Y-81578571D01*
X176414285Y-81564285D01*
X174435714Y-74221428D02*
X174678571Y-74221428D01*
X174707142Y-74207142D01*
X174721428Y-74192857D01*
X174735714Y-74164285D01*
X174735714Y-74107142D01*
X174721428Y-74078571D01*
X174707142Y-74064285D01*
X174678571Y-74050000D01*
X174435714Y-74050000D01*
X174435714Y-73935714D02*
X174435714Y-73750000D01*
X174550000Y-73850000D01*
X174550000Y-73807142D01*
X174564285Y-73778571D01*
X174578571Y-73764285D01*
X174607142Y-73750000D01*
X174678571Y-73750000D01*
X174707142Y-73764285D01*
X174721428Y-73778571D01*
X174735714Y-73807142D01*
X174735714Y-73892857D01*
X174721428Y-73921428D01*
X174707142Y-73935714D01*
X174435714Y-73478571D02*
X174435714Y-73621428D01*
X174578571Y-73635714D01*
X174564285Y-73621428D01*
X174550000Y-73592857D01*
X174550000Y-73521428D01*
X174564285Y-73492857D01*
X174578571Y-73478571D01*
X174607142Y-73464285D01*
X174678571Y-73464285D01*
X174707142Y-73478571D01*
X174721428Y-73492857D01*
X174735714Y-73521428D01*
X174735714Y-73592857D01*
X174721428Y-73621428D01*
X174707142Y-73635714D01*
X169310714Y-74417857D02*
X169610714Y-74217857D01*
X169310714Y-74217857D02*
X169610714Y-74417857D01*
X169610714Y-73946428D02*
X169610714Y-74117857D01*
X169610714Y-74032142D02*
X169310714Y-74032142D01*
X169353571Y-74060714D01*
X169382142Y-74089285D01*
X169396428Y-74117857D01*
X167735714Y-77171428D02*
X167435714Y-77171428D01*
X167435714Y-77100000D01*
X167450000Y-77057142D01*
X167478571Y-77028571D01*
X167507142Y-77014285D01*
X167564285Y-77000000D01*
X167607142Y-77000000D01*
X167664285Y-77014285D01*
X167692857Y-77028571D01*
X167721428Y-77057142D01*
X167735714Y-77100000D01*
X167735714Y-77171428D01*
X167735714Y-76714285D02*
X167735714Y-76885714D01*
X167735714Y-76800000D02*
X167435714Y-76800000D01*
X167478571Y-76828571D01*
X167507142Y-76857142D01*
X167521428Y-76885714D01*
X181567857Y-68917857D02*
X181710714Y-68917857D01*
X181410714Y-69017857D02*
X181567857Y-68917857D01*
X181410714Y-68817857D01*
X181710714Y-68560714D02*
X181710714Y-68732142D01*
X181710714Y-68646428D02*
X181410714Y-68646428D01*
X181453571Y-68675000D01*
X181482142Y-68703571D01*
X181496428Y-68732142D01*
X169907142Y-77207142D02*
X169892857Y-77221428D01*
X169850000Y-77235714D01*
X169821428Y-77235714D01*
X169778571Y-77221428D01*
X169750000Y-77192857D01*
X169735714Y-77164285D01*
X169721428Y-77107142D01*
X169721428Y-77064285D01*
X169735714Y-77007142D01*
X169750000Y-76978571D01*
X169778571Y-76950000D01*
X169821428Y-76935714D01*
X169850000Y-76935714D01*
X169892857Y-76950000D01*
X169907142Y-76964285D01*
X170164285Y-77035714D02*
X170164285Y-77235714D01*
X170092857Y-76921428D02*
X170021428Y-77135714D01*
X170207142Y-77135714D01*
X170307142Y-76964285D02*
X170321428Y-76950000D01*
X170350000Y-76935714D01*
X170421428Y-76935714D01*
X170450000Y-76950000D01*
X170464285Y-76964285D01*
X170478571Y-76992857D01*
X170478571Y-77021428D01*
X170464285Y-77064285D01*
X170292857Y-77235714D01*
X170478571Y-77235714D01*
X172107142Y-77207142D02*
X172092857Y-77221428D01*
X172050000Y-77235714D01*
X172021428Y-77235714D01*
X171978571Y-77221428D01*
X171950000Y-77192857D01*
X171935714Y-77164285D01*
X171921428Y-77107142D01*
X171921428Y-77064285D01*
X171935714Y-77007142D01*
X171950000Y-76978571D01*
X171978571Y-76950000D01*
X172021428Y-76935714D01*
X172050000Y-76935714D01*
X172092857Y-76950000D01*
X172107142Y-76964285D01*
X172364285Y-77035714D02*
X172364285Y-77235714D01*
X172292857Y-76921428D02*
X172221428Y-77135714D01*
X172407142Y-77135714D01*
X172492857Y-76935714D02*
X172678571Y-76935714D01*
X172578571Y-77050000D01*
X172621428Y-77050000D01*
X172650000Y-77064285D01*
X172664285Y-77078571D01*
X172678571Y-77107142D01*
X172678571Y-77178571D01*
X172664285Y-77207142D01*
X172650000Y-77221428D01*
X172621428Y-77235714D01*
X172535714Y-77235714D01*
X172507142Y-77221428D01*
X172492857Y-77207142D01*
X169907142Y-78907142D02*
X169892857Y-78921428D01*
X169850000Y-78935714D01*
X169821428Y-78935714D01*
X169778571Y-78921428D01*
X169750000Y-78892857D01*
X169735714Y-78864285D01*
X169721428Y-78807142D01*
X169721428Y-78764285D01*
X169735714Y-78707142D01*
X169750000Y-78678571D01*
X169778571Y-78650000D01*
X169821428Y-78635714D01*
X169850000Y-78635714D01*
X169892857Y-78650000D01*
X169907142Y-78664285D01*
X170164285Y-78735714D02*
X170164285Y-78935714D01*
X170092857Y-78621428D02*
X170021428Y-78835714D01*
X170207142Y-78835714D01*
X170450000Y-78735714D02*
X170450000Y-78935714D01*
X170378571Y-78621428D02*
X170307142Y-78835714D01*
X170492857Y-78835714D01*
X193635714Y-70471428D02*
X193878571Y-70471428D01*
X193907142Y-70457142D01*
X193921428Y-70442857D01*
X193935714Y-70414285D01*
X193935714Y-70357142D01*
X193921428Y-70328571D01*
X193907142Y-70314285D01*
X193878571Y-70300000D01*
X193635714Y-70300000D01*
X193635714Y-70185714D02*
X193635714Y-70000000D01*
X193750000Y-70100000D01*
X193750000Y-70057142D01*
X193764285Y-70028571D01*
X193778571Y-70014285D01*
X193807142Y-70000000D01*
X193878571Y-70000000D01*
X193907142Y-70014285D01*
X193921428Y-70028571D01*
X193935714Y-70057142D01*
X193935714Y-70142857D01*
X193921428Y-70171428D01*
X193907142Y-70185714D01*
X193935714Y-69714285D02*
X193935714Y-69885714D01*
X193935714Y-69800000D02*
X193635714Y-69800000D01*
X193678571Y-69828571D01*
X193707142Y-69857142D01*
X193721428Y-69885714D01*
X179528571Y-72435714D02*
X179528571Y-72678571D01*
X179542857Y-72707142D01*
X179557142Y-72721428D01*
X179585714Y-72735714D01*
X179642857Y-72735714D01*
X179671428Y-72721428D01*
X179685714Y-72707142D01*
X179700000Y-72678571D01*
X179700000Y-72435714D01*
X179814285Y-72435714D02*
X180000000Y-72435714D01*
X179900000Y-72550000D01*
X179942857Y-72550000D01*
X179971428Y-72564285D01*
X179985714Y-72578571D01*
X180000000Y-72607142D01*
X180000000Y-72678571D01*
X179985714Y-72707142D01*
X179971428Y-72721428D01*
X179942857Y-72735714D01*
X179857142Y-72735714D01*
X179828571Y-72721428D01*
X179814285Y-72707142D01*
X180257142Y-72435714D02*
X180200000Y-72435714D01*
X180171428Y-72450000D01*
X180157142Y-72464285D01*
X180128571Y-72507142D01*
X180114285Y-72564285D01*
X180114285Y-72678571D01*
X180128571Y-72707142D01*
X180142857Y-72721428D01*
X180171428Y-72735714D01*
X180228571Y-72735714D01*
X180257142Y-72721428D01*
X180271428Y-72707142D01*
X180285714Y-72678571D01*
X180285714Y-72607142D01*
X180271428Y-72578571D01*
X180257142Y-72564285D01*
X180228571Y-72550000D01*
X180171428Y-72550000D01*
X180142857Y-72564285D01*
X180128571Y-72578571D01*
X180114285Y-72607142D01*
X175828571Y-69085714D02*
X175828571Y-69328571D01*
X175842857Y-69357142D01*
X175857142Y-69371428D01*
X175885714Y-69385714D01*
X175942857Y-69385714D01*
X175971428Y-69371428D01*
X175985714Y-69357142D01*
X176000000Y-69328571D01*
X176000000Y-69085714D01*
X176114285Y-69085714D02*
X176300000Y-69085714D01*
X176200000Y-69200000D01*
X176242857Y-69200000D01*
X176271428Y-69214285D01*
X176285714Y-69228571D01*
X176300000Y-69257142D01*
X176300000Y-69328571D01*
X176285714Y-69357142D01*
X176271428Y-69371428D01*
X176242857Y-69385714D01*
X176157142Y-69385714D01*
X176128571Y-69371428D01*
X176114285Y-69357142D01*
X176400000Y-69085714D02*
X176600000Y-69085714D01*
X176471428Y-69385714D01*
X188028571Y-71835714D02*
X188028571Y-72078571D01*
X188042857Y-72107142D01*
X188057142Y-72121428D01*
X188085714Y-72135714D01*
X188142857Y-72135714D01*
X188171428Y-72121428D01*
X188185714Y-72107142D01*
X188200000Y-72078571D01*
X188200000Y-71835714D01*
X188314285Y-71835714D02*
X188500000Y-71835714D01*
X188400000Y-71950000D01*
X188442857Y-71950000D01*
X188471428Y-71964285D01*
X188485714Y-71978571D01*
X188500000Y-72007142D01*
X188500000Y-72078571D01*
X188485714Y-72107142D01*
X188471428Y-72121428D01*
X188442857Y-72135714D01*
X188357142Y-72135714D01*
X188328571Y-72121428D01*
X188314285Y-72107142D01*
X188757142Y-71935714D02*
X188757142Y-72135714D01*
X188685714Y-71821428D02*
X188614285Y-72035714D01*
X188800000Y-72035714D01*
X184507142Y-72407142D02*
X184492857Y-72421428D01*
X184450000Y-72435714D01*
X184421428Y-72435714D01*
X184378571Y-72421428D01*
X184350000Y-72392857D01*
X184335714Y-72364285D01*
X184321428Y-72307142D01*
X184321428Y-72264285D01*
X184335714Y-72207142D01*
X184350000Y-72178571D01*
X184378571Y-72150000D01*
X184421428Y-72135714D01*
X184450000Y-72135714D01*
X184492857Y-72150000D01*
X184507142Y-72164285D01*
X184764285Y-72235714D02*
X184764285Y-72435714D01*
X184692857Y-72121428D02*
X184621428Y-72335714D01*
X184807142Y-72335714D01*
X184892857Y-72135714D02*
X185092857Y-72135714D01*
X184964285Y-72435714D01*
X183369642Y-76257142D02*
X183355357Y-76271428D01*
X183312500Y-76285714D01*
X183283928Y-76285714D01*
X183241071Y-76271428D01*
X183212500Y-76242857D01*
X183198214Y-76214285D01*
X183183928Y-76157142D01*
X183183928Y-76114285D01*
X183198214Y-76057142D01*
X183212500Y-76028571D01*
X183241071Y-76000000D01*
X183283928Y-75985714D01*
X183312500Y-75985714D01*
X183355357Y-76000000D01*
X183369642Y-76014285D01*
X183626785Y-76085714D02*
X183626785Y-76285714D01*
X183555357Y-75971428D02*
X183483928Y-76185714D01*
X183669642Y-76185714D01*
X183826785Y-76114285D02*
X183798214Y-76100000D01*
X183783928Y-76085714D01*
X183769642Y-76057142D01*
X183769642Y-76042857D01*
X183783928Y-76014285D01*
X183798214Y-76000000D01*
X183826785Y-75985714D01*
X183883928Y-75985714D01*
X183912500Y-76000000D01*
X183926785Y-76014285D01*
X183941071Y-76042857D01*
X183941071Y-76057142D01*
X183926785Y-76085714D01*
X183912500Y-76100000D01*
X183883928Y-76114285D01*
X183826785Y-76114285D01*
X183798214Y-76128571D01*
X183783928Y-76142857D01*
X183769642Y-76171428D01*
X183769642Y-76228571D01*
X183783928Y-76257142D01*
X183798214Y-76271428D01*
X183826785Y-76285714D01*
X183883928Y-76285714D01*
X183912500Y-76271428D01*
X183926785Y-76257142D01*
X183941071Y-76228571D01*
X183941071Y-76171428D01*
X183926785Y-76142857D01*
X183912500Y-76128571D01*
X183883928Y-76114285D01*
X183219642Y-75107142D02*
X183205357Y-75121428D01*
X183162500Y-75135714D01*
X183133928Y-75135714D01*
X183091071Y-75121428D01*
X183062500Y-75092857D01*
X183048214Y-75064285D01*
X183033928Y-75007142D01*
X183033928Y-74964285D01*
X183048214Y-74907142D01*
X183062500Y-74878571D01*
X183091071Y-74850000D01*
X183133928Y-74835714D01*
X183162500Y-74835714D01*
X183205357Y-74850000D01*
X183219642Y-74864285D01*
X183476785Y-74935714D02*
X183476785Y-75135714D01*
X183405357Y-74821428D02*
X183333928Y-75035714D01*
X183519642Y-75035714D01*
X183648214Y-75135714D02*
X183705357Y-75135714D01*
X183733928Y-75121428D01*
X183748214Y-75107142D01*
X183776785Y-75064285D01*
X183791071Y-75007142D01*
X183791071Y-74892857D01*
X183776785Y-74864285D01*
X183762500Y-74850000D01*
X183733928Y-74835714D01*
X183676785Y-74835714D01*
X183648214Y-74850000D01*
X183633928Y-74864285D01*
X183619642Y-74892857D01*
X183619642Y-74964285D01*
X183633928Y-74992857D01*
X183648214Y-75007142D01*
X183676785Y-75021428D01*
X183733928Y-75021428D01*
X183762500Y-75007142D01*
X183776785Y-74992857D01*
X183791071Y-74964285D01*
X183807142Y-74107142D02*
X183792857Y-74121428D01*
X183750000Y-74135714D01*
X183721428Y-74135714D01*
X183678571Y-74121428D01*
X183650000Y-74092857D01*
X183635714Y-74064285D01*
X183621428Y-74007142D01*
X183621428Y-73964285D01*
X183635714Y-73907142D01*
X183650000Y-73878571D01*
X183678571Y-73850000D01*
X183721428Y-73835714D01*
X183750000Y-73835714D01*
X183792857Y-73850000D01*
X183807142Y-73864285D01*
X184078571Y-73835714D02*
X183935714Y-73835714D01*
X183921428Y-73978571D01*
X183935714Y-73964285D01*
X183964285Y-73950000D01*
X184035714Y-73950000D01*
X184064285Y-73964285D01*
X184078571Y-73978571D01*
X184092857Y-74007142D01*
X184092857Y-74078571D01*
X184078571Y-74107142D01*
X184064285Y-74121428D01*
X184035714Y-74135714D01*
X183964285Y-74135714D01*
X183935714Y-74121428D01*
X183921428Y-74107142D01*
X184278571Y-73835714D02*
X184307142Y-73835714D01*
X184335714Y-73850000D01*
X184350000Y-73864285D01*
X184364285Y-73892857D01*
X184378571Y-73950000D01*
X184378571Y-74021428D01*
X184364285Y-74078571D01*
X184350000Y-74107142D01*
X184335714Y-74121428D01*
X184307142Y-74135714D01*
X184278571Y-74135714D01*
X184250000Y-74121428D01*
X184235714Y-74107142D01*
X184221428Y-74078571D01*
X184207142Y-74021428D01*
X184207142Y-73950000D01*
X184221428Y-73892857D01*
X184235714Y-73864285D01*
X184250000Y-73850000D01*
X184278571Y-73835714D01*
X183807142Y-73207142D02*
X183792857Y-73221428D01*
X183750000Y-73235714D01*
X183721428Y-73235714D01*
X183678571Y-73221428D01*
X183650000Y-73192857D01*
X183635714Y-73164285D01*
X183621428Y-73107142D01*
X183621428Y-73064285D01*
X183635714Y-73007142D01*
X183650000Y-72978571D01*
X183678571Y-72950000D01*
X183721428Y-72935714D01*
X183750000Y-72935714D01*
X183792857Y-72950000D01*
X183807142Y-72964285D01*
X184078571Y-72935714D02*
X183935714Y-72935714D01*
X183921428Y-73078571D01*
X183935714Y-73064285D01*
X183964285Y-73050000D01*
X184035714Y-73050000D01*
X184064285Y-73064285D01*
X184078571Y-73078571D01*
X184092857Y-73107142D01*
X184092857Y-73178571D01*
X184078571Y-73207142D01*
X184064285Y-73221428D01*
X184035714Y-73235714D01*
X183964285Y-73235714D01*
X183935714Y-73221428D01*
X183921428Y-73207142D01*
X184378571Y-73235714D02*
X184207142Y-73235714D01*
X184292857Y-73235714D02*
X184292857Y-72935714D01*
X184264285Y-72978571D01*
X184235714Y-73007142D01*
X184207142Y-73021428D01*
X177907142Y-73707857D02*
X177921428Y-73722142D01*
X177935714Y-73765000D01*
X177935714Y-73793571D01*
X177921428Y-73836428D01*
X177892857Y-73865000D01*
X177864285Y-73879285D01*
X177807142Y-73893571D01*
X177764285Y-73893571D01*
X177707142Y-73879285D01*
X177678571Y-73865000D01*
X177650000Y-73836428D01*
X177635714Y-73793571D01*
X177635714Y-73765000D01*
X177650000Y-73722142D01*
X177664285Y-73707857D01*
X177635714Y-73436428D02*
X177635714Y-73579285D01*
X177778571Y-73593571D01*
X177764285Y-73579285D01*
X177750000Y-73550714D01*
X177750000Y-73479285D01*
X177764285Y-73450714D01*
X177778571Y-73436428D01*
X177807142Y-73422142D01*
X177878571Y-73422142D01*
X177907142Y-73436428D01*
X177921428Y-73450714D01*
X177935714Y-73479285D01*
X177935714Y-73550714D01*
X177921428Y-73579285D01*
X177907142Y-73593571D01*
X177664285Y-73307857D02*
X177650000Y-73293571D01*
X177635714Y-73265000D01*
X177635714Y-73193571D01*
X177650000Y-73165000D01*
X177664285Y-73150714D01*
X177692857Y-73136428D01*
X177721428Y-73136428D01*
X177764285Y-73150714D01*
X177935714Y-73322142D01*
X177935714Y-73136428D01*
X178628571Y-75435714D02*
X178628571Y-75678571D01*
X178642857Y-75707142D01*
X178657142Y-75721428D01*
X178685714Y-75735714D01*
X178742857Y-75735714D01*
X178771428Y-75721428D01*
X178785714Y-75707142D01*
X178800000Y-75678571D01*
X178800000Y-75435714D01*
X178914285Y-75435714D02*
X179100000Y-75435714D01*
X179000000Y-75550000D01*
X179042857Y-75550000D01*
X179071428Y-75564285D01*
X179085714Y-75578571D01*
X179100000Y-75607142D01*
X179100000Y-75678571D01*
X179085714Y-75707142D01*
X179071428Y-75721428D01*
X179042857Y-75735714D01*
X178957142Y-75735714D01*
X178928571Y-75721428D01*
X178914285Y-75707142D01*
X179242857Y-75735714D02*
X179300000Y-75735714D01*
X179328571Y-75721428D01*
X179342857Y-75707142D01*
X179371428Y-75664285D01*
X179385714Y-75607142D01*
X179385714Y-75492857D01*
X179371428Y-75464285D01*
X179357142Y-75450000D01*
X179328571Y-75435714D01*
X179271428Y-75435714D01*
X179242857Y-75450000D01*
X179228571Y-75464285D01*
X179214285Y-75492857D01*
X179214285Y-75564285D01*
X179228571Y-75592857D01*
X179242857Y-75607142D01*
X179271428Y-75621428D01*
X179328571Y-75621428D01*
X179357142Y-75607142D01*
X179371428Y-75592857D01*
X179385714Y-75564285D01*
X183950000Y-71685714D02*
X183850000Y-71542857D01*
X183778571Y-71685714D02*
X183778571Y-71385714D01*
X183892857Y-71385714D01*
X183921428Y-71400000D01*
X183935714Y-71414285D01*
X183950000Y-71442857D01*
X183950000Y-71485714D01*
X183935714Y-71514285D01*
X183921428Y-71528571D01*
X183892857Y-71542857D01*
X183778571Y-71542857D01*
X184050000Y-71385714D02*
X184235714Y-71385714D01*
X184135714Y-71500000D01*
X184178571Y-71500000D01*
X184207142Y-71514285D01*
X184221428Y-71528571D01*
X184235714Y-71557142D01*
X184235714Y-71628571D01*
X184221428Y-71657142D01*
X184207142Y-71671428D01*
X184178571Y-71685714D01*
X184092857Y-71685714D01*
X184064285Y-71671428D01*
X184050000Y-71657142D01*
X181135000Y-75385714D02*
X181035000Y-75242857D01*
X180963571Y-75385714D02*
X180963571Y-75085714D01*
X181077857Y-75085714D01*
X181106428Y-75100000D01*
X181120714Y-75114285D01*
X181135000Y-75142857D01*
X181135000Y-75185714D01*
X181120714Y-75214285D01*
X181106428Y-75228571D01*
X181077857Y-75242857D01*
X180963571Y-75242857D01*
X181392142Y-75085714D02*
X181335000Y-75085714D01*
X181306428Y-75100000D01*
X181292142Y-75114285D01*
X181263571Y-75157142D01*
X181249285Y-75214285D01*
X181249285Y-75328571D01*
X181263571Y-75357142D01*
X181277857Y-75371428D01*
X181306428Y-75385714D01*
X181363571Y-75385714D01*
X181392142Y-75371428D01*
X181406428Y-75357142D01*
X181420714Y-75328571D01*
X181420714Y-75257142D01*
X181406428Y-75228571D01*
X181392142Y-75214285D01*
X181363571Y-75200000D01*
X181306428Y-75200000D01*
X181277857Y-75214285D01*
X181263571Y-75228571D01*
X181249285Y-75257142D01*
X180055714Y-65278571D02*
X180298571Y-65278571D01*
X180327142Y-65264285D01*
X180341428Y-65250000D01*
X180355714Y-65221428D01*
X180355714Y-65164285D01*
X180341428Y-65135714D01*
X180327142Y-65121428D01*
X180298571Y-65107142D01*
X180055714Y-65107142D01*
X180084285Y-64978571D02*
X180070000Y-64964285D01*
X180055714Y-64935714D01*
X180055714Y-64864285D01*
X180070000Y-64835714D01*
X180084285Y-64821428D01*
X180112857Y-64807142D01*
X180141428Y-64807142D01*
X180184285Y-64821428D01*
X180355714Y-64992857D01*
X180355714Y-64807142D01*
X170550000Y-69635714D02*
X170550000Y-69850000D01*
X170535714Y-69892857D01*
X170507142Y-69921428D01*
X170464285Y-69935714D01*
X170435714Y-69935714D01*
X170821428Y-69635714D02*
X170764285Y-69635714D01*
X170735714Y-69650000D01*
X170721428Y-69664285D01*
X170692857Y-69707142D01*
X170678571Y-69764285D01*
X170678571Y-69878571D01*
X170692857Y-69907142D01*
X170707142Y-69921428D01*
X170735714Y-69935714D01*
X170792857Y-69935714D01*
X170821428Y-69921428D01*
X170835714Y-69907142D01*
X170850000Y-69878571D01*
X170850000Y-69807142D01*
X170835714Y-69778571D01*
X170821428Y-69764285D01*
X170792857Y-69750000D01*
X170735714Y-69750000D01*
X170707142Y-69764285D01*
X170692857Y-69778571D01*
X170678571Y-69807142D01*
X169235714Y-80671428D02*
X168935714Y-80671428D01*
X168935714Y-80600000D01*
X168950000Y-80557142D01*
X168978571Y-80528571D01*
X169007142Y-80514285D01*
X169064285Y-80500000D01*
X169107142Y-80500000D01*
X169164285Y-80514285D01*
X169192857Y-80528571D01*
X169221428Y-80557142D01*
X169235714Y-80600000D01*
X169235714Y-80671428D01*
X168935714Y-80400000D02*
X168935714Y-80214285D01*
X169050000Y-80314285D01*
X169050000Y-80271428D01*
X169064285Y-80242857D01*
X169078571Y-80228571D01*
X169107142Y-80214285D01*
X169178571Y-80214285D01*
X169207142Y-80228571D01*
X169221428Y-80242857D01*
X169235714Y-80271428D01*
X169235714Y-80357142D01*
X169221428Y-80385714D01*
X169207142Y-80400000D01*
X167735714Y-78821428D02*
X167435714Y-78821428D01*
X167435714Y-78750000D01*
X167450000Y-78707142D01*
X167478571Y-78678571D01*
X167507142Y-78664285D01*
X167564285Y-78650000D01*
X167607142Y-78650000D01*
X167664285Y-78664285D01*
X167692857Y-78678571D01*
X167721428Y-78707142D01*
X167735714Y-78750000D01*
X167735714Y-78821428D01*
X167535714Y-78392857D02*
X167735714Y-78392857D01*
X167421428Y-78464285D02*
X167635714Y-78535714D01*
X167635714Y-78350000D01*
X171182142Y-72107142D02*
X171167857Y-72121428D01*
X171125000Y-72135714D01*
X171096428Y-72135714D01*
X171053571Y-72121428D01*
X171025000Y-72092857D01*
X171010714Y-72064285D01*
X170996428Y-72007142D01*
X170996428Y-71964285D01*
X171010714Y-71907142D01*
X171025000Y-71878571D01*
X171053571Y-71850000D01*
X171096428Y-71835714D01*
X171125000Y-71835714D01*
X171167857Y-71850000D01*
X171182142Y-71864285D01*
X171453571Y-71835714D02*
X171310714Y-71835714D01*
X171296428Y-71978571D01*
X171310714Y-71964285D01*
X171339285Y-71950000D01*
X171410714Y-71950000D01*
X171439285Y-71964285D01*
X171453571Y-71978571D01*
X171467857Y-72007142D01*
X171467857Y-72078571D01*
X171453571Y-72107142D01*
X171439285Y-72121428D01*
X171410714Y-72135714D01*
X171339285Y-72135714D01*
X171310714Y-72121428D01*
X171296428Y-72107142D01*
X171725000Y-71935714D02*
X171725000Y-72135714D01*
X171653571Y-71821428D02*
X171582142Y-72035714D01*
X171767857Y-72035714D01*
X172035714Y-74800000D02*
X172035714Y-74942857D01*
X171735714Y-74942857D01*
X171835714Y-74571428D02*
X172035714Y-74571428D01*
X171721428Y-74642857D02*
X171935714Y-74714285D01*
X171935714Y-74528571D01*
X169475000Y-81335714D02*
X169375000Y-81192857D01*
X169303571Y-81335714D02*
X169303571Y-81035714D01*
X169417857Y-81035714D01*
X169446428Y-81050000D01*
X169460714Y-81064285D01*
X169475000Y-81092857D01*
X169475000Y-81135714D01*
X169460714Y-81164285D01*
X169446428Y-81178571D01*
X169417857Y-81192857D01*
X169303571Y-81192857D01*
X169603571Y-81178571D02*
X169703571Y-81178571D01*
X169746428Y-81335714D02*
X169603571Y-81335714D01*
X169603571Y-81035714D01*
X169746428Y-81035714D01*
X169975000Y-81178571D02*
X169875000Y-81178571D01*
X169875000Y-81335714D02*
X169875000Y-81035714D01*
X170017857Y-81035714D01*
X170175000Y-81035714D02*
X170175000Y-81107142D01*
X170103571Y-81078571D02*
X170175000Y-81107142D01*
X170246428Y-81078571D01*
X170132142Y-81164285D02*
X170175000Y-81107142D01*
X170217857Y-81164285D01*
X170403571Y-81035714D02*
X170403571Y-81107142D01*
X170332142Y-81078571D02*
X170403571Y-81107142D01*
X170475000Y-81078571D01*
X170360714Y-81164285D02*
X170403571Y-81107142D01*
X170446428Y-81164285D01*
X195957142Y-63257142D02*
X195942857Y-63271428D01*
X195900000Y-63285714D01*
X195871428Y-63285714D01*
X195828571Y-63271428D01*
X195800000Y-63242857D01*
X195785714Y-63214285D01*
X195771428Y-63157142D01*
X195771428Y-63114285D01*
X195785714Y-63057142D01*
X195800000Y-63028571D01*
X195828571Y-63000000D01*
X195871428Y-62985714D01*
X195900000Y-62985714D01*
X195942857Y-63000000D01*
X195957142Y-63014285D01*
X196071428Y-63014285D02*
X196085714Y-63000000D01*
X196114285Y-62985714D01*
X196185714Y-62985714D01*
X196214285Y-63000000D01*
X196228571Y-63014285D01*
X196242857Y-63042857D01*
X196242857Y-63071428D01*
X196228571Y-63114285D01*
X196057142Y-63285714D01*
X196242857Y-63285714D01*
X196514285Y-62985714D02*
X196371428Y-62985714D01*
X196357142Y-63128571D01*
X196371428Y-63114285D01*
X196400000Y-63100000D01*
X196471428Y-63100000D01*
X196500000Y-63114285D01*
X196514285Y-63128571D01*
X196528571Y-63157142D01*
X196528571Y-63228571D01*
X196514285Y-63257142D01*
X196500000Y-63271428D01*
X196471428Y-63285714D01*
X196400000Y-63285714D01*
X196371428Y-63271428D01*
X196357142Y-63257142D01*
X195957142Y-82107142D02*
X195942857Y-82121428D01*
X195900000Y-82135714D01*
X195871428Y-82135714D01*
X195828571Y-82121428D01*
X195800000Y-82092857D01*
X195785714Y-82064285D01*
X195771428Y-82007142D01*
X195771428Y-81964285D01*
X195785714Y-81907142D01*
X195800000Y-81878571D01*
X195828571Y-81850000D01*
X195871428Y-81835714D01*
X195900000Y-81835714D01*
X195942857Y-81850000D01*
X195957142Y-81864285D01*
X196214285Y-81935714D02*
X196214285Y-82135714D01*
X196142857Y-81821428D02*
X196071428Y-82035714D01*
X196257142Y-82035714D01*
X196500000Y-81835714D02*
X196442857Y-81835714D01*
X196414285Y-81850000D01*
X196400000Y-81864285D01*
X196371428Y-81907142D01*
X196357142Y-81964285D01*
X196357142Y-82078571D01*
X196371428Y-82107142D01*
X196385714Y-82121428D01*
X196414285Y-82135714D01*
X196471428Y-82135714D01*
X196500000Y-82121428D01*
X196514285Y-82107142D01*
X196528571Y-82078571D01*
X196528571Y-82007142D01*
X196514285Y-81978571D01*
X196500000Y-81964285D01*
X196471428Y-81950000D01*
X196414285Y-81950000D01*
X196385714Y-81964285D01*
X196371428Y-81978571D01*
X196357142Y-82007142D01*
X195957142Y-80957142D02*
X195942857Y-80971428D01*
X195900000Y-80985714D01*
X195871428Y-80985714D01*
X195828571Y-80971428D01*
X195800000Y-80942857D01*
X195785714Y-80914285D01*
X195771428Y-80857142D01*
X195771428Y-80814285D01*
X195785714Y-80757142D01*
X195800000Y-80728571D01*
X195828571Y-80700000D01*
X195871428Y-80685714D01*
X195900000Y-80685714D01*
X195942857Y-80700000D01*
X195957142Y-80714285D01*
X196228571Y-80685714D02*
X196085714Y-80685714D01*
X196071428Y-80828571D01*
X196085714Y-80814285D01*
X196114285Y-80800000D01*
X196185714Y-80800000D01*
X196214285Y-80814285D01*
X196228571Y-80828571D01*
X196242857Y-80857142D01*
X196242857Y-80928571D01*
X196228571Y-80957142D01*
X196214285Y-80971428D01*
X196185714Y-80985714D01*
X196114285Y-80985714D01*
X196085714Y-80971428D01*
X196071428Y-80957142D01*
X196514285Y-80685714D02*
X196371428Y-80685714D01*
X196357142Y-80828571D01*
X196371428Y-80814285D01*
X196400000Y-80800000D01*
X196471428Y-80800000D01*
X196500000Y-80814285D01*
X196514285Y-80828571D01*
X196528571Y-80857142D01*
X196528571Y-80928571D01*
X196514285Y-80957142D01*
X196500000Y-80971428D01*
X196471428Y-80985714D01*
X196400000Y-80985714D01*
X196371428Y-80971428D01*
X196357142Y-80957142D01*
X195957142Y-62107142D02*
X195942857Y-62121428D01*
X195900000Y-62135714D01*
X195871428Y-62135714D01*
X195828571Y-62121428D01*
X195800000Y-62092857D01*
X195785714Y-62064285D01*
X195771428Y-62007142D01*
X195771428Y-61964285D01*
X195785714Y-61907142D01*
X195800000Y-61878571D01*
X195828571Y-61850000D01*
X195871428Y-61835714D01*
X195900000Y-61835714D01*
X195942857Y-61850000D01*
X195957142Y-61864285D01*
X196228571Y-61835714D02*
X196085714Y-61835714D01*
X196071428Y-61978571D01*
X196085714Y-61964285D01*
X196114285Y-61950000D01*
X196185714Y-61950000D01*
X196214285Y-61964285D01*
X196228571Y-61978571D01*
X196242857Y-62007142D01*
X196242857Y-62078571D01*
X196228571Y-62107142D01*
X196214285Y-62121428D01*
X196185714Y-62135714D01*
X196114285Y-62135714D01*
X196085714Y-62121428D01*
X196071428Y-62107142D01*
X196500000Y-61835714D02*
X196442857Y-61835714D01*
X196414285Y-61850000D01*
X196400000Y-61864285D01*
X196371428Y-61907142D01*
X196357142Y-61964285D01*
X196357142Y-62078571D01*
X196371428Y-62107142D01*
X196385714Y-62121428D01*
X196414285Y-62135714D01*
X196471428Y-62135714D01*
X196500000Y-62121428D01*
X196514285Y-62107142D01*
X196528571Y-62078571D01*
X196528571Y-62007142D01*
X196514285Y-61978571D01*
X196500000Y-61964285D01*
X196471428Y-61950000D01*
X196414285Y-61950000D01*
X196385714Y-61964285D01*
X196371428Y-61978571D01*
X196357142Y-62007142D01*
X183785714Y-68900000D02*
X183642857Y-69000000D01*
X183785714Y-69071428D02*
X183485714Y-69071428D01*
X183485714Y-68957142D01*
X183500000Y-68928571D01*
X183514285Y-68914285D01*
X183542857Y-68900000D01*
X183585714Y-68900000D01*
X183614285Y-68914285D01*
X183628571Y-68928571D01*
X183642857Y-68957142D01*
X183642857Y-69071428D01*
X183585714Y-68642857D02*
X183785714Y-68642857D01*
X183471428Y-68714285D02*
X183685714Y-68785714D01*
X183685714Y-68600000D01*
X174950000Y-76535714D02*
X174850000Y-76392857D01*
X174778571Y-76535714D02*
X174778571Y-76235714D01*
X174892857Y-76235714D01*
X174921428Y-76250000D01*
X174935714Y-76264285D01*
X174950000Y-76292857D01*
X174950000Y-76335714D01*
X174935714Y-76364285D01*
X174921428Y-76378571D01*
X174892857Y-76392857D01*
X174778571Y-76392857D01*
X175050000Y-76235714D02*
X175250000Y-76235714D01*
X175121428Y-76535714D01*
X176270000Y-76535714D02*
X176170000Y-76392857D01*
X176098571Y-76535714D02*
X176098571Y-76235714D01*
X176212857Y-76235714D01*
X176241428Y-76250000D01*
X176255714Y-76264285D01*
X176270000Y-76292857D01*
X176270000Y-76335714D01*
X176255714Y-76364285D01*
X176241428Y-76378571D01*
X176212857Y-76392857D01*
X176098571Y-76392857D01*
X176441428Y-76364285D02*
X176412857Y-76350000D01*
X176398571Y-76335714D01*
X176384285Y-76307142D01*
X176384285Y-76292857D01*
X176398571Y-76264285D01*
X176412857Y-76250000D01*
X176441428Y-76235714D01*
X176498571Y-76235714D01*
X176527142Y-76250000D01*
X176541428Y-76264285D01*
X176555714Y-76292857D01*
X176555714Y-76307142D01*
X176541428Y-76335714D01*
X176527142Y-76350000D01*
X176498571Y-76364285D01*
X176441428Y-76364285D01*
X176412857Y-76378571D01*
X176398571Y-76392857D01*
X176384285Y-76421428D01*
X176384285Y-76478571D01*
X176398571Y-76507142D01*
X176412857Y-76521428D01*
X176441428Y-76535714D01*
X176498571Y-76535714D01*
X176527142Y-76521428D01*
X176541428Y-76507142D01*
X176555714Y-76478571D01*
X176555714Y-76421428D01*
X176541428Y-76392857D01*
X176527142Y-76378571D01*
X176498571Y-76364285D01*
X172657142Y-73135714D02*
X172557142Y-72992857D01*
X172485714Y-73135714D02*
X172485714Y-72835714D01*
X172600000Y-72835714D01*
X172628571Y-72850000D01*
X172642857Y-72864285D01*
X172657142Y-72892857D01*
X172657142Y-72935714D01*
X172642857Y-72964285D01*
X172628571Y-72978571D01*
X172600000Y-72992857D01*
X172485714Y-72992857D01*
X172942857Y-73135714D02*
X172771428Y-73135714D01*
X172857142Y-73135714D02*
X172857142Y-72835714D01*
X172828571Y-72878571D01*
X172800000Y-72907142D01*
X172771428Y-72921428D01*
X173228571Y-73135714D02*
X173057142Y-73135714D01*
X173142857Y-73135714D02*
X173142857Y-72835714D01*
X173114285Y-72878571D01*
X173085714Y-72907142D01*
X173057142Y-72921428D01*
X182557142Y-82735714D02*
X182457142Y-82592857D01*
X182385714Y-82735714D02*
X182385714Y-82435714D01*
X182500000Y-82435714D01*
X182528571Y-82450000D01*
X182542857Y-82464285D01*
X182557142Y-82492857D01*
X182557142Y-82535714D01*
X182542857Y-82564285D01*
X182528571Y-82578571D01*
X182500000Y-82592857D01*
X182385714Y-82592857D01*
X182842857Y-82735714D02*
X182671428Y-82735714D01*
X182757142Y-82735714D02*
X182757142Y-82435714D01*
X182728571Y-82478571D01*
X182700000Y-82507142D01*
X182671428Y-82521428D01*
X182942857Y-82435714D02*
X183128571Y-82435714D01*
X183028571Y-82550000D01*
X183071428Y-82550000D01*
X183100000Y-82564285D01*
X183114285Y-82578571D01*
X183128571Y-82607142D01*
X183128571Y-82678571D01*
X183114285Y-82707142D01*
X183100000Y-82721428D01*
X183071428Y-82735714D01*
X182985714Y-82735714D01*
X182957142Y-82721428D01*
X182942857Y-82707142D01*
X182557142Y-83385714D02*
X182457142Y-83242857D01*
X182385714Y-83385714D02*
X182385714Y-83085714D01*
X182500000Y-83085714D01*
X182528571Y-83100000D01*
X182542857Y-83114285D01*
X182557142Y-83142857D01*
X182557142Y-83185714D01*
X182542857Y-83214285D01*
X182528571Y-83228571D01*
X182500000Y-83242857D01*
X182385714Y-83242857D01*
X182842857Y-83385714D02*
X182671428Y-83385714D01*
X182757142Y-83385714D02*
X182757142Y-83085714D01*
X182728571Y-83128571D01*
X182700000Y-83157142D01*
X182671428Y-83171428D01*
X183114285Y-83085714D02*
X182971428Y-83085714D01*
X182957142Y-83228571D01*
X182971428Y-83214285D01*
X183000000Y-83200000D01*
X183071428Y-83200000D01*
X183100000Y-83214285D01*
X183114285Y-83228571D01*
X183128571Y-83257142D01*
X183128571Y-83328571D01*
X183114285Y-83357142D01*
X183100000Y-83371428D01*
X183071428Y-83385714D01*
X183000000Y-83385714D01*
X182971428Y-83371428D01*
X182957142Y-83357142D01*
X186557142Y-78985714D02*
X186457142Y-78842857D01*
X186385714Y-78985714D02*
X186385714Y-78685714D01*
X186500000Y-78685714D01*
X186528571Y-78700000D01*
X186542857Y-78714285D01*
X186557142Y-78742857D01*
X186557142Y-78785714D01*
X186542857Y-78814285D01*
X186528571Y-78828571D01*
X186500000Y-78842857D01*
X186385714Y-78842857D01*
X186842857Y-78985714D02*
X186671428Y-78985714D01*
X186757142Y-78985714D02*
X186757142Y-78685714D01*
X186728571Y-78728571D01*
X186700000Y-78757142D01*
X186671428Y-78771428D01*
X187014285Y-78814285D02*
X186985714Y-78800000D01*
X186971428Y-78785714D01*
X186957142Y-78757142D01*
X186957142Y-78742857D01*
X186971428Y-78714285D01*
X186985714Y-78700000D01*
X187014285Y-78685714D01*
X187071428Y-78685714D01*
X187100000Y-78700000D01*
X187114285Y-78714285D01*
X187128571Y-78742857D01*
X187128571Y-78757142D01*
X187114285Y-78785714D01*
X187100000Y-78800000D01*
X187071428Y-78814285D01*
X187014285Y-78814285D01*
X186985714Y-78828571D01*
X186971428Y-78842857D01*
X186957142Y-78871428D01*
X186957142Y-78928571D01*
X186971428Y-78957142D01*
X186985714Y-78971428D01*
X187014285Y-78985714D01*
X187071428Y-78985714D01*
X187100000Y-78971428D01*
X187114285Y-78957142D01*
X187128571Y-78928571D01*
X187128571Y-78871428D01*
X187114285Y-78842857D01*
X187100000Y-78828571D01*
X187071428Y-78814285D01*
X186557142Y-79635714D02*
X186457142Y-79492857D01*
X186385714Y-79635714D02*
X186385714Y-79335714D01*
X186500000Y-79335714D01*
X186528571Y-79350000D01*
X186542857Y-79364285D01*
X186557142Y-79392857D01*
X186557142Y-79435714D01*
X186542857Y-79464285D01*
X186528571Y-79478571D01*
X186500000Y-79492857D01*
X186385714Y-79492857D01*
X186842857Y-79635714D02*
X186671428Y-79635714D01*
X186757142Y-79635714D02*
X186757142Y-79335714D01*
X186728571Y-79378571D01*
X186700000Y-79407142D01*
X186671428Y-79421428D01*
X186985714Y-79635714D02*
X187042857Y-79635714D01*
X187071428Y-79621428D01*
X187085714Y-79607142D01*
X187114285Y-79564285D01*
X187128571Y-79507142D01*
X187128571Y-79392857D01*
X187114285Y-79364285D01*
X187100000Y-79350000D01*
X187071428Y-79335714D01*
X187014285Y-79335714D01*
X186985714Y-79350000D01*
X186971428Y-79364285D01*
X186957142Y-79392857D01*
X186957142Y-79464285D01*
X186971428Y-79492857D01*
X186985714Y-79507142D01*
X187014285Y-79521428D01*
X187071428Y-79521428D01*
X187100000Y-79507142D01*
X187114285Y-79492857D01*
X187128571Y-79464285D01*
X182057142Y-61535714D02*
X181957142Y-61392857D01*
X181885714Y-61535714D02*
X181885714Y-61235714D01*
X182000000Y-61235714D01*
X182028571Y-61250000D01*
X182042857Y-61264285D01*
X182057142Y-61292857D01*
X182057142Y-61335714D01*
X182042857Y-61364285D01*
X182028571Y-61378571D01*
X182000000Y-61392857D01*
X181885714Y-61392857D01*
X182171428Y-61264285D02*
X182185714Y-61250000D01*
X182214285Y-61235714D01*
X182285714Y-61235714D01*
X182314285Y-61250000D01*
X182328571Y-61264285D01*
X182342857Y-61292857D01*
X182342857Y-61321428D01*
X182328571Y-61364285D01*
X182157142Y-61535714D01*
X182342857Y-61535714D01*
X182528571Y-61235714D02*
X182557142Y-61235714D01*
X182585714Y-61250000D01*
X182600000Y-61264285D01*
X182614285Y-61292857D01*
X182628571Y-61350000D01*
X182628571Y-61421428D01*
X182614285Y-61478571D01*
X182600000Y-61507142D01*
X182585714Y-61521428D01*
X182557142Y-61535714D01*
X182528571Y-61535714D01*
X182500000Y-61521428D01*
X182485714Y-61507142D01*
X182471428Y-61478571D01*
X182457142Y-61421428D01*
X182457142Y-61350000D01*
X182471428Y-61292857D01*
X182485714Y-61264285D01*
X182500000Y-61250000D01*
X182528571Y-61235714D01*
X182057142Y-60885714D02*
X181957142Y-60742857D01*
X181885714Y-60885714D02*
X181885714Y-60585714D01*
X182000000Y-60585714D01*
X182028571Y-60600000D01*
X182042857Y-60614285D01*
X182057142Y-60642857D01*
X182057142Y-60685714D01*
X182042857Y-60714285D01*
X182028571Y-60728571D01*
X182000000Y-60742857D01*
X181885714Y-60742857D01*
X182171428Y-60614285D02*
X182185714Y-60600000D01*
X182214285Y-60585714D01*
X182285714Y-60585714D01*
X182314285Y-60600000D01*
X182328571Y-60614285D01*
X182342857Y-60642857D01*
X182342857Y-60671428D01*
X182328571Y-60714285D01*
X182157142Y-60885714D01*
X182342857Y-60885714D01*
X182600000Y-60685714D02*
X182600000Y-60885714D01*
X182528571Y-60571428D02*
X182457142Y-60785714D01*
X182642857Y-60785714D01*
X178007142Y-65335714D02*
X177907142Y-65192857D01*
X177835714Y-65335714D02*
X177835714Y-65035714D01*
X177950000Y-65035714D01*
X177978571Y-65050000D01*
X177992857Y-65064285D01*
X178007142Y-65092857D01*
X178007142Y-65135714D01*
X177992857Y-65164285D01*
X177978571Y-65178571D01*
X177950000Y-65192857D01*
X177835714Y-65192857D01*
X178121428Y-65064285D02*
X178135714Y-65050000D01*
X178164285Y-65035714D01*
X178235714Y-65035714D01*
X178264285Y-65050000D01*
X178278571Y-65064285D01*
X178292857Y-65092857D01*
X178292857Y-65121428D01*
X178278571Y-65164285D01*
X178107142Y-65335714D01*
X178292857Y-65335714D01*
X178550000Y-65035714D02*
X178492857Y-65035714D01*
X178464285Y-65050000D01*
X178450000Y-65064285D01*
X178421428Y-65107142D01*
X178407142Y-65164285D01*
X178407142Y-65278571D01*
X178421428Y-65307142D01*
X178435714Y-65321428D01*
X178464285Y-65335714D01*
X178521428Y-65335714D01*
X178550000Y-65321428D01*
X178564285Y-65307142D01*
X178578571Y-65278571D01*
X178578571Y-65207142D01*
X178564285Y-65178571D01*
X178550000Y-65164285D01*
X178521428Y-65150000D01*
X178464285Y-65150000D01*
X178435714Y-65164285D01*
X178421428Y-65178571D01*
X178407142Y-65207142D01*
X178007142Y-64735714D02*
X177907142Y-64592857D01*
X177835714Y-64735714D02*
X177835714Y-64435714D01*
X177950000Y-64435714D01*
X177978571Y-64450000D01*
X177992857Y-64464285D01*
X178007142Y-64492857D01*
X178007142Y-64535714D01*
X177992857Y-64564285D01*
X177978571Y-64578571D01*
X177950000Y-64592857D01*
X177835714Y-64592857D01*
X178121428Y-64464285D02*
X178135714Y-64450000D01*
X178164285Y-64435714D01*
X178235714Y-64435714D01*
X178264285Y-64450000D01*
X178278571Y-64464285D01*
X178292857Y-64492857D01*
X178292857Y-64521428D01*
X178278571Y-64564285D01*
X178107142Y-64735714D01*
X178292857Y-64735714D01*
X178392857Y-64435714D02*
X178592857Y-64435714D01*
X178464285Y-64735714D01*
X169335714Y-63592857D02*
X169192857Y-63692857D01*
X169335714Y-63764285D02*
X169035714Y-63764285D01*
X169035714Y-63650000D01*
X169050000Y-63621428D01*
X169064285Y-63607142D01*
X169092857Y-63592857D01*
X169135714Y-63592857D01*
X169164285Y-63607142D01*
X169178571Y-63621428D01*
X169192857Y-63650000D01*
X169192857Y-63764285D01*
X169035714Y-63492857D02*
X169035714Y-63307142D01*
X169150000Y-63407142D01*
X169150000Y-63364285D01*
X169164285Y-63335714D01*
X169178571Y-63321428D01*
X169207142Y-63307142D01*
X169278571Y-63307142D01*
X169307142Y-63321428D01*
X169321428Y-63335714D01*
X169335714Y-63364285D01*
X169335714Y-63450000D01*
X169321428Y-63478571D01*
X169307142Y-63492857D01*
X169035714Y-63121428D02*
X169035714Y-63092857D01*
X169050000Y-63064285D01*
X169064285Y-63050000D01*
X169092857Y-63035714D01*
X169150000Y-63021428D01*
X169221428Y-63021428D01*
X169278571Y-63035714D01*
X169307142Y-63050000D01*
X169321428Y-63064285D01*
X169335714Y-63092857D01*
X169335714Y-63121428D01*
X169321428Y-63150000D01*
X169307142Y-63164285D01*
X169278571Y-63178571D01*
X169221428Y-63192857D01*
X169150000Y-63192857D01*
X169092857Y-63178571D01*
X169064285Y-63164285D01*
X169050000Y-63150000D01*
X169035714Y-63121428D01*
X185022857Y-82505714D02*
X184922857Y-82362857D01*
X184851428Y-82505714D02*
X184851428Y-82205714D01*
X184965714Y-82205714D01*
X184994285Y-82220000D01*
X185008571Y-82234285D01*
X185022857Y-82262857D01*
X185022857Y-82305714D01*
X185008571Y-82334285D01*
X184994285Y-82348571D01*
X184965714Y-82362857D01*
X184851428Y-82362857D01*
X185151428Y-82505714D02*
X185151428Y-82205714D01*
X185322857Y-82505714D01*
X185322857Y-82205714D01*
X185451428Y-82234285D02*
X185465714Y-82220000D01*
X185494285Y-82205714D01*
X185565714Y-82205714D01*
X185594285Y-82220000D01*
X185608571Y-82234285D01*
X185622857Y-82262857D01*
X185622857Y-82291428D01*
X185608571Y-82334285D01*
X185437142Y-82505714D01*
X185622857Y-82505714D01*
X179562857Y-61765714D02*
X179462857Y-61622857D01*
X179391428Y-61765714D02*
X179391428Y-61465714D01*
X179505714Y-61465714D01*
X179534285Y-61480000D01*
X179548571Y-61494285D01*
X179562857Y-61522857D01*
X179562857Y-61565714D01*
X179548571Y-61594285D01*
X179534285Y-61608571D01*
X179505714Y-61622857D01*
X179391428Y-61622857D01*
X179691428Y-61765714D02*
X179691428Y-61465714D01*
X179862857Y-61765714D01*
X179862857Y-61465714D01*
X179977142Y-61465714D02*
X180177142Y-61465714D01*
X180048571Y-61765714D01*
X179546428Y-69089285D02*
X179517857Y-69075000D01*
X179489285Y-69046428D01*
X179446428Y-69003571D01*
X179417857Y-68989285D01*
X179389285Y-68989285D01*
X179403571Y-69060714D02*
X179375000Y-69046428D01*
X179346428Y-69017857D01*
X179332142Y-68960714D01*
X179332142Y-68860714D01*
X179346428Y-68803571D01*
X179375000Y-68775000D01*
X179403571Y-68760714D01*
X179460714Y-68760714D01*
X179489285Y-68775000D01*
X179517857Y-68803571D01*
X179532142Y-68860714D01*
X179532142Y-68960714D01*
X179517857Y-69017857D01*
X179489285Y-69046428D01*
X179460714Y-69060714D01*
X179403571Y-69060714D01*
X179817857Y-69060714D02*
X179646428Y-69060714D01*
X179732142Y-69060714D02*
X179732142Y-68760714D01*
X179703571Y-68803571D01*
X179675000Y-68832142D01*
X179646428Y-68846428D01*
X196750000Y-64310714D02*
X196650000Y-64167857D01*
X196578571Y-64310714D02*
X196578571Y-64010714D01*
X196692857Y-64010714D01*
X196721428Y-64025000D01*
X196735714Y-64039285D01*
X196750000Y-64067857D01*
X196750000Y-64110714D01*
X196735714Y-64139285D01*
X196721428Y-64153571D01*
X196692857Y-64167857D01*
X196578571Y-64167857D01*
X196878571Y-64153571D02*
X196978571Y-64153571D01*
X197021428Y-64310714D02*
X196878571Y-64310714D01*
X196878571Y-64010714D01*
X197021428Y-64010714D01*
X197250000Y-64153571D02*
X197150000Y-64153571D01*
X197150000Y-64310714D02*
X197150000Y-64010714D01*
X197292857Y-64010714D01*
X197450000Y-64010714D02*
X197450000Y-64082142D01*
X197378571Y-64053571D02*
X197450000Y-64082142D01*
X197521428Y-64053571D01*
X197407142Y-64139285D02*
X197450000Y-64082142D01*
X197492857Y-64139285D01*
X197678571Y-64010714D02*
X197678571Y-64082142D01*
X197607142Y-64053571D02*
X197678571Y-64082142D01*
X197750000Y-64053571D01*
X197635714Y-64139285D02*
X197678571Y-64082142D01*
X197721428Y-64139285D01*
D13*
X181470000Y-63200000D02*
X181470000Y-61800000D01*
X182070000Y-61800000D02*
X182070000Y-63200000D01*
X182070000Y-63200000D02*
X181470000Y-63200000D01*
X181470000Y-61800000D02*
X182070000Y-61800000D01*
D14*
X182095000Y-63325000D02*
G75*
G03*
X182095000Y-63325000I-25000J0D01*
G01*
D11*
X174630000Y-65780000D02*
X174630000Y-64280000D01*
X174630000Y-64280000D02*
X176630000Y-64280000D01*
X176630000Y-64280000D02*
X176630000Y-66280000D01*
X175130000Y-66280000D02*
X174630000Y-65780000D01*
X176630000Y-66280000D02*
X175130000Y-66280000D01*
X178106000Y-60435000D02*
X178106000Y-63735000D01*
X178106000Y-63735000D02*
X174806000Y-63735000D01*
X174806000Y-60435000D02*
X178106000Y-60435000D01*
X174806000Y-63735000D02*
X174806000Y-60435000D01*
D13*
X177130000Y-66960000D02*
X177130000Y-65560000D01*
X177130000Y-65560000D02*
X177730000Y-65560000D01*
X177730000Y-65560000D02*
X177730000Y-66960000D01*
X177730000Y-66960000D02*
X177130000Y-66960000D01*
D14*
X177155000Y-65435000D02*
G75*
G03*
X177155000Y-65435000I-25000J0D01*
G01*
D11*
X173840000Y-65465000D02*
X174340000Y-65465000D01*
X173840000Y-66465000D02*
X173840000Y-65465000D01*
X174340000Y-66465000D02*
X173840000Y-66465000D01*
X174340000Y-65465000D02*
X174340000Y-66465000D01*
X185110000Y-64505000D02*
X185110000Y-65505000D01*
X184610000Y-65505000D02*
X184610000Y-64505000D01*
X185110000Y-65505000D02*
X184610000Y-65505000D01*
X184610000Y-64505000D02*
X185110000Y-64505000D01*
X171687500Y-66800000D02*
X172387500Y-66100000D01*
X168887500Y-66800000D02*
X171687500Y-66800000D01*
X172387500Y-64000000D02*
X168887500Y-64000000D01*
X168887500Y-64000000D02*
X168887500Y-66800000D01*
X172387500Y-66100000D02*
X172387500Y-64000000D01*
X188090000Y-63860000D02*
X189090000Y-63860000D01*
X188090000Y-64360000D02*
X188090000Y-63860000D01*
X189090000Y-63860000D02*
X189090000Y-64360000D01*
X189090000Y-64360000D02*
X188090000Y-64360000D01*
X171300000Y-78400000D02*
X173300000Y-78400000D01*
X173300000Y-78400000D02*
X173300000Y-79400000D01*
X171300000Y-79400000D02*
X171300000Y-78400000D01*
X173300000Y-79400000D02*
X171300000Y-79400000D01*
X180660000Y-76260000D02*
X180660000Y-79460000D01*
X182260000Y-76660000D02*
X181860000Y-76260000D01*
X180660000Y-79460000D02*
X182260000Y-79460000D01*
X181860000Y-76260000D02*
X180660000Y-76260000D01*
X182260000Y-79460000D02*
X182260000Y-76660000D01*
X184250000Y-67550000D02*
X184250000Y-64350000D01*
X182650000Y-67150000D02*
X183050000Y-67550000D01*
X182650000Y-64350000D02*
X182650000Y-67150000D01*
X184250000Y-64350000D02*
X182650000Y-64350000D01*
X183050000Y-67550000D02*
X184250000Y-67550000D01*
X190590000Y-77510000D02*
X191090000Y-77510000D01*
X191090000Y-77510000D02*
X191090000Y-78510000D01*
X191090000Y-78510000D02*
X190590000Y-78510000D01*
X190590000Y-78510000D02*
X190590000Y-77510000D01*
X179900000Y-79475000D02*
X179900000Y-78475000D01*
X179900000Y-78475000D02*
X180400000Y-78475000D01*
X180400000Y-79475000D02*
X179900000Y-79475000D01*
X180400000Y-78475000D02*
X180400000Y-79475000D01*
X175910000Y-79620000D02*
X176910000Y-79620000D01*
X175910000Y-80120000D02*
X175910000Y-79620000D01*
X176910000Y-79620000D02*
X176910000Y-80120000D01*
X176910000Y-80120000D02*
X175910000Y-80120000D01*
D14*
X196860000Y-78870000D02*
X192160000Y-78870000D01*
X192160000Y-78870000D02*
X192160000Y-76370000D01*
X196860000Y-76370000D02*
X196860000Y-78870000D01*
X192160000Y-76370000D02*
X196860000Y-76370000D01*
X192200000Y-65125000D02*
X196900000Y-65125000D01*
X196900000Y-67625000D02*
X192200000Y-67625000D01*
X192200000Y-67625000D02*
X192200000Y-65125000D01*
X196900000Y-65125000D02*
X196900000Y-67625000D01*
D11*
X194500000Y-74550000D02*
X193500000Y-74550000D01*
X194500000Y-71500000D02*
X193000000Y-71500000D01*
X193500000Y-74550000D02*
X193000000Y-74050000D01*
X194500000Y-74550000D02*
X194500000Y-71500000D01*
X193000000Y-71500000D02*
X193000000Y-74050000D01*
D13*
X183530000Y-80800000D02*
X183530000Y-82200000D01*
X183530000Y-82200000D02*
X182930000Y-82200000D01*
X182930000Y-80800000D02*
X183530000Y-80800000D01*
X182930000Y-82200000D02*
X182930000Y-80800000D01*
D14*
X182955000Y-80675000D02*
G75*
G03*
X182955000Y-80675000I-25000J0D01*
G01*
D13*
X187270000Y-78440000D02*
X187270000Y-77040000D01*
X187870000Y-78440000D02*
X187270000Y-78440000D01*
X187270000Y-77040000D02*
X187870000Y-77040000D01*
X187870000Y-77040000D02*
X187870000Y-78440000D01*
D14*
X187895000Y-78565000D02*
G75*
G03*
X187895000Y-78565000I-25000J0D01*
G01*
D11*
X186280000Y-77450000D02*
X186280000Y-80450000D01*
X186280000Y-80450000D02*
X184280000Y-80450000D01*
X183280000Y-77450000D02*
X186280000Y-77450000D01*
X183280000Y-79450000D02*
X183280000Y-77450000D01*
X184280000Y-80450000D02*
X183280000Y-79450000D01*
X185330000Y-64650000D02*
X187330000Y-64650000D01*
X185830000Y-66650000D02*
X185330000Y-66150000D01*
X185330000Y-66150000D02*
X185330000Y-64650000D01*
X187330000Y-64650000D02*
X187330000Y-66650000D01*
X187330000Y-66650000D02*
X185830000Y-66650000D01*
X182996000Y-63755000D02*
X182996000Y-60455000D01*
X186296000Y-60455000D02*
X186296000Y-63755000D01*
X182996000Y-60455000D02*
X186296000Y-60455000D01*
X186296000Y-63755000D02*
X182996000Y-63755000D01*
X188560000Y-65100000D02*
X189060000Y-64600000D01*
X190560000Y-64600000D02*
X190560000Y-66600000D01*
X189060000Y-64600000D02*
X190560000Y-64600000D01*
X188560000Y-66600000D02*
X188560000Y-65100000D01*
X190560000Y-66600000D02*
X188560000Y-66600000D01*
X190370000Y-78220000D02*
X190370000Y-79720000D01*
X188370000Y-79720000D02*
X188370000Y-77720000D01*
X189870000Y-77720000D02*
X190370000Y-78220000D01*
X188370000Y-77720000D02*
X189870000Y-77720000D01*
X190370000Y-79720000D02*
X188370000Y-79720000D01*
X186914000Y-63725000D02*
X186914000Y-60425000D01*
X190214000Y-60425000D02*
X190214000Y-63725000D01*
X190214000Y-63725000D02*
X186914000Y-63725000D01*
X186914000Y-60425000D02*
X190214000Y-60425000D01*
X186894000Y-83565000D02*
X186894000Y-80265000D01*
X186894000Y-80265000D02*
X190194000Y-80265000D01*
X190194000Y-83565000D02*
X186894000Y-83565000D01*
X190194000Y-80265000D02*
X190194000Y-83565000D01*
X179670000Y-79350000D02*
X177670000Y-79350000D01*
X177670000Y-79350000D02*
X177670000Y-77350000D01*
X179170000Y-77350000D02*
X179670000Y-77850000D01*
X179670000Y-77850000D02*
X179670000Y-79350000D01*
X177670000Y-77350000D02*
X179170000Y-77350000D01*
X178704000Y-83545000D02*
X178704000Y-80245000D01*
X178704000Y-80245000D02*
X182004000Y-80245000D01*
X182004000Y-83545000D02*
X178704000Y-83545000D01*
X182004000Y-80245000D02*
X182004000Y-83545000D01*
X174440000Y-77400000D02*
X176440000Y-77400000D01*
X176440000Y-77400000D02*
X176440000Y-78900000D01*
X174440000Y-79400000D02*
X174440000Y-77400000D01*
X175940000Y-79400000D02*
X174440000Y-79400000D01*
X176440000Y-78900000D02*
X175940000Y-79400000D01*
X174786000Y-80275000D02*
X178086000Y-80275000D01*
X174786000Y-83575000D02*
X174786000Y-80275000D01*
X178086000Y-83575000D02*
X174786000Y-83575000D01*
X178086000Y-80275000D02*
X178086000Y-83575000D01*
X176850000Y-71600000D02*
X172350000Y-71600000D01*
X172350000Y-71600000D02*
X172350000Y-76100000D01*
X176850000Y-76100000D02*
X176850000Y-71600000D01*
X172350000Y-76100000D02*
X176850000Y-76100000D01*
D15*
X170875000Y-75325000D02*
X170625000Y-75575000D01*
X168075000Y-75575000D02*
X168075000Y-72775000D01*
X170625000Y-75575000D02*
X168075000Y-75575000D01*
X170875000Y-72775000D02*
X170875000Y-75325000D01*
X168075000Y-72775000D02*
X170875000Y-72775000D01*
D16*
X170425000Y-74175000D02*
G75*
G03*
X170425000Y-74175000I-950000J0D01*
G01*
G36*
X167975000Y-74475000D02*
G01*
X167675000Y-74475000D01*
X167675000Y-73875000D01*
X167975000Y-73875000D01*
X167975000Y-74475000D01*
G37*
G36*
X171275000Y-74475000D02*
G01*
X170975000Y-74475000D01*
X170975000Y-73875000D01*
X171275000Y-73875000D01*
X171275000Y-74475000D01*
G37*
G36*
X170375000Y-75975000D02*
G01*
X168575000Y-75975000D01*
X168575000Y-75525000D01*
X170375000Y-75525000D01*
X170375000Y-75975000D01*
G37*
G36*
X170375000Y-72825000D02*
G01*
X168575000Y-72825000D01*
X168575000Y-72375000D01*
X170375000Y-72375000D01*
X170375000Y-72825000D01*
G37*
D11*
X168450000Y-76750000D02*
X168750000Y-76750000D01*
X168450000Y-76650000D02*
X168750000Y-76650000D01*
X168750000Y-77250000D02*
X168450000Y-77250000D01*
X168750000Y-76650000D02*
X168750000Y-77250000D01*
X168450000Y-77250000D02*
X168450000Y-76650000D01*
X168450000Y-76850000D02*
X168750000Y-76850000D01*
X182425000Y-69875000D02*
X181925000Y-70375000D01*
X182425000Y-67375000D02*
X180825000Y-67375000D01*
X180825000Y-67375000D02*
X180825000Y-70375000D01*
X182425000Y-69875000D02*
X182425000Y-67375000D01*
X181925000Y-70375000D02*
X180825000Y-70375000D01*
X171100000Y-77700000D02*
X169100000Y-77700000D01*
X169100000Y-76700000D02*
X171100000Y-76700000D01*
X171100000Y-76700000D02*
X171100000Y-77700000D01*
X169100000Y-77700000D02*
X169100000Y-76700000D01*
X173300000Y-77700000D02*
X171300000Y-77700000D01*
X171300000Y-77700000D02*
X171300000Y-76700000D01*
X173300000Y-76700000D02*
X173300000Y-77700000D01*
X171300000Y-76700000D02*
X173300000Y-76700000D01*
X171100000Y-79400000D02*
X169100000Y-79400000D01*
X169100000Y-79400000D02*
X169100000Y-78400000D01*
X169100000Y-78400000D02*
X171100000Y-78400000D01*
X171100000Y-78400000D02*
X171100000Y-79400000D01*
X193125000Y-71200000D02*
X193975000Y-71200000D01*
X194475000Y-70700000D02*
X194475000Y-69000000D01*
X193975000Y-71200000D02*
X194475000Y-70700000D01*
X193125000Y-71200000D02*
X193125000Y-69000000D01*
X193125000Y-69000000D02*
X194475000Y-69000000D01*
X178400000Y-71100000D02*
X181400000Y-71100000D01*
X180650000Y-74100000D02*
X178400000Y-74100000D01*
X181400000Y-73350000D02*
X180650000Y-74100000D01*
X181400000Y-71100000D02*
X181400000Y-73350000D01*
X178400000Y-74100000D02*
X178400000Y-71100000D01*
X174200000Y-71250000D02*
X178200000Y-71250000D01*
X178200000Y-67250000D02*
X178200000Y-71250000D01*
X174200000Y-67750000D02*
X174200000Y-71250000D01*
X174700000Y-67250000D02*
X174200000Y-67750000D01*
X174700000Y-67250000D02*
X178200000Y-67250000D01*
D17*
X186200000Y-76850000D02*
X186200000Y-67150000D01*
X190600000Y-75850000D02*
X189600000Y-76850000D01*
X190600000Y-67150000D02*
X190600000Y-75850000D01*
X186200000Y-67150000D02*
X190600000Y-67150000D01*
X189600000Y-76850000D02*
X186200000Y-76850000D01*
D11*
X184200000Y-72450000D02*
X183600000Y-72450000D01*
X183600000Y-72150000D02*
X184200000Y-72150000D01*
X183600000Y-72450000D02*
X183600000Y-72150000D01*
X184200000Y-72150000D02*
X184200000Y-72450000D01*
X182762500Y-76550000D02*
X182762500Y-75750000D01*
X184362500Y-75750000D02*
X184362500Y-76550000D01*
X182762500Y-75750000D02*
X184362500Y-75750000D01*
X184362500Y-76550000D02*
X182762500Y-76550000D01*
X184212500Y-75400000D02*
X182612500Y-75400000D01*
X182612500Y-74600000D02*
X184212500Y-74600000D01*
X184212500Y-74600000D02*
X184212500Y-75400000D01*
X182612500Y-75400000D02*
X182612500Y-74600000D01*
X183500000Y-74250000D02*
X183500000Y-73750000D01*
X183500000Y-73750000D02*
X184500000Y-73750000D01*
X184500000Y-73750000D02*
X184500000Y-74250000D01*
X184500000Y-74250000D02*
X183500000Y-74250000D01*
X184500000Y-73350000D02*
X183500000Y-73350000D01*
X183500000Y-73350000D02*
X183500000Y-72850000D01*
X183500000Y-72850000D02*
X184500000Y-72850000D01*
X184500000Y-72850000D02*
X184500000Y-73350000D01*
X177550000Y-74015000D02*
X177550000Y-73015000D01*
X178050000Y-73015000D02*
X178050000Y-74015000D01*
X177550000Y-73015000D02*
X178050000Y-73015000D01*
X178050000Y-74015000D02*
X177550000Y-74015000D01*
X180250000Y-74600000D02*
X180250000Y-76600000D01*
X177750000Y-76600000D02*
X177750000Y-74850000D01*
X180250000Y-74600000D02*
X178000000Y-74600000D01*
X177750000Y-76600000D02*
X180250000Y-76600000D01*
X178000000Y-74600000D02*
X177750000Y-74850000D01*
X183500000Y-71300000D02*
X184500000Y-71300000D01*
X184500000Y-71800000D02*
X183500000Y-71800000D01*
X183500000Y-71800000D02*
X183500000Y-71300000D01*
X184500000Y-71300000D02*
X184500000Y-71800000D01*
X180685000Y-75000000D02*
X181685000Y-75000000D01*
X181685000Y-75000000D02*
X181685000Y-75500000D01*
X180685000Y-75500000D02*
X180685000Y-75000000D01*
X181685000Y-75500000D02*
X180685000Y-75500000D01*
X181720000Y-66550000D02*
X178720000Y-66550000D01*
X178720000Y-63550000D02*
X180720000Y-63550000D01*
X180720000Y-63550000D02*
X181720000Y-64550000D01*
X178720000Y-66550000D02*
X178720000Y-63550000D01*
X181720000Y-64550000D02*
X181720000Y-66550000D01*
D14*
X168300000Y-70600000D02*
X168300000Y-68100000D01*
X173000000Y-70600000D02*
X168300000Y-70600000D01*
X173000000Y-68100000D02*
X173000000Y-70600000D01*
X168300000Y-68100000D02*
X173000000Y-68100000D01*
D11*
X168450000Y-80200000D02*
X168750000Y-80200000D01*
X168450000Y-80800000D02*
X168450000Y-80200000D01*
X168750000Y-80200000D02*
X168750000Y-80800000D01*
X168750000Y-80800000D02*
X168450000Y-80800000D01*
X168450000Y-80300000D02*
X168750000Y-80300000D01*
X168450000Y-80400000D02*
X168750000Y-80400000D01*
X168750000Y-78900000D02*
X168450000Y-78900000D01*
X168450000Y-78400000D02*
X168750000Y-78400000D01*
X168450000Y-78900000D02*
X168450000Y-78300000D01*
X168450000Y-78300000D02*
X168750000Y-78300000D01*
X168450000Y-78500000D02*
X168750000Y-78500000D01*
X168750000Y-78300000D02*
X168750000Y-78900000D01*
X171675000Y-72550000D02*
X171075000Y-72550000D01*
X171675000Y-72250000D02*
X171675000Y-72550000D01*
X171075000Y-72550000D02*
X171075000Y-72250000D01*
X171075000Y-72250000D02*
X171675000Y-72250000D01*
X172050000Y-73820000D02*
X172050000Y-74420000D01*
X171750000Y-74420000D02*
X171750000Y-73820000D01*
X172050000Y-74420000D02*
X171750000Y-74420000D01*
X171750000Y-73820000D02*
X172050000Y-73820000D01*
X170375000Y-81200000D02*
G75*
G03*
X170375000Y-81200000I-500000J0D01*
G01*
X195350000Y-63550000D02*
X195350000Y-62750000D01*
X196950000Y-62750000D02*
X196950000Y-63550000D01*
X196950000Y-63550000D02*
X195350000Y-63550000D01*
X195350000Y-62750000D02*
X196950000Y-62750000D01*
X196950000Y-81600000D02*
X196950000Y-82400000D01*
X195350000Y-81600000D02*
X196950000Y-81600000D01*
X195350000Y-82400000D02*
X195350000Y-81600000D01*
X196950000Y-82400000D02*
X195350000Y-82400000D01*
X196950000Y-81250000D02*
X195350000Y-81250000D01*
X196950000Y-80450000D02*
X196950000Y-81250000D01*
X195350000Y-81250000D02*
X195350000Y-80450000D01*
X195350000Y-80450000D02*
X196950000Y-80450000D01*
X196950000Y-62400000D02*
X195350000Y-62400000D01*
X195350000Y-62400000D02*
X195350000Y-61600000D01*
X195350000Y-61600000D02*
X196950000Y-61600000D01*
X196950000Y-61600000D02*
X196950000Y-62400000D01*
X183900000Y-68550000D02*
X184200000Y-68550000D01*
X183900000Y-69150000D02*
X183900000Y-68550000D01*
X184200000Y-69150000D02*
X183900000Y-69150000D01*
X184200000Y-68550000D02*
X184200000Y-69150000D01*
X174705000Y-76650000D02*
X175305000Y-76650000D01*
X175305000Y-76650000D02*
X175305000Y-76950000D01*
X174705000Y-76950000D02*
X174705000Y-76650000D01*
X175305000Y-76950000D02*
X174705000Y-76950000D01*
X176020000Y-76950000D02*
X176020000Y-76650000D01*
X176620000Y-76650000D02*
X176620000Y-76950000D01*
X176020000Y-76650000D02*
X176620000Y-76650000D01*
X176620000Y-76950000D02*
X176020000Y-76950000D01*
X171750000Y-72850000D02*
X171750000Y-73150000D01*
X171750000Y-73150000D02*
X171150000Y-73150000D01*
X171150000Y-72850000D02*
X171750000Y-72850000D01*
X171150000Y-73150000D02*
X171150000Y-72850000D01*
X183850000Y-82500000D02*
X183850000Y-82800000D01*
X183850000Y-82800000D02*
X183250000Y-82800000D01*
X183250000Y-82500000D02*
X183850000Y-82500000D01*
X183250000Y-82800000D02*
X183250000Y-82500000D01*
X183250000Y-83100000D02*
X183850000Y-83100000D01*
X183250000Y-83400000D02*
X183250000Y-83100000D01*
X183850000Y-83100000D02*
X183850000Y-83400000D01*
X183850000Y-83400000D02*
X183250000Y-83400000D01*
X187270000Y-78990000D02*
X187270000Y-78690000D01*
X187870000Y-78990000D02*
X187270000Y-78990000D01*
X187270000Y-78690000D02*
X187870000Y-78690000D01*
X187870000Y-78690000D02*
X187870000Y-78990000D01*
X187820000Y-79290000D02*
X187820000Y-79590000D01*
X187220000Y-79290000D02*
X187820000Y-79290000D01*
X187820000Y-79590000D02*
X187220000Y-79590000D01*
X187220000Y-79590000D02*
X187220000Y-79290000D01*
X181770000Y-61510000D02*
X181170000Y-61510000D01*
X181170000Y-61510000D02*
X181170000Y-61210000D01*
X181170000Y-61210000D02*
X181770000Y-61210000D01*
X181770000Y-61210000D02*
X181770000Y-61510000D01*
X181770000Y-60910000D02*
X181170000Y-60910000D01*
X181170000Y-60610000D02*
X181770000Y-60610000D01*
X181770000Y-60610000D02*
X181770000Y-60910000D01*
X181170000Y-60910000D02*
X181170000Y-60610000D01*
X177130000Y-65010000D02*
X177730000Y-65010000D01*
X177730000Y-65310000D02*
X177130000Y-65310000D01*
X177130000Y-65310000D02*
X177130000Y-65010000D01*
X177730000Y-65010000D02*
X177730000Y-65310000D01*
X177130000Y-64710000D02*
X177130000Y-64410000D01*
X177730000Y-64710000D02*
X177130000Y-64710000D01*
X177130000Y-64410000D02*
X177730000Y-64410000D01*
X177730000Y-64410000D02*
X177730000Y-64710000D01*
X168600000Y-63250000D02*
X168900000Y-63250000D01*
X168900000Y-63250000D02*
X168900000Y-63850000D01*
X168600000Y-63850000D02*
X168600000Y-63250000D01*
X168900000Y-63850000D02*
X168600000Y-63850000D01*
X184230000Y-82870000D02*
X184230000Y-81870000D01*
X184230000Y-81870000D02*
X186230000Y-81870000D01*
X186230000Y-81870000D02*
X186230000Y-82870000D01*
X186230000Y-82870000D02*
X184230000Y-82870000D01*
X178770000Y-62130000D02*
X178770000Y-61130000D01*
X178770000Y-61130000D02*
X180770000Y-61130000D01*
X180770000Y-62130000D02*
X178770000Y-62130000D01*
X180770000Y-61130000D02*
X180770000Y-62130000D01*
X180175000Y-68245000D02*
X178475000Y-68245000D01*
X180675000Y-68745000D02*
X180175000Y-68245000D01*
X178475000Y-69595000D02*
X178475000Y-68245000D01*
X180675000Y-69595000D02*
X180675000Y-68745000D01*
X180675000Y-69595000D02*
X178475000Y-69595000D01*
X197650000Y-64175000D02*
G75*
G03*
X197650000Y-64175000I-500000J0D01*
G01*
M02*
